<svg width="145" height="145" viewBox="0 0 145 145" fill="none" xmlns="http://www.w3.org/2000/svg">
<circle cx="72.5" cy="72.5" r="72.5" fill="#E5FDFF"/>
<circle cx="73" cy="73" r="55" fill="#BEFBFF"/>
<path d="M91.8162 42H53.183C50.3362 42 48.0996 44.2366 48.0996 47.0834V97.9167C48.0996 100.763 50.3362 103 53.183 103H91.8164C94.663 103 96.8997 100.763 96.8997 97.9166V47.0834C96.8996 44.2366 94.663 42 91.8162 42ZM94.8662 97.9166C94.8662 99.645 93.5446 100.967 91.8162 100.967H53.183C51.4546 100.967 50.133 99.645 50.133 97.9166V47.0834C50.133 45.355 51.4546 44.0334 53.183 44.0334H91.8164C93.5447 44.0334 94.8664 45.355 94.8664 47.0834V97.9166H94.8662Z" fill="#1299A1"/>
<path d="M86.7326 47.0833H58.2658C56.5374 47.0833 55.2158 48.4049 55.2158 50.1333V58.2666C55.2158 59.995 56.5374 61.3166 58.2658 61.3166H86.7325C88.4608 61.3166 89.7824 59.995 89.7824 58.2666V50.1333C89.7826 48.4049 88.4608 47.0833 86.7326 47.0833ZM87.7492 58.2665C87.7492 58.8765 87.3426 59.2831 86.7326 59.2831H58.2658C57.6558 59.2831 57.2492 58.8765 57.2492 58.2665V50.1333C57.2492 49.5233 57.6558 49.1166 58.2658 49.1166H86.7325C87.3425 49.1166 87.7491 49.5233 87.7491 50.1333V58.2665H87.7492Z" fill="#1299A1"/>
<path d="M62.3334 63.3501H58.2668C56.5384 63.3501 55.2168 64.6717 55.2168 66.4001V70.4667C55.2168 72.1951 56.5384 73.5167 58.2668 73.5167H62.3334C64.0618 73.5167 65.3834 72.1951 65.3834 70.4667V66.4001C65.3834 64.6717 64.0617 63.3501 62.3334 63.3501ZM63.35 70.4667C63.35 71.0767 62.9434 71.4833 62.3334 71.4833H58.2668C57.6568 71.4833 57.2502 71.0767 57.2502 70.4667V66.4001C57.2502 65.7901 57.6568 65.3835 58.2668 65.3835H62.3334C62.9434 65.3835 63.35 65.7901 63.35 66.4001V70.4667Z" fill="#1299A1"/>
<path d="M74.5326 63.3501H70.466C68.7376 63.3501 67.416 64.6717 67.416 66.4001V70.4667C67.416 72.1951 68.7376 73.5167 70.466 73.5167H74.5326C76.261 73.5167 77.5826 72.1951 77.5826 70.4667V66.4001C77.5826 64.6717 76.2609 63.3501 74.5326 63.3501ZM75.5493 70.4667C75.5493 71.0767 75.1426 71.4833 74.5326 71.4833H70.466C69.856 71.4833 69.4494 71.0767 69.4494 70.4667V66.4001C69.4494 65.7901 69.856 65.3835 70.466 65.3835H74.5326C75.1426 65.3835 75.5493 65.7901 75.5493 66.4001V70.4667Z" fill="#1299A1"/>
<path d="M86.7328 63.3501H82.6662C80.9378 63.3501 79.6162 64.6717 79.6162 66.4001V70.4667C79.6162 72.1951 80.9378 73.5167 82.6662 73.5167H86.7328C88.4612 73.5167 89.7828 72.1951 89.7828 70.4667V66.4001C89.7828 64.6717 88.4611 63.3501 86.7328 63.3501ZM87.7495 70.4667C87.7495 71.0767 87.3428 71.4833 86.7328 71.4833H82.6662C82.0562 71.4833 81.6496 71.0767 81.6496 70.4667V66.4001C81.6496 65.7901 82.0562 65.3835 82.6662 65.3835H86.7328C87.3428 65.3835 87.7495 65.7901 87.7495 66.4001V70.4667Z" fill="#1299A1"/>
<path d="M62.3334 75.55H58.2668C56.5384 75.55 55.2168 76.8717 55.2168 78.6001V82.6667C55.2168 84.3951 56.5384 85.7167 58.2668 85.7167H62.3334C64.0618 85.7167 65.3834 84.3951 65.3834 82.6667V78.6001C65.3834 76.8717 64.0617 75.55 62.3334 75.55ZM63.35 82.6667C63.35 83.2767 62.9434 83.6833 62.3334 83.6833H58.2668C57.6568 83.6833 57.2502 83.2767 57.2502 82.6667V78.6001C57.2502 77.9901 57.6568 77.5834 58.2668 77.5834H62.3334C62.9434 77.5834 63.35 77.9901 63.35 78.6001V82.6667Z" fill="#1299A1"/>
<path d="M74.5326 75.55H70.466C68.7376 75.55 67.416 76.8717 67.416 78.6001V82.6667C67.416 84.3951 68.7376 85.7167 70.466 85.7167H74.5326C76.261 85.7167 77.5826 84.3951 77.5826 82.6667V78.6001C77.5826 76.8717 76.2609 75.55 74.5326 75.55ZM75.5493 82.6667C75.5493 83.2767 75.1426 83.6833 74.5326 83.6833H70.466C69.856 83.6833 69.4494 83.2767 69.4494 82.6667V78.6001C69.4494 77.9901 69.856 77.5834 70.466 77.5834H74.5326C75.1426 77.5834 75.5493 77.9901 75.5493 78.6001V82.6667Z" fill="#1299A1"/>
<path d="M62.3334 87.75H58.2668C56.5384 87.75 55.2168 89.0716 55.2168 90.8V94.8666C55.2168 96.595 56.5384 97.9166 58.2668 97.9166H62.3334C64.0618 97.9166 65.3834 96.595 65.3834 94.8666V90.8C65.3834 89.0716 64.0617 87.75 62.3334 87.75ZM63.35 94.8666C63.35 95.4766 62.9434 95.8833 62.3334 95.8833H58.2668C57.6568 95.8833 57.2502 95.4766 57.2502 94.8666V90.8C57.2502 90.19 57.6568 89.7834 58.2668 89.7834H62.3334C62.9434 89.7834 63.35 90.19 63.35 90.8V94.8666Z" fill="#1299A1"/>
<path d="M74.5326 87.75H70.466C68.7376 87.75 67.416 89.0716 67.416 90.8V94.8666C67.416 96.595 68.7376 97.9166 70.466 97.9166H74.5326C76.261 97.9166 77.5826 96.595 77.5826 94.8666V90.8C77.5826 89.0716 76.2609 87.75 74.5326 87.75ZM75.5493 94.8666C75.5493 95.4766 75.1426 95.8833 74.5326 95.8833H70.466C69.856 95.8833 69.4494 95.4766 69.4494 94.8666V90.8C69.4494 90.19 69.856 89.7834 70.466 89.7834H74.5326C75.1426 89.7834 75.5493 90.19 75.5493 90.8V94.8666Z" fill="#1299A1"/>
<path d="M86.7328 75.55H82.6662C80.9378 75.55 79.6162 76.8717 79.6162 78.6V94.8667C79.6162 96.595 80.9378 97.9167 82.6662 97.9167H86.7328C88.4612 97.9167 89.7828 96.595 89.7828 94.8667V78.6C89.7828 76.8717 88.4611 75.55 86.7328 75.55ZM87.7495 94.8667C87.7495 95.4767 87.3428 95.8833 86.7328 95.8833H82.6662C82.0562 95.8833 81.6496 95.4767 81.6496 94.8667V78.6C81.6496 77.99 82.0562 77.5834 82.6662 77.5834H86.7328C87.3428 77.5834 87.7495 77.99 87.7495 78.6V94.8667Z" fill="#1299A1"/>
</svg>
