<svg width="145" height="145" viewBox="0 0 145 145" fill="none" xmlns="http://www.w3.org/2000/svg">
<circle cx="72.5" cy="72.5" r="72.5" fill="#E6FDFF"/>
<circle cx="73" cy="73" r="55" fill="#BEFBFF"/>
<rect x="54.5" y="39.5" width="37" height="66" rx="2.5" stroke="#1299A2" stroke-width="3"/>
<mask id="path-4-inside-1_533_25" fill="white">
<path d="M61 38H85V44C85 45.1046 84.1046 46 83 46H63C61.8954 46 61 45.1046 61 44V38Z"/>
</mask>
<path d="M61 38H85V44C85 45.1046 84.1046 46 83 46H63C61.8954 46 61 45.1046 61 44V38Z" stroke="#1299A1" stroke-width="6" mask="url(#path-4-inside-1_533_25)"/>
<g clip-path="url(#clip0_533_25)">
<path d="M79.363 67.6347C75.8478 64.1205 70.1493 64.1214 66.6351 67.6366C63.1209 71.1519 63.1217 76.8504 66.637 80.3646C70.1523 83.8788 75.8508 83.8779 79.3649 80.3626C81.0527 78.6744 82.0005 76.3849 82 73.9977C81.9995 71.611 81.051 69.3221 79.363 67.6347ZM77.6302 77.5365C77.6298 77.5369 77.6294 77.5374 77.629 77.5377V77.5347L77.173 77.9877C76.5832 78.5849 75.7243 78.8306 74.908 78.6357C74.0855 78.4156 73.3036 78.0652 72.592 77.5977C71.9308 77.1752 71.3181 76.6813 70.765 76.1247C70.256 75.6195 69.7988 75.0647 69.4 74.4687C68.9638 73.8274 68.6185 73.1288 68.374 72.3927C68.0937 71.528 68.326 70.5792 68.974 69.9417L69.508 69.4077C69.6564 69.2586 69.8977 69.2581 70.0468 69.4066C70.0472 69.4069 70.0476 69.4073 70.048 69.4077L71.734 71.0937C71.8831 71.2422 71.8836 71.4834 71.7352 71.6325C71.7348 71.6329 71.7344 71.6333 71.734 71.6337L70.744 72.6237C70.4599 72.9047 70.4242 73.3512 70.66 73.6737C71.018 74.1652 71.4143 74.6276 71.845 75.0568C72.3252 75.539 72.8472 75.9777 73.405 76.3678C73.7273 76.5926 74.1642 76.5547 74.443 76.2778L75.4 75.3058C75.5484 75.1566 75.7897 75.1561 75.9388 75.3046C75.9391 75.305 75.9395 75.3054 75.94 75.3058L77.629 76.9978C77.7781 77.1462 77.7787 77.3874 77.6302 77.5365Z" fill="#1299A2"/>
</g>
<defs>
<clipPath id="clip0_533_25">
<rect width="18" height="18" fill="white" transform="translate(64 65)"/>
</clipPath>
</defs>
</svg>
