<svg width="106" height="110" fill="none" xmlns="http://www.w3.org/2000/svg"><path fill-rule="evenodd" clip-rule="evenodd" d="M65.985 54.761c.356-.214.936-.204 1.293 0l1.923 1.124c.356.204.356.54 0 .745l-1.944 1.123c-.356.215-.936.215-1.292 0l-1.923-1.123c-.357-.204-.357-.541 0-.745l1.943-1.123ZM61.833 57.17c.356-.214.936-.214 1.282 0l1.934 1.124c.356.204.356.541-.01.745l-1.934 1.123c-.356.205-.936.205-1.292 0l-1.924-1.123c-.356-.204-.356-.541 0-.745l1.944-1.123ZM57.67 59.571c.357-.204.937-.204 1.293 0l1.924 1.123c.356.215.356.552 0 .756l-1.944 1.123c-.356.204-.926.204-1.282 0l-1.934-1.123c-.356-.204-.346-.541.01-.756l1.934-1.123ZM63.38 61.409c.366-.204.936-.204 1.293 0l1.933 1.123c.356.204.346.541-.01.746l-1.934 1.133c-.366.204-.936.204-1.292 0l-1.934-1.133c-.356-.205-.346-.542.01-.746l1.934-1.123ZM74.84 59.918c.355-.204.925-.204 1.281 0l1.934 1.123c.346.204.346.541-.01.756l-4.814 2.787c-.356.204-.936.204-1.292 0l-1.924-1.123c-.356-.214-.356-.551 0-.756l4.824-2.787ZM53.519 61.98c.356-.204.936-.204 1.292 0l1.924 1.123c.356.205.356.542 0 .756l-1.944 1.123c-.356.205-.936.205-1.292 0l-1.924-1.123c-.356-.214-.356-.551 0-.756l1.944-1.123ZM59.238 63.808c.356-.204.926-.204 1.282 0l1.934 1.124c.356.214.346.551-.01.755l-1.934 1.124c-.356.204-.936.204-1.292 0l-1.924-1.124c-.356-.204-.356-.54 0-.755l1.944-1.124ZM67.807 63.992c.356-.215.936-.215 1.293 0l1.923 1.123c.356.204.356.541 0 .746l-1.944 1.123c-.356.204-.936.204-1.282 0l-1.934-1.123c-.356-.205-.356-.542.01-.746l1.934-1.123ZM79.255 62.502c.357-.215.937-.215 1.293 0l1.923 1.123c.356.204.356.541 0 .745l-5.648 3.268c-.356.214-.936.214-1.292 0l-1.924-1.124c-.356-.204-.356-.54 0-.745l5.648-3.267ZM55.086 66.219c.356-.205.936-.205 1.282 0l1.934 1.123c.356.204.356.541 0 .745l-1.944 1.123c-.356.215-.936.215-1.292 0l-1.924-1.123c-.356-.204-.356-.541 0-.745l1.944-1.123ZM63.655 66.391c.356-.204.936-.204 1.292 0l1.924 1.124c.356.204.356.54 0 .755l-1.944 1.124c-.356.204-.936.204-1.282 0L61.71 68.27c-.356-.214-.356-.551.01-.755l1.934-1.124ZM45.205 66.8c.356-.214.936-.214 1.292 0l1.924 1.124c.356.204.356.54 0 .745l-1.944 1.123c-.356.204-.936.215-1.282 0L43.26 68.67c-.356-.204-.356-.541 0-.745l1.944-1.124ZM71.298 67.106c.356-.204.926-.204 1.282 0l1.933 1.134c.357.204.346.54-.01.745l-1.933 1.123c-.367.204-.937.204-1.293 0l-1.933-1.123c-.346-.204-.346-.541.01-.755l1.944-1.124ZM50.934 68.617c.356-.204.936-.204 1.293 0l1.923 1.123c.356.215.356.552 0 .756l-1.944 1.123c-.356.204-.936.204-1.292 0l-1.924-1.123c-.356-.204-.356-.541 0-.756l1.944-1.123ZM59.513 68.792c.356-.205.926-.205 1.282.01l1.934 1.123c.346.204.346.541-.01.745l-1.934 1.124c-.356.204-.936.204-1.292 0l-1.934-1.124c-.346-.204-.346-.54.01-.745l1.944-1.133ZM41.053 69.2c.356-.204.936-.204 1.292 0l1.924 1.133c.356.205.356.542 0 .746l-1.944 1.123c-.356.204-.937.204-1.293 0L39.11 71.08c-.356-.204-.356-.541 0-.745l1.944-1.134ZM67.034 69.578c.356-.204.936-.204 1.292 0l1.923 1.123c.357.204.357.541 0 .746l-1.943 1.123c-.356.214-.937.214-1.283.01l-1.933-1.133c-.356-.205-.356-.542.01-.746l1.934-1.123ZM55.361 71.201c.356-.204.926-.204 1.282 0l1.934 1.123c.356.204.356.541-.01.746l-1.934 1.133c-.356.204-.936.204-1.292 0l-1.924-1.133c-.356-.205-.356-.542 0-.746l1.944-1.123ZM36.89 71.61c.367-.204.937-.204 1.293 0l1.933 1.123c.356.215.346.542-.01.756l-1.944 1.123c-.356.204-.926.204-1.282 0l-1.934-1.123c-.346-.214-.346-.541.01-.756l1.934-1.123ZM42.63 73.427c.356-.205.936-.205 1.292 0l1.924 1.123c.356.214.356.551 0 .755l-1.944 1.124c-.356.204-.936.204-1.282 0l-1.934-1.124c-.356-.214-.356-.54 0-.755l1.944-1.123ZM51.209 73.6c.356-.204.936-.204 1.292 0l1.924 1.134c.356.204.356.541-.01.745l-1.934 1.124c-.356.204-.936.204-1.292 0l-1.924-1.124c-.356-.204-.356-.54 0-.745L51.21 73.6ZM32.738 74.02c.356-.205.937-.205 1.293 0l1.923 1.123c.356.204.356.54 0 .745l-1.944 1.133c-.356.205-.936.205-1.292 0l-1.924-1.133c-.356-.204-.356-.541 0-.745l1.944-1.124ZM38.478 75.837c.366-.215.936-.215 1.292 0l1.934 1.123c.346.204.346.541-.01.745l-1.944 1.123c-.356.215-.926.215-1.282 0l-1.934-1.123c-.356-.204-.346-.541.01-.745l1.934-1.123ZM47.057 76.01c.356-.204.936-.204 1.292 0l1.923 1.124c.357.204.357.541 0 .745l-1.943 1.134c-.357.204-.937.204-1.293-.01l-1.923-1.124c-.356-.204-.356-.541 0-.745l1.944-1.123ZM28.586 76.43c.356-.215.936-.205 1.282 0l1.934 1.123c.356.204.356.54-.01.745l-1.934 1.123c-.356.215-.936.215-1.292 0l-1.924-1.123c-.356-.204-.356-.541 0-.745l1.944-1.123ZM24.424 78.84c.356-.215.936-.215 1.292 0l1.924 1.123c.356.204.356.54 0 .745l-1.944 1.123c-.356.205-.926.205-1.282 0l-1.934-1.123c-.356-.204-.356-.541.01-.745l1.934-1.123ZM34.326 78.236c.366-.204.936-.204 1.292 0l1.934 1.123c.356.215.346.542-.01.756l-1.934 1.123c-.366.204-.936.204-1.292 0l-1.934-1.123c-.356-.214-.346-.541.01-.756l1.934-1.123ZM30.184 80.646c.356-.214.926-.214 1.282 0L33.4 81.77c.356.205.346.542-.01.746l-1.934 1.123c-.356.214-.936.214-1.292 0l-1.924-1.123c-.356-.204-.356-.541 0-.746l1.944-1.123ZM20.272 81.238c.356-.204.936-.204 1.292 0l1.924 1.123c.356.215.356.552 0 .756l-1.944 1.123c-.356.204-.936.204-1.292 0l-1.924-1.123c-.356-.204-.356-.541 0-.756l1.944-1.123ZM26.032 83.046c.356-.205.936-.205 1.292 0l1.924 1.123c.356.214.356.541 0 .756l-1.944 1.123c-.356.204-.936.204-1.292 0l-1.924-1.123c-.356-.215-.356-.542 0-.756l1.944-1.123ZM34.6 83.219c.357-.205.937-.205 1.293 0l1.923 1.123c.357.214.357.551 0 .755l-1.943 1.124c-.356.204-.937.204-1.283 0l-1.933-1.124c-.356-.204-.346-.54.01-.755l1.934-1.123ZM16.12 83.647c.356-.204.926-.204 1.282 0l1.934 1.123c.356.205.346.542-.01.756l-1.934 1.123c-.366.205-.936.205-1.293 0l-1.933-1.123c-.346-.214-.346-.551.01-.755l1.944-1.124ZM39.241 85.68c.356-.215.936-.205 1.293 0l1.923 1.123c.356.204.356.54 0 .745l-1.944 1.123c-.356.215-.936.215-1.292 0l-1.924-1.123c-.356-.204-.356-.541 0-.745l1.944-1.123ZM21.88 85.456c.356-.215.936-.215 1.292 0l1.924 1.123c.356.204.356.541 0 .745l-3.287 1.9c-.357.214-.927.214-1.283 0L18.593 88.1c-.356-.204-.356-.54.01-.745l3.277-1.9ZM34.987 88.141c.356-.204.926-.204 1.282 0l1.934 1.124c.356.214.346.551-.01.755l-1.934 1.124c-.356.204-.936.204-1.292 0l-1.923-1.124c-.357-.204-.357-.54 0-.755l1.943-1.124ZM26.307 88.028c.356-.204.926-.204 1.282 0l1.934 1.123c.356.215.356.552-.01.756l-3.278 1.9c-.356.203-.936.203-1.292 0l-1.923-1.124c-.357-.204-.357-.541 0-.756l3.287-1.899ZM30.723 90.612c.357-.204.937-.204 1.293 0l1.933 1.123c.346.205.346.541-.01.746l-3.277 1.899c-.356.214-.936.214-1.292.01l-1.934-1.133c-.346-.204-.346-.541.01-.746l3.277-1.899Z" fill="#4E4A4A"/><path fill-rule="evenodd" clip-rule="evenodd" d="M56.368 66.218c-.346-.204-.926-.204-1.282 0l-1.944 1.123c-.356.205-.356.541 0 .746l1.924 1.123c.356.214.936.214 1.292 0l1.944-1.123c.356-.205.356-.541 0-.746l-1.934-1.123Zm6.35 4.452c.357-.204.357-.541.01-.745l-1.933-1.123c-.356-.215-.926-.215-1.282-.01l-1.944 1.133c-.356.204-.356.54-.01.745l1.934 1.123c.356.204.926.204 1.292 0l1.934-1.123ZM38.204 89.264l-1.934-1.123c-.356-.204-.926-.204-1.282 0l-1.944 1.123c-.356.215-.356.552 0 .756l1.924 1.123c.356.204.936.204 1.292 0l1.934-1.123c.356-.204.366-.541.01-.756ZM48.35 76.01c-.356-.204-.936-.204-1.292 0l-1.944 1.124c-.356.204-.356.54 0 .745l1.923 1.123c.357.215.937.215 1.293.01l1.944-1.133c.356-.204.356-.541 0-.745l-1.924-1.124Zm-4.427-2.583c-.356-.204-.936-.204-1.292 0l-1.944 1.123c-.356.215-.356.541 0 .756l1.934 1.123c.346.204.926.204 1.282 0l1.944-1.123c.356-.204.356-.541 0-.756l-1.924-1.123Zm3.501-7.168 1.923 1.123c.357.215.937.215 1.293 0l1.933-1.123c.357-.204.367-.541.01-.745L50.65 64.39c-.356-.204-.926-.204-1.282 0l-1.944 1.124c-.356.204-.356.54 0 .745Zm12.466-7.22 1.924 1.124c.356.204.936.204 1.292 0l1.934-1.123c.366-.204.366-.541.01-.746l-1.934-1.123c-.346-.214-.926-.214-1.282 0l-1.944 1.123c-.356.205-.356.542 0 .746Zm-4.162 2.41 1.934 1.124c.356.204.926.204 1.282 0l1.944-1.123c.356-.205.356-.542 0-.756l-1.924-1.123c-.356-.204-.936-.204-1.292 0l-1.934 1.123c-.356.214-.366.551-.01.756Zm-13.27 25.354-1.924-1.123c-.356-.204-.936-.214-1.292 0l-1.944 1.123c-.356.205-.356.542 0 .746l1.924 1.123c.356.215.936.215 1.292 0l1.944-1.123c.356-.204.356-.541 0-.746ZM74.513 68.24l-1.933-1.133c-.356-.205-.926-.205-1.282 0l-1.944 1.123c-.356.214-.356.551-.01.755l1.933 1.124c.356.204.926.204 1.293 0l1.933-1.124c.356-.204.367-.54.01-.745ZM70.25 70.7l-1.923-1.123c-.356-.204-.936-.204-1.292 0L65.1 70.701c-.366.204-.366.54-.01.745l1.933 1.133c.346.205.926.205 1.283-.01l1.943-1.123c.357-.204.357-.541 0-.745ZM14.166 85.528l1.933 1.123c.357.204.927.204 1.293 0l1.933-1.123c.357-.214.367-.551.01-.756l-1.933-1.123c-.356-.204-.926-.204-1.282 0l-1.944 1.123c-.356.205-.356.542-.01.756Zm33.908-14.5c-.356-.204-.936-.204-1.292 0l-1.944 1.124c-.356.204-.356.54 0 .745l1.924 1.123c.356.215.936.215 1.292 0l1.944-1.123c.356-.204.356-.541 0-.745l-1.924-1.123Zm4.427 2.574c-.356-.205-.936-.205-1.292 0l-1.944 1.133c-.356.204-.356.541 0 .746l1.923 1.123c.357.204.937.204 1.293 0l1.944-1.123c.356-.205.356-.542 0-.746L52.5 73.601ZM38.732 83.81c.356.215.937.215 1.293 0l1.943-1.123c.357-.204.357-.54 0-.745l-1.923-1.123c-.356-.204-.936-.204-1.292 0l-1.934 1.123c-.366.204-.366.541-.01.745l1.923 1.124Zm-3.114-5.575c-.356-.204-.926-.204-1.292 0l-1.934 1.124c-.356.214-.366.54-.01.755l1.934 1.123c.356.205.926.205 1.292 0l1.934-1.123c.356-.214.366-.54.01-.755l-1.934-1.124Zm-1.028 7.985c.346.205.926.205 1.283 0l1.943-1.123c.356-.204.356-.541 0-.755l-1.923-1.124c-.356-.204-.936-.204-1.293 0l-1.933 1.124c-.356.214-.366.551-.01.755l1.933 1.123Zm-4.406-5.575L28.24 81.77c-.356.205-.356.542-.01.746l1.933 1.123c.357.214.937.214 1.293 0l1.933-1.123c.357-.204.367-.541.01-.746l-1.933-1.123c-.356-.214-.926-.214-1.282 0Zm-1.68 6.852 1.934 1.123c.357.214.926.214 1.293 0l1.933-1.123c.356-.205.356-.541.01-.746l-1.933-1.123c-.356-.204-.926-.204-1.293 0l-1.933 1.123c-.356.205-.356.541-.01.746Zm-2.472-4.452-1.944 1.123c-.356.214-.356.541 0 .756l1.923 1.123c.357.204.937.204 1.293 0l1.944-1.123c.356-.215.356-.542 0-.756l-1.924-1.123c-.356-.204-.936-.204-1.292 0Zm18.165-4.636c-.356-.204-.936-.204-1.292 0l-1.944 1.123c-.356.215-.356.552 0 .756l1.923 1.123c.356.204.937.204 1.293 0l1.944-1.123c.356-.204.356-.541 0-.756l-1.924-1.123Zm-4.427-2.573c-.356-.215-.926-.215-1.292 0l-1.934 1.123c-.356.204-.366.541-.01.745l1.934 1.124c.356.214.926.214 1.282 0l1.944-1.124c.356-.204.356-.54.01-.745l-1.934-1.123Zm12.456-7.22c-.356-.204-.936-.204-1.292 0l-1.944 1.124c-.356.214-.356.551 0 .755l1.924 1.124c.356.204.936.204 1.292 0l1.944-1.124c.356-.204.356-.54 0-.755l-1.923-1.123Zm4.417 2.584c-.356-.204-.926-.204-1.282 0l-1.944 1.123c-.356.204-.356.541 0 .746l1.923 1.133c.357.204.937.204 1.293 0l1.933-1.133c.367-.204.367-.541.01-.746l-1.933-1.123Zm3.877-7.393c-.356-.204-.926-.204-1.282 0l-1.944 1.123c-.356.215-.356.552 0 .756l1.924 1.123c.356.205.936.205 1.292 0l1.934-1.123c.356-.204.366-.541.01-.755l-1.934-1.124Zm6.086-1.276-1.933-1.123c-.357-.204-.927-.204-1.293 0l-1.934 1.123c-.356.204-.366.541-.01.745l1.934 1.134c.356.204.926.204 1.292 0l1.934-1.134c.356-.204.366-.54.01-.745Zm4.417 2.583-1.924-1.123c-.356-.214-.936-.214-1.292 0l-1.934 1.123c-.366.205-.366.541-.01.746l1.934 1.123c.346.204.926.204 1.282 0l1.944-1.123c.356-.205.356-.541 0-.746Zm-4.152 3.156c.356-.215.356-.552 0-.756l-1.924-1.123c-.356-.204-.936-.204-1.292 0l-1.934 1.123c-.366.204-.366.541-.01.755l1.934 1.124c.356.204.926.204 1.282 0l1.944-1.124Zm2.33-12.386-1.923-1.124c-.357-.204-.937-.214-1.293 0l-1.943 1.124c-.357.204-.357.54 0 .745l1.923 1.123c.356.215.936.215 1.292 0l1.944-1.123c.356-.204.356-.541 0-.745ZM34.947 73.488l1.933 1.124c.356.204.926.204 1.282 0l1.944-1.124c.356-.214.356-.54.01-.755l-1.933-1.124c-.356-.204-.926-.204-1.293 0l-1.933 1.124c-.357.214-.357.54-.01.755Zm-6.381 5.933c.356.214.936.214 1.292 0l1.934-1.123c.366-.204.366-.541.01-.746l-1.934-1.123c-.346-.204-.926-.214-1.282 0l-1.944 1.123c-.356.204-.356.541 0 .746l1.924 1.123Zm23.01-15.562 1.923 1.124c.356.204.936.204 1.292 0l1.944-1.124c.356-.214.356-.551 0-.755L54.81 61.98c-.356-.205-.936-.205-1.292 0l-1.944 1.123c-.356.204-.356.541 0 .755ZM20.25 84.24c.357.205.937.205 1.293 0l1.944-1.123c.356-.204.356-.54 0-.755l-1.924-1.124c-.356-.204-.936-.204-1.292 0l-1.944 1.124c-.356.214-.356.551 0 .755l1.924 1.123Zm4.163-2.41c.356.205.926.205 1.282 0l1.944-1.123c.356-.204.356-.54 0-.745l-1.924-1.123c-.356-.215-.936-.215-1.292 0l-1.934 1.123c-.366.204-.366.541-.01.745l1.934 1.124ZM39.109 71.08l1.923 1.123c.356.204.936.204 1.293 0l1.943-1.123c.356-.205.356-.542 0-.746L42.345 69.2c-.356-.204-.936-.204-1.292 0l-1.944 1.133c-.356.204-.356.541 0 .746Zm-8.315 4.809 1.924 1.133c.356.204.936.204 1.292 0l1.944-1.133c.356-.204.356-.541 0-.746l-1.923-1.123c-.357-.204-.937-.204-1.293 0l-1.944 1.123c-.356.205-.356.542 0 .746Zm12.467-7.22 1.923 1.124c.356.214.937.204 1.293 0l1.943-1.123c.357-.204.357-.541 0-.746L46.497 66.8c-.356-.214-.936-.214-1.292 0l-1.944 1.123c-.356.205-.356.541 0 .746Zm-9.322 23.067-1.923-1.123c-.356-.204-.937-.204-1.293 0l-3.277 1.9c-.356.204-.356.54-.01.745l1.934 1.133c.356.204.936.204 1.292-.01l3.277-1.9c.356-.204.356-.54 0-.745Zm-4.417-2.583-1.933-1.123c-.356-.204-.926-.204-1.282 0l-3.287 1.899c-.357.214-.357.551 0 .756l1.923 1.123c.356.204.936.204 1.292 0l3.277-1.9c.367-.204.367-.54.01-.755Zm-4.426-2.573-1.924-1.123c-.356-.215-.936-.215-1.292 0l-3.277 1.899c-.367.204-.367.541-.01.745l1.933 1.123c.356.215.926.215 1.282 0l3.288-1.899c.356-.204.356-.541 0-.745Zm48.532-28.121-1.923-1.123c-.357-.205-.937-.205-1.293 0L65.6 60.132c-.357.205-.367.542-.01.746L67.521 62c.356.204.926.204 1.282 0l4.824-2.788c.356-.204.356-.54 0-.755Zm4.427 2.583-1.934-1.123c-.356-.204-.926-.204-1.282 0l-4.824 2.788c-.356.204-.356.54 0 .755l1.924 1.123c.356.205.936.205 1.292 0l4.814-2.787c.356-.215.356-.552.01-.756Zm4.416 2.584L80.549 62.5c-.356-.214-.936-.214-1.292 0l-5.648 3.268c-.357.204-.357.541 0 .745l1.923 1.123c.356.215.936.215 1.292 0l5.649-3.267c.356-.204.356-.541 0-.746Zm-16.475 9.547-1.924-1.123c-.356-.215-.936-.215-1.292-.01L41.56 84.331c-.356.215-.366.542-.01.756l1.934 1.123c.356.204.926.204 1.282 0l21.229-12.294c.356-.204.356-.541 0-.745Zm.132-19.687c.356-.214.936-.214 1.282 0l17.27 10.058c.346.204.346.541-.01.756L30.52 95.666c-.357.205-.937.205-1.293 0L11.967 85.6c-.356-.205-.345-.542.01-.746l54.15-31.368Z" fill="#A9A7AA"/><path fill-rule="evenodd" clip-rule="evenodd" d="M46.782 71.027c.356-.204.936-.204 1.293 0l1.923 1.123c.356.205.356.542 0 .746l-1.944 1.123c-.356.214-.936.214-1.292 0l-1.924-1.123c-.356-.204-.356-.541 0-.746l1.944-1.123ZM42.905 78.41c.356-.204.936-.204 1.292 0l1.923 1.123c.357.215.357.552 0 .756l-1.943 1.123c-.356.204-.936.204-1.293 0l-1.923-1.123c-.356-.204-.356-.541 0-.756l1.944-1.123ZM38.753 80.82c.356-.204.936-.204 1.292 0l1.923 1.123c.357.205.357.541 0 .746l-1.943 1.123c-.356.214-.937.214-1.293 0l-1.923-1.123c-.356-.204-.356-.541.01-.746l1.934-1.123ZM62.78 72.039c.356-.205.936-.205 1.292.01l1.924 1.123c.356.204.356.541 0 .745L44.767 86.211c-.356.205-.926.205-1.282 0l-1.934-1.123c-.356-.214-.346-.54.01-.755L62.78 72.039Z" fill="#4E4A4A"/><path fill-rule="evenodd" clip-rule="evenodd" d="M70.992 74.959c.438-.255 1.15-.255 1.588 0l9.617 5.606c.437.255.437.674 0 .929L60.113 94.278c-.437.255-1.15.255-1.587 0l-9.617-5.606c-.438-.255-.438-.663.01-.919L70.992 74.96Z" fill="#A9A7AA"/><path fill-rule="evenodd" clip-rule="evenodd" d="m82.197 80.564-9.617-5.606c-.438-.255-1.15-.255-1.588 0L48.92 87.752c-.448.256-.448.664-.01.92l9.617 5.605c.438.256 1.15.256 1.587 0l22.084-12.784c.437-.255.437-.674 0-.929Zm2.483-17.022L67.41 53.484c-.346-.214-.926-.214-1.282 0l-54.15 31.369c-.356.204-.366.54-.01.745l17.26 10.068c.355.204.936.204 1.292 0l54.15-31.368c.356-.215.356-.552.01-.756ZM65.334 47.858c.356-.204.936-.204 1.282 0l39.119 22.812c.346.204.346.54-.01.745l-63.024 36.504c-.356.215-.926.215-1.282 0L2.31 85.118c-.356-.204-.356-.541 0-.745l63.024-36.515Z" fill="#D0D0D1"/><path fill-rule="evenodd" clip-rule="evenodd" d="M70.412 57.335c.356-.204.936-.204 1.292 0l1.924 1.123c.356.214.356.551 0 .756L68.804 62c-.356.204-.926.204-1.282 0l-1.934-1.123c-.356-.204-.346-.541.01-.745l4.814-2.798ZM49.367 64.39c.356-.204.926-.204 1.282 0l1.934 1.124c.356.204.346.54-.01.745l-1.934 1.123c-.356.215-.936.215-1.293 0l-1.923-1.123c-.356-.204-.356-.541 0-.745l1.944-1.123Z" fill="#4E4A4A"/><path fill-rule="evenodd" clip-rule="evenodd" d="M106 71.069V73.019l-.01-1.92v-.03l.01-.01v-.01.02Zm0-.02v-.01.01Z" fill="#A9A6A8"/><path fill-rule="evenodd" clip-rule="evenodd" d="m105.99 71.099.01 1.92-.01.01v.03h-.01v.02l-.011.01V73.11h-.01v.01l-.01.01v.01h-.01v-1.909l.01-.02v-.01h.01v-.02h.01v-.031h.011v-.03h.01V71.098Z" fill="#B0AFB1"/><path fill-rule="evenodd" clip-rule="evenodd" d="M105.939 71.231v1.91l-.01.02v.01h-.011v.01l-.01.011c-.02.03-.061.061-.091.092h-.011l-.01.01h-.01v.01l-.02.01-.01-1.92h.01l.01-.01h.01v-.01h.01v-.01H105.817v-.01h.01v-.01h.01v-.01h.01v-.01h.01l.011-.01a.5.5 0 0 0 .061-.072l.01-.01Z" fill="#B9B7B8"/><path fill-rule="evenodd" clip-rule="evenodd" d="m105.756 71.394.01 1.92-.01.01H105.735v.01l-.01-1.919h.01l.01-.01h.011v-.01Z" fill="#BEBEC0"/><path fill-rule="evenodd" clip-rule="evenodd" d="M2.31 87.038c-.173-.102-.264-.235-.264-.367V84.813l-.01-.031v-.031l.01.01v.061l.01.01V84.854l.01.01v.02h.01V84.905l.01.01v.01h.01v.01h.01V84.956h.01v.01h.011v.01l.01.01.01.011.01.01.01.01.01.01h.011v.01l.01.011.01.01h.01v.01h.01l.01.01.011.01h.01l.01.011.01.01h.01l.011.01h.01v1.92Z" fill="#A19EA0"/><path fill-rule="evenodd" clip-rule="evenodd" d="M30.459 85.629c.356-.205.926-.205 1.282 0l1.934 1.123c.346.204.346.541-.01.745l-1.934 1.124c-.367.214-.936.214-1.293 0l-1.933-1.124c-.346-.204-.346-.54.01-.745l1.944-1.123Z" fill="#4E4A4A"/><path fill-rule="evenodd" clip-rule="evenodd" d="M41.419 107.92v1.92L2.31 87.039v-1.92L41.42 107.92Z" fill="#9E9D9F"/><path fill-rule="evenodd" clip-rule="evenodd" d="m105.725 71.416.01 1.92-63.024 36.504-.01-1.92 63.024-36.504Z" fill="#C4C1C3"/><path fill-rule="evenodd" clip-rule="evenodd" d="m42.701 107.92.01 1.92-.01.01h-.01v.01h-.02v.01h-.02v.01H42.63v.011h-.02l-.01.01H42.578v.01h-.01c-.02.01-.051.02-.071.02v-1.919h.01l.03-.01.041-.021h.02c.02-.01.041-.02.051-.03l.02-.011h.01l.01-.01h.011v-.01Z" fill="#BEBEC0"/><path fill-rule="evenodd" clip-rule="evenodd" d="M42.498 108.012v1.919a1.703 1.703 0 0 1-.326.062v-1.92h.02c.061 0 .112-.01.163-.02h.01l.02-.011h.031l.01-.01h.03v-.01h.031l.01-.01Z" fill="#B9B7B8"/><path fill-rule="evenodd" clip-rule="evenodd" d="M42.172 108.072v1.92a.916.916 0 0 1-.234 0v-1.92h.04l.01.01h.143l.01-.01h.031Z" fill="#B0AFB1"/><path fill-rule="evenodd" clip-rule="evenodd" d="M41.938 108.073v1.919c-.02 0-.05 0-.081-.01H41.816v-.01H41.765l-.05-.01v-1.92h.03v.01h.05v.01H41.866v.011H41.939Z" fill="#A9A6A8"/><path fill-rule="evenodd" clip-rule="evenodd" d="M41.714 108.042v1.92a1.643 1.643 0 0 1-.203-.071l-.01-.011H41.48v-.01h-.02v-.01h-.01l-.01-.01h-.01l-.011-.01v-1.92.01h.01l.01.01h.01v.011h.02v.01H41.49l.01.01h.01l.01.01H41.542v.01h.02l.01.011h.02l.011.01h.02l.01.01h.01l.021.01h.03l.01.01h.011Z" fill="#A19EA0"/><path fill-rule="evenodd" clip-rule="evenodd" d="m65.314 1.051-1.649-.96h.01v-.01h.01c.061-.03.122-.061.184-.071l1.648.96c-.04.01-.091.03-.142.05l-.01.01-.02.011h-.011l-.01.01h-.01Z" fill="#494544"/><path fill-rule="evenodd" clip-rule="evenodd" d="M65.517.97 63.87.01c.01 0 .03-.01.05-.01H63.98l1.65.97c-.041-.01-.072 0-.113 0Z" fill="#454140"/><path fill-rule="evenodd" clip-rule="evenodd" d="M65.63.97 63.98 0H64.002c.01 0 .01.01.02.01h.03l.011.01h.01l1.66.96c-.031 0-.052-.01-.082-.01h-.02Z" fill="#423E3D"/><path fill-rule="evenodd" clip-rule="evenodd" d="M65.73.98 64.073.02h.01s.01.01.02.01l.01.01h.01l.031.02.02.01.031.021.03.01.021.02.03.01.021.021.03.01.021.02.03.011.02.02.031.01.02.021.031.01.02.02.031.011.03.02.021.01.03.01.02.021.031.01.02.02.031.011.02.02.031.01.02.021.031.01.02.02.031.011.02.02.03.01.031.021.02.01.031.02.02.01.031.021.02.01.031.01.02.021.03.01.021.02.03.011.021.02.03.01.031.021.02.01.031.02.02.01.031.021.02.01.03.021.021.01.03.02.021.01.112.062.02.01.123.072c-.01 0-.02-.01-.031-.01h-.01V.98Z" fill="#3F3C3A"/><path fill-rule="evenodd" clip-rule="evenodd" d="m1.974 84.485-.03-.01-.031-.02-.02-.01-.03-.021-.021-.01-.03-.021-.021-.01-.03-.02-.204-.113-.03-.02-.021-.01-.051-.031-.03-.02-.02-.01-.316-.185-.02-.01-.031-.02-.02-.01-.031-.02-.02-.011-.031-.02-.03-.01-.02-.021-.031-.01-.051-.031-.02-.02-.031-.01-.02-.021-.031-.01-.02-.02-.03-.01-.021-.021-.03-.01-.031-.021-.02-.01-.031-.01-.02-.02-.031-.011-.02-.02-.031-.01-.02-.021-.03-.01-.021-.02-.03-.01c-.113-.072-.184-.215-.184-.42l1.649.96c0 .204.07.347.193.419Z" fill="#393634"/><path fill-rule="evenodd" clip-rule="evenodd" d="m1.78 84.067-1.648-.96L0 37.72l1.649.96.132 45.387Z" fill="#393634"/><path fill-rule="evenodd" clip-rule="evenodd" d="m2.3 37.566-1.659-.97L63.665.092l1.649.96L2.3 37.566Z" fill="#4C4747"/><path fill-rule="evenodd" clip-rule="evenodd" d="M1.649 38.68 0 37.72V37.63l.01-.011V37.547h.01V37.495h.01v-.031l1.66.96-.01.01v.04h-.011V38.528l-.01.01v.091h-.01V38.68Z" fill="#393634"/><path fill-rule="evenodd" clip-rule="evenodd" d="m1.69 38.424-1.66-.96v-.01h.01v-.04h.01v-.031h.011V37.361l.01-.02v-.02h.01V37.3l1.66.96-.021.04v.02l-.01.011v.02l-.01.01v.031h-.01v.031Z" fill="#3D3837"/><path fill-rule="evenodd" clip-rule="evenodd" d="M1.74 38.26.082 37.3l.01-.01v-.02h.01v-.031h.01v-.01l.01-.01v-.02h.01l.01-.042 1.66.96v.01h-.01v.02H1.78V38.169h-.01v.02l-.01.01v.011l-.01.01v.02h-.01v.021Z" fill="#3F3C3A"/><path fill-rule="evenodd" clip-rule="evenodd" d="m1.801 38.117-1.659-.96.01-.02h.01v-.02h.01V37.095h.011v-.01l.01-.01v-.01h.01v-.011l.01-.02.01-.01 1.66.96h-.01v.01l-.01.01v.01h-.011v.02h-.01v.01l-.01.01v.01h-.01v.011c0 .01-.01.02-.01.03h-.01v.011Z" fill="#423E3D"/><path fill-rule="evenodd" clip-rule="evenodd" d="m1.883 37.985-1.66-.96a1.46 1.46 0 0 1 .113-.153l1.648.97h-.01v.01h-.01v.02h-.01v.011h-.01v.01h-.01v.02h-.01v.01h-.01v.011l-.011.01v.01h-.01v.01l-.01.01v.011Z" fill="#454140"/><path fill-rule="evenodd" clip-rule="evenodd" d="m1.985 37.841-1.65-.97v-.01h.011v-.01h.01v-.01h.01v-.01l.01-.01.01-.01.011-.011.01-.01.01-.01v-.01h.01v-.01h.01l.01-.011.011-.01.01-.01.01-.01h.01v-.011h.01v-.01h.01v-.01H.52l.01-.01.02-.01.021-.021.01-.01h.01v-.01h.02v-.01h.01l.011-.011h.01v-.01l1.659.97h-.01l-.01.01h-.01v.01h-.02v.01h-.011l-.01.01h-.01v.01a1.209 1.209 0 0 0-.234.225Z" fill="#494544"/><path fill-rule="evenodd" clip-rule="evenodd" d="M65.314 1.052c.366-.205.651-.041.651.377l.132 45.378c0 .418-.285.919-.64 1.123L2.431 84.445c-.356.204-.651.04-.651-.378l-.132-45.388c0-.409.295-.909.651-1.113L65.314 1.052Z" fill="#464242"/><path fill-rule="evenodd" clip-rule="evenodd" d="M64.296 4.749c.102-.062.194-.01.194.112l.111 40.333a.418.418 0 0 1-.193.337l-60.927 35.3c-.112.06-.194.01-.194-.113l-.122-40.333c0-.123.092-.276.204-.347l60.927-35.29Z" fill="#00A097"/><path fill-rule="evenodd" clip-rule="evenodd" d="m29.308 33.523.031 22.157L8.782 67.586l3.552-24.23 16.974-9.834Z" fill="#C2362E"/><path fill-rule="evenodd" clip-rule="evenodd" d="M24.78 32.471c.214-.122.377-.03.356.205l-.264 3.41-.764.45.224-2.992-6.564 3.808-.224 2.992-.773.439.254-3.41a.919.919 0 0 1 .418-.644l7.337-4.258Z" fill="#BDBCBD"/><path fill-rule="evenodd" clip-rule="evenodd" d="m29.309 33.523-.855 5.595.794.827.529-4.993-.468-1.43Z" fill="#AD342D"/><path fill-rule="evenodd" clip-rule="evenodd" d="M30.978 34.952h-1.201l-.53 4.993 1.73 1.787v-6.78Z" fill="#91322D"/><path fill-rule="evenodd" clip-rule="evenodd" d="m30.977 34.952 3.45 24.18-20.556 11.906.132-26.253 4.437-2.573.163 2.512.773-.45-.173-2.511 6.564-3.799.173 2.512.763-.449-.162-2.512 4.436-2.563Z" fill="#E94A4A"/><path fill-rule="evenodd" clip-rule="evenodd" d="M25.88 33.573c.213-.122.396-.02.417.235l.244 3.707.163 2.511-.764.45-.173-2.512-.213-3.247-6.564 3.798.213 3.247.174 2.512-.774.45-.163-2.512-.244-3.707a.803.803 0 0 1 .346-.684l7.337-4.248Z" fill="#FEFEFE"/><path fill-rule="evenodd" clip-rule="evenodd" d="m12.008 68.188 1.863 2.85.132-26.253v-1.338l-1.995 24.741Z" fill="#AD342D"/><path fill-rule="evenodd" clip-rule="evenodd" d="M12.334 43.355 8.782 67.587l3.226.603 1.995-24.742-1.67-.092Z" fill="#D73A36"/><path fill-rule="evenodd" clip-rule="evenodd" d="m44.146 38.72.02 5.36-1.058.613-.01-2.236-1.598.93v2.235l-1.048.603-.01-5.361 1.048-.602.01 2.062 1.598-.929v-2.063l1.048-.612ZM38.376 36.606c.641-.367 1.038-1.286 1.028-2.358 0-1.073-.397-1.481-1.038-1.113-.631.367-1.028 1.235-1.028 2.307 0 1.083.407 1.532 1.038 1.164Zm-.01-4.513c1.252-.735 2.117-.214 2.117 1.532.01 1.746-.845 3.298-2.107 4.023-1.252.725-2.106.173-2.117-1.583 0-1.756.855-3.247 2.107-3.972ZM44.97 28.355l.021 5.371-1.079.623-1.22-1.97-.459-.91-.03.021c.04.572.132 1.226.132 1.869l.01 1.9-1.007.57-.01-5.36 1.078-.623 1.221 1.96.458.92.03-.01c-.05-.552-.132-1.256-.142-1.89v-1.889l.998-.582ZM47.077 27.14l.02 4.34 1.842-1.062v1.011l-2.89 1.675-.01-5.36 1.038-.603ZM50.66 25.067l.02 5.361-1.049.603-.02-5.361 1.048-.603ZM55.36 22.342l.011 5.36-1.079.634-1.22-1.981-.459-.899-.03.02c.05.562.132 1.226.132 1.87l.01 1.898-.997.572-.02-5.36 1.078-.623 1.221 1.96.458.92.03-.011c-.04-.552-.131-1.256-.131-1.89l-.01-1.888 1.007-.582ZM59.33 20.044v1.021l-1.863 1.072.01 1.083 1.578-.92.01 1.011-1.587.92v1.235l1.933-1.123v1.02L56.44 27.09l-.02-5.361 2.91-1.685ZM38.04 42.162c.54-.317 1.1-.398 1.507-.163l-.54 1.072c-.305-.092-.59-.082-.956.132-.367.215-.59.521-.59.827 0 .327.305.266.702.225l.6-.071c.57-.062.926.173.926.929 0 .888-.641 2.032-1.75 2.675-.6.347-1.252.46-1.72.225l.6-1.185a1.27 1.27 0 0 0 1.14-.102c.438-.255.651-.572.651-.898 0-.337-.264-.286-.671-.245l-.611.05c-.478.052-.936-.142-.936-.918 0-.889.682-1.992 1.648-2.553ZM47.118 41.415c.641-.367 1.038-1.276 1.038-2.358-.01-1.062-.407-1.48-1.048-1.103-.631.357-1.028 1.235-1.028 2.308.01 1.072.407 1.521 1.038 1.153Zm-.01-4.513c1.262-.725 2.116-.204 2.116 1.532.01 1.756-.844 3.298-2.096 4.033-1.252.725-2.117.163-2.117-1.583-.01-1.756.845-3.257 2.097-3.982ZM51.718 36.923c.57-.337.844-.786.844-1.348 0-.561-.295-.592-.854-.275l-.59.347.01 1.613.59-.337Zm.05-2.614c1.008-.582 1.822-.633 1.822.674.01 1.256-.824 2.298-1.811 2.87l-.652.377.01 1.818-1.048.602-.02-5.36 1.7-.98Z" fill="#FEFEFE"/></svg>