<svg width="117" height="108" fill="none" xmlns="http://www.w3.org/2000/svg"><path fill-rule="evenodd" clip-rule="evenodd" d="M54.01 106.453H8.99c-4.09 0-7.453-3.335-7.453-7.431V8.965c0-4.084 3.363-7.43 7.453-7.43h45.02c4.09 0 7.441 3.346 7.441 7.43v90.057c0 4.096-3.351 7.431-7.44 7.431Z" fill="#58627A"/><path fill-rule="evenodd" clip-rule="evenodd" d="M8.99 3.07c-3.255 0-5.905 2.645-5.905 5.896v90.056c0 3.251 2.65 5.897 5.905 5.897h45.02c3.255 0 5.905-2.646 5.905-5.897V8.966c0-3.25-2.65-5.897-5.905-5.897H8.99ZM54.01 108H8.99C4.04 108 0 103.976 0 99.022V8.966C0 4.024 4.041 0 8.99 0h45.02c4.949 0 8.978 4.024 8.978 8.966L63 99.022c0 4.954-4.041 8.978-8.99 8.978Z" fill="#435564"/><path fill-rule="evenodd" clip-rule="evenodd" d="M52.776 95.3H10.224a4.448 4.448 0 0 1-4.44-4.434V13.388c0-2.428 1.996-4.422 4.44-4.422h42.552c2.444 0 4.44 1.994 4.44 4.422v77.478a4.448 4.448 0 0 1-4.44 4.435Z" fill="#A9DB63"/><path fill-rule="evenodd" clip-rule="evenodd" d="M21.537 29.435h-7.61a3.6 3.6 0 0 1-3.594-3.588v-7.613a3.6 3.6 0 0 1 3.593-3.589h7.61a3.6 3.6 0 0 1 3.594 3.59v7.612a3.6 3.6 0 0 1-3.593 3.588ZM21.537 53.263h-7.61a3.6 3.6 0 0 1-3.594-3.59v-7.612a3.591 3.591 0 0 1 3.593-3.588h7.61a3.591 3.591 0 0 1 3.594 3.588v7.613a3.6 3.6 0 0 1-3.593 3.589ZM21.537 77.09h-7.61a3.602 3.602 0 0 1-3.594-3.6v-7.6a3.591 3.591 0 0 1 3.593-3.59h7.61a3.592 3.592 0 0 1 3.594 3.59v7.6c0 1.982-1.61 3.6-3.593 3.6ZM53.502 17.315H28.578V15.25h24.924v2.066ZM53.502 22.076H28.578V20.01h24.924v2.066ZM53.502 26.849H28.578v-2.067h24.924v2.067ZM53.502 41.143H28.578v-2.066h24.924v2.066ZM53.502 45.904H28.578v-2.066h24.924v2.066ZM53.502 50.665H28.578v-2.066h24.924v2.066ZM53.502 64.972H28.578v-2.067h24.924v2.067ZM53.502 69.732H28.578v-2.066h24.924v2.066ZM53.502 74.494H28.578v-2.066h24.924v2.066Z" fill="#E7F9CA"/><path fill-rule="evenodd" clip-rule="evenodd" d="M39.189 5.992H22.226a.797.797 0 1 1 0-1.595h16.963c.435 0 .798.363.798.798a.805.805 0 0 1-.798.797Z" fill="#435564"/><path fill-rule="evenodd" clip-rule="evenodd" d="M35.075 100.714c0 1.8-1.452 3.25-3.242 3.25a3.253 3.253 0 0 1-3.255-3.25c0-1.788 1.464-3.238 3.255-3.238a3.24 3.24 0 0 1 3.242 3.238Z" fill="#58627A"/><path fill-rule="evenodd" clip-rule="evenodd" d="M31.833 99.01a1.703 1.703 0 1 0 0 3.407 1.71 1.71 0 0 0 1.706-1.703c0-.93-.775-1.703-1.706-1.703Zm0 6.489c-2.638 0-4.791-2.151-4.791-4.785 0-2.634 2.153-4.773 4.79-4.773 2.638 0 4.792 2.14 4.792 4.773 0 2.634-2.154 4.785-4.791 4.785Z" fill="#435564"/><path fill-rule="evenodd" clip-rule="evenodd" d="M44.694 90.66H18.971a2.913 2.913 0 0 1-2.916-2.9v-2.284a2.915 2.915 0 0 1 2.916-2.912h25.723a2.913 2.913 0 0 1 2.904 2.913v2.283a2.91 2.91 0 0 1-2.904 2.9Z" fill="#80B729"/><path fill-rule="evenodd" clip-rule="evenodd" d="M29.86 95.3h12.463l-1.101 9.619h-7.115a4.778 4.778 0 0 0 2.517-4.205c0-2.634-2.154-4.773-4.791-4.773-.75 0-1.464.17-2.093.471l.12-1.111Zm-.314 9.619h-.787l.061-.495c.218.193.472.35.726.495Z" fill="#747C90"/><path fill-rule="evenodd" clip-rule="evenodd" d="M41.04 106.454H28.578l.182-1.535h.786a4.72 4.72 0 0 0 2.287.58c.823 0 1.597-.205 2.274-.58h7.115l-.182 1.535Z" fill="#63717E"/><path fill-rule="evenodd" clip-rule="evenodd" d="M42.323 95.301H29.86l.532-4.64h12.462l-.532 4.64Z" fill="#B7E17D"/><path fill-rule="evenodd" clip-rule="evenodd" d="M31.833 102.418a1.703 1.703 0 1 1 0-3.407c.931 0 1.706.773 1.706 1.703a1.71 1.71 0 0 1-1.706 1.704Z" fill="#747C90"/><path fill-rule="evenodd" clip-rule="evenodd" d="M31.833 105.499c-.823 0-1.61-.205-2.287-.58a4.292 4.292 0 0 1-.726-.495l.92-8.011a4.835 4.835 0 0 1 2.093-.472c2.637 0 4.791 2.14 4.791 4.773a4.777 4.777 0 0 1-2.517 4.205 4.675 4.675 0 0 1-2.274.58Zm0-6.488a1.703 1.703 0 1 0 0 3.407 1.71 1.71 0 0 0 1.706-1.704c0-.93-.775-1.703-1.706-1.703Z" fill="#63717E"/><path fill-rule="evenodd" clip-rule="evenodd" d="M43.786 82.565H31.324l.932-8.072h12.462l-.932 8.072Zm1.162-10.138h-12.45l.303-2.695h12.462l-.315 2.695Zm.557-4.76H33.042l.315-2.695h12.45l-.302 2.694Zm.544-4.761H33.587l1.403-12.24h12.463l-1.404 12.24Zm1.645-14.307H35.233l.315-2.695h12.45l-.303 2.695Zm.545-4.76H35.777l.315-2.695h12.462l-.315 2.694Z" fill="#B7E17D"/><path fill-rule="evenodd" clip-rule="evenodd" d="M52.244 8.966h-12.45l.677-5.897h12.45l-.677 5.897Z" fill="#747C90"/><path fill-rule="evenodd" clip-rule="evenodd" d="M52.921 3.069h-12.45l.17-1.535h12.462L52.92 3.07Z" fill="#63717E"/><path fill-rule="evenodd" clip-rule="evenodd" d="M48.784 39.077h-12.45l1.403-12.228h12.45l-1.403 12.228Zm1.645-14.294H37.967l.315-2.707h12.462l-.315 2.707Zm.545-4.773h-12.45l.302-2.695h12.462l-.314 2.695Zm.556-4.76H39.068l.726-6.284h12.45l-.714 6.283Z" fill="#B7E17D"/><path fill-rule="evenodd" clip-rule="evenodd" d="M51.288 17.315H38.826l.242-2.066H51.53l-.242 2.066ZM50.744 22.076H38.282l.242-2.066h12.45l-.23 2.066ZM50.187 26.849h-12.45l.23-2.067h12.462l-.242 2.067ZM48.554 41.143H36.092l.242-2.066h12.45l-.23 2.066ZM47.997 45.904h-12.45l.23-2.066h12.462l-.242 2.066ZM47.453 50.665H34.99l.242-2.066h12.462l-.242 2.066ZM45.807 64.972h-12.45l.23-2.067H46.05l-.242 2.067ZM45.263 69.732H32.8l.242-2.066h12.462l-.242 2.066ZM44.718 74.494H32.256l.242-2.066h12.45l-.23 2.066Z" fill="#EBFAD3"/><path fill-rule="evenodd" clip-rule="evenodd" d="M42.855 90.66H30.393l.932-8.096h12.462l-.932 8.096Z" fill="#95C34D"/><path fill-rule="evenodd" clip-rule="evenodd" d="M25.311 104.919h-6.025l1.1-9.618h6.038l-1.113 9.618ZM36.346 8.966h-6.038l.351-2.973h6.025l-.338 2.973Zm.52-4.568H30.84l.146-1.329h6.037l-.157 1.33Z" fill="#747C90"/><path fill-rule="evenodd" clip-rule="evenodd" d="M25.13 106.453h-6.025l.181-1.535h6.025l-.181 1.535ZM37.023 3.069h-6.037l.181-1.535h6.026l-.17 1.535Z" fill="#63717E"/><path fill-rule="evenodd" clip-rule="evenodd" d="M26.425 95.3h-6.038l.533-4.64h6.025l-.52 4.64Zm1.464-12.735H21.85l.642-5.607a3.596 3.596 0 0 0 2.637-3.468v-7.6c0-1.003-.411-1.91-1.065-2.562l4.743-41.252h6.026l-.303 2.707h-5.953v2.066h5.711l-1.403 12.228h-4.308v2.067h4.066l-.315 2.694h-3.75v2.066h3.52l-.314 2.695h-3.207v2.066h2.965l-1.404 12.24h-1.56v2.067h1.33l-.314 2.694h-1.017v2.066h.775l-.303 2.695h-.472v2.066h.23l-.92 8.072Zm7.186-62.555h-6.037l.315-2.695h6.025l-.303 2.695Zm.545-4.76h-6.025l.713-6.284h6.038l-.726 6.283Z" fill="#B7E17D"/><path fill-rule="evenodd" clip-rule="evenodd" d="m22.492 76.958 1.573-13.63a3.614 3.614 0 0 1 1.065 2.562v7.6a3.596 3.596 0 0 1-2.638 3.468ZM35.378 17.315h-6.026l.242-2.066h6.026l-.242 2.066ZM34.834 22.076h-6.026l.23-2.066h6.037l-.242 2.066ZM34.289 26.849h-5.71v-2.067h5.952l-.242 2.067ZM32.643 41.143h-4.065v-2.066h4.307l-.242 2.066ZM32.099 45.904h-3.52v-2.066h3.75l-.23 2.066ZM31.542 50.665h-2.964v-2.066h3.206l-.242 2.066ZM29.909 64.972h-1.33v-2.067h1.56l-.23 2.067ZM29.352 69.732h-.774v-2.066h1.016l-.242 2.066ZM28.808 74.494h-.23v-2.066h.472l-.242 2.066Z" fill="#EBFAD3"/><path fill-rule="evenodd" clip-rule="evenodd" d="M36.684 5.992H30.66l.182-1.595h6.025l-.181 1.595Z" fill="#63717E"/><path fill-rule="evenodd" clip-rule="evenodd" d="M26.945 90.66h-6.026l.932-8.096h6.038l-.944 8.096Z" fill="#95C34D"/><path fill-rule="evenodd" clip-rule="evenodd" d="M8.99 3.07c-3.255 0-5.905 2.645-5.905 5.896v90.056c0 3.251 2.65 5.897 5.905 5.897h45.02c3.255 0 5.905-2.646 5.905-5.897V8.966c0-3.25-2.65-5.897-5.905-5.897H8.99ZM54.01 108H8.99C4.04 108 0 103.976 0 99.022V8.966C0 4.024 4.041 0 8.99 0h45.02c4.949 0 8.978 4.024 8.978 8.966L63 99.022c0 4.954-4.041 8.978-8.99 8.978Z" fill="#435564"/><g clip-path="url(#a)"><path d="M111.5 26.79H48.71A4.71 4.71 0 0 0 44 31.5v20.423a4.71 4.71 0 0 0 4.71 4.71h2.355v8.938c0 1.05 1.262 1.573 2.004.832 3.36-3.362 9.77-9.77 9.77-9.77H111.5a4.71 4.71 0 0 0 4.71-4.71V31.5a4.71 4.71 0 0 0-4.71-4.71Z" fill="#37C2BB"/><path d="M46.355 40.15V27.5A4.729 4.729 0 0 0 44 31.58v20.343a4.71 4.71 0 0 0 4.71 4.71h2.355v8.94c0 1.046 1.258 1.575 1.998.836l9.775-9.776h21.194a4.728 4.728 0 0 0 4.08-2.355H60.484c-7.803 0-14.13-6.326-14.13-14.129Z" fill="#11BBB1"/><circle cx="69.5" cy="40.5" r="3.5" fill="#EBEBEB"/><circle cx="80.5" cy="40.5" r="3.5" fill="#EBEBEB"/><circle cx="91.5" cy="40.5" r="3.5" fill="#EBEBEB"/></g><defs><clipPath id="a"><path fill="#fff" transform="translate(44 4)" d="M0 0h73v73H0z"/></clipPath></defs></svg>