<svg width="77" height="106" fill="none" xmlns="http://www.w3.org/2000/svg"><path fill-rule="evenodd" clip-rule="evenodd" d="M71.93 34.987v-2.292l-.013-.038c0-.05-.025-.544-.266-1.203-.24-.658-.708-1.494-1.606-2.114l-.026-.013-.19.316.203-.316h-.013l-.19.316.203-.316-.05-.025c-.216-.178-1.266-1.013-2.278-3.065-1.024-2.038-2.011-5.293-2.087-10.282v-.012c-.013-.064-.089-3.99-2.492-7.978a15.396 15.396 0 0 0-5.643-5.496C54.838.975 51.36-.013 46.818 0h-8.286a.664.664 0 0 0-.67.659c0 .367.303.67.67.67h8.286c4.352 0 7.59.938 10.007 2.305a13.771 13.771 0 0 1 4.225 3.66c1.556 2.026 2.378 4.204 2.796 5.875.202.836.316 1.545.38 2.052.025.24.037.443.05.57V15.967l.013.012v-.012c.076 5.597 1.277 9.193 2.504 11.409 1.215 2.203 2.43 3.026 2.518 3.077l.354-.57-.38.545c.608.43.937 1 1.114 1.481.088.24.139.456.164.608.013.076.026.127.026.164v.051l.278-.025-.278.013v.012l.278-.025-.278.013.67-.026h-.67v2.292c0 .367.303.671.67.671.367 0 .67-.304.67-.67Z" fill="#363C46"/><path fill-rule="evenodd" clip-rule="evenodd" d="M10.181 34.987v-2.292h-.67l.67.026-.278-.013.278.025v-.012l-.278-.013.278.025c0-.012.026-.392.203-.86a3.183 3.183 0 0 1 1.1-1.444l-.38-.545.355.57c.088-.05 1.303-.874 2.53-3.077 1.215-2.216 2.416-5.812 2.492-11.41v.013-.012c.013-.165.165-3.888 2.404-7.484 1.126-1.798 2.758-3.583 5.174-4.913 2.404-1.342 5.604-2.241 9.893-2.241h8.286c.367 0 .67-.304.67-.671a.664.664 0 0 0-.67-.659h-8.286c-4.542-.013-8.02.975-10.665 2.47a15.324 15.324 0 0 0-4.63 4.013c-1.695 2.204-2.568 4.559-3.023 6.37-.443 1.798-.481 3.052-.481 3.09v.012c-.089 5.407-1.24 8.775-2.34 10.776-.544 1-1.088 1.659-1.48 2.064a4.16 4.16 0 0 1-.456.43c-.05.039-.088.064-.114.09l-.025.012.202.316-.19-.316h-.012l.202.316-.19-.316-.025.013a4.438 4.438 0 0 0-1.606 2.114c-.24.659-.266 1.153-.266 1.203V34.987c0 .367.29.671.658.671.367 0 .67-.304.67-.67Z" fill="#363C46"/><path fill-rule="evenodd" clip-rule="evenodd" d="M59.76 72.62H26.665V33.518H59.76V72.62Z" fill="#261F1A"/><path fill-rule="evenodd" clip-rule="evenodd" d="M60.48 68.821c-8.905-1-13.295-3.634-14.042-4.128H30.562c-.747.494-5.137 3.128-14.043 4.128 0 0-16.99.633-16.509 31.467 0 0 12.777 5.762 38.484 5.711 25.719.051 38.496-5.711 38.496-5.711.48-30.834-16.51-31.467-16.51-31.467Z" fill="#F6C7AE"/><path fill-rule="evenodd" clip-rule="evenodd" d="M16.52 68.822S-.47 69.455.01 100.289c0 0 12.777 5.761 38.484 5.71 25.719.051 38.496-5.71 38.496-5.71.48-30.834-16.51-31.467-16.51-31.467s-16.534-1.165-21.986 5.875c0 0-5.238-8.661-21.975-5.875Z" fill="#FEFEFE"/><path fill-rule="evenodd" clip-rule="evenodd" d="M46.603 67.923H30.397V56.12h16.206v11.802Z" fill="#F6C7AE"/><path fill-rule="evenodd" clip-rule="evenodd" d="M42.58 64.694c-.987 0-1.961-.076-2.935-.19h.038c.063 0-.165-.038-.418-.09-.253-.037-.518-.088-.531-.088h.013a16.793 16.793 0 0 1-1.38-.329 16.099 16.099 0 0 1-1.328-.405c-.126-.05-.556-.228-.696-.279a21.835 21.835 0 0 1-1.315-.722c-.304-.177-.595-.38-.873-.57-.19-.126-.38-.253-.557-.392l-.05-.038a17.677 17.677 0 0 1-1.594-1.481 9.753 9.753 0 0 1-.355-.38l.076-2.026c2.379 1.532 5.023 2.393 7.819 2.393h.164c2.846-.038 5.541-.95 7.945-2.57v6.622c-.443.14-.886.266-1.329.367-.075 0-.771.102-.923.114-.48.038-.949.05-1.417.05-.114.013-.24.013-.354.013Z" fill="#D1AC97"/><path fill-rule="evenodd" clip-rule="evenodd" d="M56.938 34.797c0 13.967-8.26 25.3-18.444 25.3-10.171 0-18.433-11.333-18.433-25.3S28.323 12.08 38.495 12.08c10.184 0 18.432 8.75 18.444 22.717Z" fill="#F6C7AE"/><path fill-rule="evenodd" clip-rule="evenodd" d="M46.122 53.335s-24.1-2.874-17.445-29.947l.012-.089c2.606-3.064 6.2-4.774 10.172-4.774 2.492 0 4.832.672 6.882 1.938 3.314 2.862 5.212 7.344 7.16 11.548a25.55 25.55 0 0 1 .354 4.267c0 7.282-2.859 13.626-7.135 17.057Z" fill="#F9D5C0"/><path fill-rule="evenodd" clip-rule="evenodd" d="M38.494 60.096c-2.796 0-5.44-.86-7.818-2.393 0 0-6.288-6.61-8.35-15.74a4.027 4.027 0 0 0 .367-1.658V31.2c0-.367-.05-.722-.152-1.064.936-3.28 2.682-6.635 5.567-9.965-2.708 4.938-3.72 10.928-3.05 16.436.86 7.23 4.29 13.954 10.564 17.918 3.175 2 6.768 2.925 10.386 2.925.24 0 .481 0 .721-.013-2.441 1.672-5.174 2.621-8.07 2.66h-.165Z" fill="#E3BAA2"/><path fill-rule="evenodd" clip-rule="evenodd" d="M29.79 65.15c-1.72.936-5.984 2.849-13.27 3.672 0 0-16.99.633-16.51 31.466 0 0 12.777 5.762 38.484 5.711 25.719.051 38.496-5.711 38.496-5.711.48-30.833-16.51-31.466-16.51-31.466-7.286-.823-11.55-2.736-13.27-3.673 0 0 9.058 20.197-8.716 38.381 0 0-17.167-17.715-8.704-38.38Z" fill="#07B2C4"/><path fill-rule="evenodd" clip-rule="evenodd" d="m24.375 79.8.013.127c.076.317.14.633.203.937.05-.012.1-.038.139-.05-.114-.33-.24-.671-.355-1.013Z" fill="#07B2C4"/><path fill-rule="evenodd" clip-rule="evenodd" d="M60.48 68.822c-7.286-.823-11.55-2.736-13.27-3.673 0 0 9.058 20.197-8.717 38.381 0 0-17.167-17.715-8.703-38.38-1.72.936-5.984 2.849-13.27 3.672 0 0-2.822 7.357 3.124 13.903 0 0 2.568-1.393 3.96-.987l-4.922 3.608S19.834 99.364 35.078 106h7.73s13.207-6.432 15.51-23.476c0 0-1.228-1.393-5.023-2.57 0 0 2.328-.799 5.022-.393 0 0 4.997-2.634 2.164-10.738Z" fill="#009CB2"/><path fill-rule="evenodd" clip-rule="evenodd" d="M38.33 103.353c-.077-.076-.165-.19-.292-.329.127.139.215.241.291.329Zm-10.64-22.45a33.47 33.47 0 0 1-.24-3.952c0-1.088.05-2.19.177-3.304-.279 2.507-.215 4.938.063 7.255Z" fill="#EBECEC"/><path fill-rule="evenodd" clip-rule="evenodd" d="m19.644 82.726-.013-.013.013.013s1.974-1.064 3.39-1.064c-1.416 0-3.39 1.064-3.39 1.064Z" fill="#09A6B6"/><path fill-rule="evenodd" clip-rule="evenodd" d="M38.443 105.999h-3.365c-15.244-6.635-16.395-20.653-16.395-20.653l4.92-3.609a2.064 2.064 0 0 0-.569-.075c-1.416 0-3.39 1.063-3.39 1.063l-.013-.012c0-.013-.012-.013-.012-.013-.19-.215-.367-.418-.544-.633 1.48-.684 2.872-1.558 3.833-2.76 2.328-2.9 2.948-7.51-.747-9.65-.999-.582-1.998-.747-3.023-.747-.898 0-1.81.127-2.72.216.05-.19.101-.304.101-.304 3.783-.418 6.743-1.14 8.97-1.874.012.038.038.076.05.114l2.796-1.115c-1.948 1.342-4.87 4.571-2.353 11.03 0 0 .177-2.191 1.645-3.33a29.241 29.241 0 0 0-.177 3.304c0 1.355.088 2.672.24 3.95a4.075 4.075 0 0 0-1.759.583c-3.023 1.874-4.313 4.762-3.82 8.244.367 2.558 2.176 4.875 3.858 6.736 1.67 1.849 3.707 3.445 5.782 4.825 1.417.949 3.2 1.937 4.984 1.937.43 0 .873-.063 1.303-.202.127.139.215.253.291.329l.114.114v2.532Zm.05-2.469.026-.025-.025.025Zm.456-.468c7.451-7.839 9.982-16.019 10.475-22.755.443.468.822.962 1.139 1.481-.165.203-.342.405-.52.595 0 0 .368.127.975.266 3.681 7.75-3.91 19.868-12.069 20.413Zm10.5-23.097c.038-.773.064-1.507.064-2.229 0-7.433-2.303-12.587-2.303-12.587 1.252.684 3.884 1.9 8.059 2.824a1.477 1.477 0 0 0-.228-.05c.354.975.607 1.975.658 3.039.05.975-.05 2-.316 2.988-.418 1-.924 2.013-1.493 3.052a7.593 7.593 0 0 1-.696.734c-1.126 1.026-2.404 1.735-3.745 2.229Z" fill="#0092A6"/><path fill-rule="evenodd" clip-rule="evenodd" d="M38.494 103.53s-.013-.025-.05-.063l.05.063Zm.025-.025c.14-.14.278-.292.43-.443-.139.151-.29.303-.43.443Z" fill="#EBECEC"/><path fill-rule="evenodd" clip-rule="evenodd" d="M38.493 103.53s-.012-.026-.05-.063c.038.037.05.063.05.063Z" fill="#0092A6"/><path fill-rule="evenodd" clip-rule="evenodd" d="M42.808 105.999h-4.365v-2.532c.038.038.05.063.05.063l.026-.025c.14-.14.291-.292.43-.444 8.16-.544 15.75-12.662 12.069-20.412.86.19 2.201.43 3.72.43 1.138 0 2.365-.126 3.567-.506C55.99 99.58 42.808 106 42.808 106Z" fill="#00899C"/><path fill-rule="evenodd" clip-rule="evenodd" d="M49.424 80.308c0-.114.013-.228.025-.342-.012.114-.025.228-.025.342Z" fill="#EBECEC"/><path fill-rule="evenodd" clip-rule="evenodd" d="M50.562 81.79a8.897 8.897 0 0 0-1.138-1.482c0-.114.013-.228.025-.342 1.341-.494 2.619-1.203 3.745-2.229.253-.228.48-.48.696-.734a30.859 30.859 0 0 1-3.328 4.786Z" fill="#00899C"/><path fill-rule="evenodd" clip-rule="evenodd" d="M57.204 68.353c-.67-.114-1.316-.254-1.935-.38.62.126 1.265.266 1.935.38Z" fill="#261F1A"/><path fill-rule="evenodd" clip-rule="evenodd" d="M55.383 73.95a9.671 9.671 0 0 0 .316-2.99c-.05-1.063-.304-2.063-.658-3.038.076.013.152.025.228.05.62.127 1.265.266 1.935.38a32.12 32.12 0 0 1-1.822 5.597Z" fill="#00899C"/><path fill-rule="evenodd" clip-rule="evenodd" d="M38.76 103.125h-.52V74.697h.52v28.428Z" fill="#C5C6C6"/><path fill-rule="evenodd" clip-rule="evenodd" d="M29.79 65.15s-7.375 2.659-3.808 11.826c0 0 .822-9.712 12.613 1.09.013 0 .797-8.168-3.707-9.903 0 0-5.098-.772-5.098-3.014Z" fill="#DDDDDE"/><path fill-rule="evenodd" clip-rule="evenodd" d="M47.374 65.15s6.642 2.52 2.948 10.737c0 0-3.656-8.522-11.727 2.178.013 0-1.139-8.99 3.681-9.902 0 0 5.098-.772 5.098-3.014Z" fill="#DDDDDE"/><path fill-rule="evenodd" clip-rule="evenodd" d="M64.263 64.694s-.354-23.768-1.556-37.646c0 0 .013-.14 0-.405.114-4.394-1.733-9.687-3.732-12.777-1.455-2.254-3.125-4.394-5.11-6.205-6.933-6.331-22.722-6.698-27.2 3.103-4.213 2.976-20.962 17.892-1.126 56.298l4.858-1.937.278-7.42S11.56 37.608 29.094 19.082l.063-.038-.063.038c3.087-1.583 7.122-1.937 10.513-1.43 9.412 1.43 11.449 11.75 15.497 18.715.683 1.177 1.43 2.507 2.176 3.292.658 5.749.987 13.055.721 22.362 0 0 .291 11.143-7.957 20.362 0 0 18.267 6.078 14.22-17.69Z" fill="#493428"/><path fill-rule="evenodd" clip-rule="evenodd" d="M29.157 19.044c.317-.203.633-.367.962-.532.329-.177.67-.316 1.012-.456.683-.278 1.392-.493 2.113-.696.367-.089.733-.165 1.1-.24.367-.064.734-.102 1.1-.165.38-.063.747-.05 1.127-.089.19-.012.38-.025.57-.025l.568.012c.367.026.76.013 1.126.076l1.139.14c.367.076.746.177 1.113.266.38.076.734.202 1.088.342.367.139.734.24 1.075.405l1.038.506c.354.165.67.38.987.595l.961.634.038.025.063.063c.316.355.62.684.924 1.038.29.342.594.684.873 1.051.278.368.569.722.822 1.09l.81 1.127c.253.38.493.772.746 1.165.253.38.455.797.67 1.202.215.418.456.81.62 1.254.178.443.367.874.532 1.317l.48 1.19.52 1.241.518 1.229.544 1.228.57 1.215c.189.393.391.798.594 1.19.19.406.417.798.632 1.178l.354.583c.114.177.253.354.38.544-.152-.152-.329-.304-.494-.468l-.468-.494c-.278-.355-.569-.71-.834-1.076-.266-.368-.52-.748-.772-1.115-.253-.38-.494-.76-.734-1.152-.455-.785-.91-1.57-1.34-2.368l-.62-1.203-.304-.608-.152-.304-.076-.152-.038-.076-.025-.038v-.025h-.013l-.013-.05c-.202-.393-.367-.786-.556-1.165-.152-.393-.418-.76-.62-1.127-.215-.38-.43-.76-.696-1.115l-.721-1.089-.784-1.05c-.266-.355-.557-.697-.823-1.04-.278-.354-.556-.683-.835-1.025-.278-.342-.582-.67-.86-.988l.101.09-.847-.583c-.291-.19-.57-.405-.886-.545l-.91-.494c-.304-.164-.633-.278-.95-.417-.316-.127-.632-.267-.974-.355l-1-.291-1.024-.216c-.329-.088-.683-.1-1.037-.139l-.519-.063c-.177-.013-.354-.013-.531-.026-.354 0-.709-.05-1.063-.025-.341.013-.708.013-1.063.038l-1.062.101c-.354.051-.709.09-1.063.152-.354.076-.708.127-1.063.203-.354.076-.708.165-1.05.266-.354.088-.708.203-1.05.33Z" fill="#2D2623"/><path fill-rule="evenodd" clip-rule="evenodd" d="M27.677 66.2c-4.832-8.37-7.628-15.626-9.045-21.843h.038a4.275 4.275 0 0 0 1.708-.393c3.01 12.043 10.02 21.16 10.02 21.16l-2.72 1.076Zm-8.122-38.95a5.425 5.425 0 0 0-.81-.102h-.126c-.164 0-.329.013-.493.026 2.037-9.801 7.818-14.081 7.818-14.081-3.555 4.571-5.516 9.383-6.389 14.157ZM59.494 28.124c-.013-.05-.038-.1-.05-.152-.127-.341-.254-.721-.405-1.114-.291-.798-.582-1.71-1-2.66-.19-.468-.392-.974-.607-1.48-.24-.507-.48-1.014-.734-1.545-.24-.545-.544-1.064-.835-1.596-.151-.266-.29-.532-.443-.81-.164-.266-.341-.52-.506-.785-.164-.266-.341-.532-.506-.798-.177-.266-.38-.52-.569-.773-.202-.253-.392-.519-.582-.772l-.645-.722c-.848-.987-1.847-1.836-2.884-2.621l-.81-.52c-.14-.088-.266-.19-.405-.265l-.43-.228-.43-.215c-.14-.076-.278-.165-.43-.216-.291-.126-.595-.253-.886-.38-1.189-.43-2.416-.785-3.643-.936a22.013 22.013 0 0 0-2.86-.203c-.24 0-.48 0-.72.013-1.152.038-2.252.139-3.264.303a33.758 33.758 0 0 0-4.87 1.128 23.84 23.84 0 0 0-1.342.443c-.316.114-.48.164-.48.164s.556-.43 1.644-1.038a19.479 19.479 0 0 1 1.999-1c.392-.178.822-.355 1.278-.532.468-.165.948-.342 1.467-.481.519-.165 1.063-.292 1.632-.444.278-.063.582-.114.873-.164.304-.064.607-.114.91-.14a15.878 15.878 0 0 1 2.48-.177c.494 0 .987.013 1.48.05.342.039.696.064 1.05.102.342.063.696.127 1.05.19.355.063.696.165 1.05.253l.532.152.266.076.253.102c.354.126.695.265 1.037.392.354.14.67.33 1.012.494l.506.253c.165.089.316.203.468.291l.949.608c1.19.912 2.34 1.9 3.239 3.04.24.278.468.556.695.835.203.291.405.595.608.886.19.292.404.57.581.874.165.304.33.608.494.9.164.303.329.607.493.898.14.304.266.608.405.9.253.607.531 1.177.721 1.76.203.582.392 1.152.582 1.709.152.557.291 1.089.418 1.608.126.52.278 1.013.354 1.494.076.481.164.925.24 1.355.05.38.127.735.177 1.076a3.977 3.977 0 0 0-.607.418Z" fill="#3E2D24"/><path fill-rule="evenodd" clip-rule="evenodd" d="M56.825 34.165s-.064-.152-.152-.456c-.101-.304-.253-.735-.405-1.292-.177-.557-.367-1.24-.645-2-.127-.38-.266-.786-.405-1.216a13.25 13.25 0 0 0-.215-.659c-.089-.228-.164-.456-.266-.684a74.659 74.659 0 0 0-.531-1.43c-.177-.494-.418-.988-.645-1.507a35.29 35.29 0 0 0-.33-.785c-.113-.253-.252-.507-.379-.773-.126-.253-.265-.519-.392-.785a6.952 6.952 0 0 0-.43-.798c-.14-.253-.304-.519-.455-.772l-.228-.405-.114-.19-.127-.19-.53-.76c-.178-.253-.33-.519-.532-.747-.203-.24-.392-.481-.595-.722-.1-.126-.19-.253-.29-.367l-.33-.33-.632-.67c-.228-.215-.468-.405-.709-.608-.442-.43-.961-.747-1.454-1.114-.253-.165-.532-.304-.785-.469-.126-.076-.266-.152-.392-.228l-.417-.177c-.266-.127-.532-.266-.823-.367l-.835-.304c-.278-.101-.569-.152-.847-.228-.152-.038-.291-.076-.43-.114-.14-.026-.291-.05-.43-.076-.292-.05-.57-.114-.86-.14-.28-.037-.57-.063-.848-.088-.279-.025-.557-.025-.835-.038-.127-.013-.253-.013-.38-.013-.152 0-.303.013-.455.013-1.088.013-2.126.14-3.074.291-.962.152-1.835.367-2.606.57-.772.203-1.443.405-2 .595-.543.203-.973.355-1.264.469-.291.114-.443.177-.443.177s.518-.43 1.518-1.051a21.913 21.913 0 0 1 1.885-1.013 21.23 21.23 0 0 1 2.606-1.013c.974-.304 2.062-.583 3.264-.71.658-.088 1.34-.139 2.05-.139.569 0 1.15.038 1.732.114 1.316.152 2.695.482 3.973 1.064l.493.215c.165.076.316.165.468.241.316.177.633.342.936.532.582.418 1.202.785 1.72 1.279.267.24.545.468.798.709l.721.772.367.38c.114.14.215.279.316.418.215.279.43.557.633.836.227.266.392.557.582.848.177.291.354.57.53.861l.127.216.114.215c.076.152.152.304.228.443.152.291.304.582.443.874.152.291.278.582.392.873.114.304.24.583.354.874.101.291.228.57.33.861.088.279.176.57.265.849.088.278.177.557.253.823.088.266.177.532.24.81.114.532.24 1.038.354 1.545.051.24.102.481.165.722.038.24.076.468.114.696.063.456.139.887.19 1.292.139.81.177 1.532.227 2.114.05.583.076 1.051.101 1.355.013.317.026.482.026.482Z" fill="#3E2D24"/><path fill-rule="evenodd" clip-rule="evenodd" d="M72.334 35.747c0 .874-.708 1.583-1.594 1.583a1.583 1.583 0 0 1 0-3.166c.886 0 1.594.71 1.594 1.583Z" fill="#902C26"/><path fill-rule="evenodd" clip-rule="evenodd" d="M58.077 31.201c0-2.24 1.822-4.052 4.074-4.052 2.239 0 4.06 1.811 4.06 4.052v9.105a4.057 4.057 0 0 1-4.06 4.052c-2.252 0-4.074-1.81-4.074-4.052v-9.104Z" fill="#4D525F"/><path fill-rule="evenodd" clip-rule="evenodd" d="M62.15 44.358h-.012.013Zm-.012 0h-.013.013Zm-.013 0h-.012.012ZM62.1 27.149h.013-.013Zm.013 0h.012-.012Zm.012 0h.013-.013Zm.013 0h.013-.013Z" fill="#3E2D24"/><path fill-rule="evenodd" clip-rule="evenodd" d="M62.15 44.358h-.05a4.119 4.119 0 0 1-2.138-.646c2.391-.329 4.086-2.634 4.516-4.926.506-2.671.266-5.204-1.492-7.37-.962-1.19-2.366-1.658-3.808-1.658-.279 0-.57.013-.848.05a4.067 4.067 0 0 1 3.732-2.659h.089a4.061 4.061 0 0 1 3.744 2.47l-.227-.076v12.41h.012c.076-.026.14-.039.215-.064a4.078 4.078 0 0 1-2.214 2.165c-.468.19-.986.304-1.53.304Z" fill="#3F444D"/><path fill-rule="evenodd" clip-rule="evenodd" d="M59.95 41.914c-.241 0-.43-.19-.43-.43V31.2a.424.424 0 1 1 .848 0v10.282c-.001.24-.19.43-.419.43Z" fill="#666D7A"/><path fill-rule="evenodd" clip-rule="evenodd" d="M65.668 29.542v12.41a6.43 6.43 0 0 0 4.731-6.205c.013-2.95-1.999-5.445-4.731-6.205Z" fill="#D33331"/><path fill-rule="evenodd" clip-rule="evenodd" d="M65.668 41.952v-9.295c.215 2.254.746 4.14 2.808 5.47.392.241.797.406 1.227.532a6.51 6.51 0 0 1-4.023 3.293h-.012Z" fill="#B4302C"/><path fill-rule="evenodd" clip-rule="evenodd" d="M66.933 39.204v.012c0 .05.063.646.063 1.596 0 1.19-.089 2.95-.506 4.888-.607 2.925-1.91 6.255-4.618 8.838-1.353 1.304-3.061 2.419-5.237 3.216-2.176.81-4.82 1.292-8.046 1.292-.304 0-.595-.013-.91-.013a.751.751 0 0 0-.773.735.762.762 0 0 0 .734.785c.316.013.633.013.949.013 4.504 0 8.033-.9 10.791-2.368a15.542 15.542 0 0 0 4.909-4.053c1.872-2.317 2.935-4.95 3.517-7.344.582-2.393.708-4.558.708-5.99 0-1.088-.063-1.747-.076-1.772a.747.747 0 0 0-.835-.671.755.755 0 0 0-.67.836Z" fill="#363C46"/><path fill-rule="evenodd" clip-rule="evenodd" d="M48.475 59.87a1.866 1.866 0 0 1-1.872 1.86h-2.505a1.864 1.864 0 0 1-1.86-1.86c0-1.026.835-1.85 1.86-1.85h2.505c1.037 0 1.872.824 1.872 1.85Z" fill="#2F353C"/><path fill-rule="evenodd" clip-rule="evenodd" d="M8.435 35.747c0 .874.709 1.583 1.594 1.583.873 0 1.594-.71 1.594-1.583 0-.874-.72-1.583-1.594-1.583-.885 0-1.594.71-1.594 1.583Z" fill="#902C26"/><path fill-rule="evenodd" clip-rule="evenodd" d="M22.693 31.201c0-2.24-1.822-4.052-4.074-4.052-2.239 0-4.06 1.811-4.06 4.052v9.105a4.057 4.057 0 0 0 4.06 4.052c2.252 0 4.074-1.81 4.074-4.052v-9.104Z" fill="#4D525F"/><path fill-rule="evenodd" clip-rule="evenodd" d="M18.62 44.358h.012-.013Z" fill="#3E2D24"/><path fill-rule="evenodd" clip-rule="evenodd" d="M18.632 44.358h.013-.013Zm.013 0h.012-.012Zm.025-17.209h-.013.013Zm-.013 0h-.012.012Zm-.012 0h-.013.013Zm-.013 0h-.013.013Z" fill="#362920"/><path fill-rule="evenodd" clip-rule="evenodd" d="M18.62 44.358a4.034 4.034 0 0 1-1.57-.317 4.112 4.112 0 0 1-2.175-2.152c.063.012.126.038.19.05l.012.013h.025V29.543l-.227.076a4.061 4.061 0 0 1 3.744-2.47h.127a4.066 4.066 0 0 1 3.694 2.66 6.343 6.343 0 0 0-.848-.051c-1.442 0-2.846.468-3.808 1.659-1.758 2.165-1.998 4.698-1.492 7.37.43 2.291 2.125 4.596 4.516 4.925a4.119 4.119 0 0 1-2.138.646h-.051Z" fill="#3F444D"/><path fill-rule="evenodd" clip-rule="evenodd" d="M20.82 41.914a.424.424 0 0 1-.417-.43V31.2a.424.424 0 1 1 .848 0v10.282c0 .24-.19.43-.43.43Z" fill="#666D7A"/><path fill-rule="evenodd" clip-rule="evenodd" d="M15.102 29.542v12.41c-2.732-.748-4.744-3.242-4.744-6.205 0-2.95 2.012-5.445 4.744-6.205Z" fill="#D33331"/><path fill-rule="evenodd" clip-rule="evenodd" d="M15.102 41.952h-.012.012v-9.295 9.295Z" fill="#393D45"/><path fill-rule="evenodd" clip-rule="evenodd" d="M15.102 41.952h-.025l-.013-.013a6.444 6.444 0 0 1-3.997-3.28c.43-.126.835-.29 1.227-.532 2.062-1.33 2.593-3.216 2.808-5.47v9.295Z" fill="#B4302C"/></svg>