<svg width="123" height="81" fill="none" xmlns="http://www.w3.org/2000/svg"><path fill-rule="evenodd" clip-rule="evenodd" d="M19.217.875h98.842V46.64H19.217V.875Z" fill="#09887A"/><path fill-rule="evenodd" clip-rule="evenodd" d="M19.217.875v.874h97.967v44.016H20.093V.875h-.876v.874-.874h-.876v46.639h100.594V0H18.341v.875h.876Z" fill="#A6CA5B"/><path fill-rule="evenodd" clip-rule="evenodd" d="M32.502 7.212h72.273l7.121 7.113v18.864l-7.121 7.113H32.502l-7.122-7.113V14.325l7.122-7.113Z" fill="#A6CA5B"/><path fill-rule="evenodd" clip-rule="evenodd" d="M55.303 23.75c0-7.361 5.965-13.32 13.335-13.32 7.37 0 13.35 5.959 13.35 13.32 0 7.36-5.98 13.334-13.35 13.334-7.37 0-13.335-5.974-13.335-13.335Z" fill="#6A6766"/><path fill-rule="evenodd" clip-rule="evenodd" d="M74.008 26.025c0-1.353-.396-4.29-4.18-4.29h-2.033c-1.173 0-1.454-.595-1.454-1.52v-.857c0-1.189 1.058-1.387 1.983-1.387 2.066 0 4.263.149 5.155.198v-2.393c-1.222-.346-2.148-.528-3.85-.61V13.3h-1.9v1.815c-2.247-.05-4.544.776-4.544 4.357v1.073c0 1.782.612 4.29 3.834 4.29H69.1c1.156 0 1.768.364 1.768 1.536v.792c0 1.469-.777 1.617-2.115 1.6-.794 0-3.669-.131-4.957-.23v2.41c1.04.263 2.429.51 3.932.593v1.931h1.884V31.57c2.412-.066 4.313-1.023 4.329-4.175l.066-1.37ZM48.661 28.65H32.716a1.17 1.17 0 0 0-1.156 1.156 1.16 1.16 0 0 0 1.156 1.155h15.945a1.16 1.16 0 0 0 1.157-1.155 1.17 1.17 0 0 0-1.157-1.156ZM48.661 22.594H32.716a1.17 1.17 0 0 0-1.156 1.155 1.16 1.16 0 0 0 1.156 1.155h15.945a1.16 1.16 0 0 0 1.157-1.155 1.17 1.17 0 0 0-1.157-1.155ZM48.661 16.554H32.716a1.16 1.16 0 0 0-1.156 1.155 1.17 1.17 0 0 0 1.156 1.155h15.945a1.17 1.17 0 0 0 1.157-1.155 1.16 1.16 0 0 0-1.157-1.155ZM104.56 28.65H88.631a1.16 1.16 0 0 0-1.156 1.156c0 .643.512 1.155 1.156 1.155h15.929c.644 0 1.156-.512 1.156-1.155 0-.628-.512-1.156-1.156-1.156ZM104.56 22.594H88.631a1.16 1.16 0 0 0-1.156 1.155c0 .644.512 1.155 1.156 1.155h15.929c.644 0 1.156-.511 1.156-1.155 0-.627-.512-1.155-1.156-1.155ZM104.56 16.554H88.631c-.644 0-1.156.511-1.156 1.155a1.16 1.16 0 0 0 1.156 1.155h15.929c.644 0 1.156-.528 1.156-1.155 0-.644-.512-1.155-1.156-1.155Z" fill="#F8F8F9"/><path fill-rule="evenodd" clip-rule="evenodd" d="M13.103 6.981h98.843v45.765H13.103V6.981Z" fill="#09887A"/><path fill-rule="evenodd" clip-rule="evenodd" d="M13.103 6.981v.875h97.967V51.87H13.979V6.981h-.876v.875-.875h-.876v46.64h100.594V6.105H12.227v.875h.876Z" fill="#A6CA5B"/><path fill-rule="evenodd" clip-rule="evenodd" d="M26.388 13.32H98.66l7.121 7.112v18.864l-7.121 7.113H26.388l-7.122-7.113V20.432l7.122-7.113Z" fill="#A6CA5B"/><path fill-rule="evenodd" clip-rule="evenodd" d="M49.19 29.855c0-7.361 5.965-13.319 13.334-13.319 7.37 0 13.351 5.958 13.351 13.319 0 7.36-5.981 13.335-13.35 13.335-7.37 0-13.335-5.975-13.335-13.335Z" fill="#6A6766"/><path fill-rule="evenodd" clip-rule="evenodd" d="M67.895 32.133c0-1.354-.397-4.291-4.18-4.291h-2.033c-1.173 0-1.454-.595-1.454-1.519v-.858c0-1.188 1.057-1.386 1.983-1.386 2.065 0 4.28.148 5.155.198v-2.393c-1.206-.347-2.148-.528-3.85-.61v-1.866h-1.9v1.816c-2.248-.05-4.544.775-4.544 4.357v1.072c0 1.783.611 4.291 3.85 4.291h2.065c1.157 0 1.768.363 1.768 1.535v.792c0 1.47-.776 1.618-2.115 1.601-.793 0-3.668-.132-4.957-.231v2.41a21.12 21.12 0 0 0 3.933.594v1.93h1.883v-1.897c2.413-.066 4.313-1.023 4.33-4.176l.066-1.37ZM42.547 34.756H26.602a1.16 1.16 0 0 0-1.156 1.155 1.16 1.16 0 0 0 1.156 1.155h15.945a1.16 1.16 0 0 0 1.157-1.155 1.16 1.16 0 0 0-1.157-1.155ZM42.547 28.7H26.602a1.17 1.17 0 0 0-1.156 1.155 1.16 1.16 0 0 0 1.156 1.155h15.945a1.16 1.16 0 0 0 1.157-1.155 1.17 1.17 0 0 0-1.157-1.156ZM42.547 22.66H26.602a1.16 1.16 0 0 0-1.156 1.155 1.17 1.17 0 0 0 1.156 1.156h15.945a1.17 1.17 0 0 0 1.157-1.156 1.16 1.16 0 0 0-1.157-1.155ZM98.446 34.756H82.518c-.645 0-1.157.511-1.157 1.155s.512 1.155 1.156 1.155h15.929c.644 0 1.157-.511 1.157-1.155s-.513-1.155-1.157-1.155ZM98.446 28.7H82.518a1.16 1.16 0 0 0-1.157 1.155c0 .643.512 1.155 1.156 1.155h15.929c.644 0 1.157-.512 1.157-1.155a1.16 1.16 0 0 0-1.157-1.156ZM98.446 22.66H82.518c-.645 0-1.157.512-1.157 1.155a1.16 1.16 0 0 0 1.156 1.156h15.929a1.16 1.16 0 0 0 1.157-1.156c0-.643-.513-1.155-1.157-1.155Z" fill="#F8F8F9"/><path fill-rule="evenodd" clip-rule="evenodd" d="M6.99 13.087h98.842V58.85H6.989V13.087Z" fill="#09887A"/><path fill-rule="evenodd" clip-rule="evenodd" d="M6.99 13.088v.874h97.966v44.016H7.865v-44.89h-.876v.874-.874h-.875v46.639h100.594V12.213H6.114v.875h.875Z" fill="#A6CA5B"/><path fill-rule="evenodd" clip-rule="evenodd" d="M20.274 19.424h72.273l7.122 7.113V45.4l-7.122 7.113H20.274L13.153 45.4V26.538l7.121-7.113Z" fill="#A6CA5B"/><path fill-rule="evenodd" clip-rule="evenodd" d="M43.076 35.961c0-7.36 5.965-13.318 13.335-13.318 7.37 0 13.35 5.957 13.35 13.318 0 7.36-5.98 13.335-13.35 13.335-7.37 0-13.335-5.974-13.335-13.335Z" fill="#6A6766"/><path fill-rule="evenodd" clip-rule="evenodd" d="M61.78 38.239c0-1.353-.396-4.291-4.163-4.291h-2.049c-1.157 0-1.454-.594-1.454-1.518v-.858c0-1.189 1.058-1.387 2-1.387 2.048 0 4.262.149 5.138.198V27.99c-1.206-.346-2.148-.528-3.85-.61v-1.865h-1.9v1.815c-2.247-.05-4.544.776-4.544 4.357v1.073c0 1.782.611 4.29 3.85 4.29h2.065c1.157 0 1.768.364 1.768 1.536v.792c0 1.468-.76 1.617-2.115 1.6-.793 0-3.668-.132-4.957-.23v2.409c1.041.264 2.446.512 3.933.594v1.915h1.884v-1.898c2.412-.066 4.312-1.007 4.329-4.16l.066-1.37ZM36.434 40.862H20.489a1.16 1.16 0 0 0-1.157 1.156 1.16 1.16 0 0 0 1.157 1.155h15.945a1.16 1.16 0 0 0 1.157-1.155 1.16 1.16 0 0 0-1.157-1.156ZM36.434 34.806H20.489a1.17 1.17 0 0 0-1.157 1.155 1.16 1.16 0 0 0 1.157 1.155h15.945a1.16 1.16 0 0 0 1.157-1.155 1.17 1.17 0 0 0-1.157-1.155ZM36.434 28.766H20.489a1.16 1.16 0 0 0-1.157 1.155 1.17 1.17 0 0 0 1.157 1.155h15.945a1.17 1.17 0 0 0 1.157-1.155 1.16 1.16 0 0 0-1.157-1.155ZM92.332 40.862H76.404c-.644 0-1.157.512-1.157 1.156 0 .643.513 1.155 1.157 1.155h15.928c.645 0 1.157-.512 1.157-1.155 0-.644-.512-1.156-1.157-1.156ZM92.332 34.806H76.404a1.16 1.16 0 0 0-1.157 1.155c0 .644.513 1.155 1.157 1.155h15.928c.645 0 1.157-.511 1.157-1.155a1.16 1.16 0 0 0-1.157-1.155ZM92.332 28.766H76.404c-.644 0-1.157.511-1.157 1.155a1.16 1.16 0 0 0 1.157 1.155h15.928a1.16 1.16 0 0 0 1.157-1.155c0-.644-.512-1.155-1.157-1.155Z" fill="#F8F8F9"/><path fill-rule="evenodd" clip-rule="evenodd" d="M.876 19.193h98.842v45.765H.876V19.193Z" fill="#09887A"/><path fill-rule="evenodd" clip-rule="evenodd" d="M.876 19.193v.875h97.967v44.015H1.75v-44.89H.876v.875-.875H0v46.64h100.594V18.317H0v.875h.876Z" fill="#A6CA5B"/><path fill-rule="evenodd" clip-rule="evenodd" d="M14.177 25.53h72.257l7.121 7.113v18.864l-7.121 7.113H14.177l-7.122-7.113V32.643l7.122-7.113Z" fill="#A6CA5B"/><path fill-rule="evenodd" clip-rule="evenodd" d="M36.963 42.067c0-7.36 5.965-13.318 13.334-13.318 7.37 0 13.351 5.958 13.351 13.318 0 7.361-5.981 13.335-13.35 13.335-7.37 0-13.335-5.974-13.335-13.335Z" fill="#09887A"/><path fill-rule="evenodd" clip-rule="evenodd" d="M30.32 46.97H14.375a1.16 1.16 0 0 0-1.156 1.155 1.16 1.16 0 0 0 1.156 1.155H30.32c.645 0 1.157-.511 1.157-1.155s-.512-1.155-1.157-1.155ZM30.32 40.912H14.375a1.17 1.17 0 0 0-1.156 1.155 1.16 1.16 0 0 0 1.156 1.156H30.32c.645 0 1.157-.512 1.157-1.156a1.16 1.16 0 0 0-1.157-1.155ZM30.32 34.855H14.375a1.17 1.17 0 0 0-1.156 1.156 1.16 1.16 0 0 0 1.156 1.155H30.32c.645 0 1.157-.512 1.157-1.155a1.16 1.16 0 0 0-1.157-1.156ZM86.219 46.97H70.29c-.644 0-1.156.511-1.156 1.155s.512 1.155 1.156 1.155H86.22c.644 0 1.157-.511 1.157-1.155s-.513-1.155-1.157-1.155ZM86.219 40.912H70.29a1.16 1.16 0 0 0-1.156 1.155c0 .644.512 1.156 1.156 1.156H86.22c.644 0 1.157-.512 1.157-1.156a1.16 1.16 0 0 0-1.157-1.155ZM86.219 34.855H70.29a1.16 1.16 0 0 0-1.156 1.156c0 .643.512 1.155 1.156 1.155H86.22c.644 0 1.157-.512 1.157-1.155a1.16 1.16 0 0 0-1.157-1.156Z" fill="#F8F8F9"/><path fill-rule="evenodd" clip-rule="evenodd" d="m68.49 55.022-6.51-6.502a13.299 13.299 0 0 0 1.668-6.453c0-7.36-5.981-13.319-13.35-13.319-2.33 0-4.528.595-6.445 1.65l-4.89-4.868h38.713c-2.065 1.09-3.337 2.36-3.602 3.714h-.05v3.449c-4.824 1.37-8.013 3.35-8.426 5.578h-.05v7.592c0 2.046 2.33 3.911 6.163 5.33v1.32c-1.47.76-2.577 1.602-3.222 2.51Z" fill="#BCD470"/><path fill-rule="evenodd" clip-rule="evenodd" d="M61.98 48.52 43.852 30.4a13.311 13.311 0 0 1 6.444-1.651c7.37 0 13.351 5.958 13.351 13.318a13.3 13.3 0 0 1-1.669 6.453Z" fill="#0C9F93"/><path fill-rule="evenodd" clip-rule="evenodd" d="M55.75 43.421c-.298-.511-.76-.974-1.388-1.386-.595-.396-1.653-.908-3.123-1.452v-3.334a12.74 12.74 0 0 1 3.618.874l1.058-2.623c-1.388-.628-2.958-.974-4.676-1.04v-1.684h-1.537v1.733c-1.537.132-2.743.578-3.585 1.271-.86.71-1.273 1.617-1.273 2.69 0 1.023.298 1.849.925 2.542.612.693 1.686 1.353 3.157 1.93l.776.298v3.482a13.04 13.04 0 0 1-2.478-.43c-.926-.263-1.719-.544-2.363-.857v2.97c1.388.61 3.007.925 4.841.974v2.261h1.537v-2.31c1.553-.133 2.776-.578 3.635-1.288.876-.742 1.305-1.716 1.305-2.888 0-.677-.148-1.254-.43-1.733Zm-4.511 3.235v-2.822c.512.23.909.462 1.156.676.265.232.38.48.38.81 0 .709-.512 1.154-1.536 1.336Zm-1.537-9.358v2.657c-.512-.23-.892-.462-1.123-.676-.232-.198-.348-.479-.348-.809 0-.643.496-1.04 1.471-1.172Z" fill="#F8F8F9"/><path fill-rule="evenodd" clip-rule="evenodd" d="M70.175 65.388v7.575c0 4.44 10.954 8.037 24.487 8.037 13.516 0 24.471-3.598 24.471-8.037v-7.575H70.175Z" fill="#F7A821"/><path fill-rule="evenodd" clip-rule="evenodd" d="M119.133 65.882c0 4.44-10.955 8.037-24.47 8.037-13.534 0-24.488-3.597-24.488-8.037 0-4.44 10.954-8.037 24.487-8.037 13.516 0 24.471 3.598 24.471 8.037Z" fill="#F7A821"/><path fill-rule="evenodd" clip-rule="evenodd" d="M94.662 73.92c-11.517 0-21.183-2.608-23.794-6.124 1.09.644 2.43 1.238 4 1.766l.396.198c2.032.99 4.824 1.8 8.146 2.36 3.32.578 7.154.892 11.252.892v.907Zm-.017-1.866c-1.305 0-2.594-.033-3.85-.099.513.017 1.025.017 1.554.017.776 0 1.553-.017 2.313-.033v.115h-.017Zm24.455-6.667h-.016c-.199-1.04-.975-2.03-2.264-2.921 1.289.891 2.082 1.881 2.28 2.921Z" fill="#FECB31"/><path fill-rule="evenodd" clip-rule="evenodd" d="M117.084 65.882h-.479c0 .346-.116.693-.38 1.072-.446.644-1.338 1.32-2.611 1.948-1.9.924-4.626 1.716-7.881 2.277-3.255.561-7.04.875-11.071.875-6.163 0-11.732-.743-15.73-1.931-1.983-.594-3.586-1.287-4.66-2.047-.529-.38-.925-.759-1.19-1.122-.247-.38-.363-.726-.363-1.072 0-.347.116-.694.364-1.073.446-.644 1.338-1.32 2.61-1.948 1.9-.924 4.627-1.716 7.882-2.277 3.255-.545 7.039-.875 11.087-.875 6.147 0 11.715.743 15.714 1.931 1.999.594 3.602 1.304 4.659 2.047.546.38.942.759 1.19 1.122.264.38.38.726.38 1.073h.958c0-.562-.198-1.123-.545-1.618-.595-.858-1.619-1.6-2.974-2.26-2.032-.991-4.825-1.8-8.146-2.36-3.321-.562-7.155-.892-11.236-.892-6.23 0-11.88.743-15.995 1.964-2.065.61-3.75 1.337-4.94 2.178-.611.43-1.09.875-1.438 1.37-.347.495-.545 1.056-.545 1.618 0 .577.198 1.122.545 1.617.612.858 1.62 1.6 2.975 2.26 2.032.991 4.824 1.8 8.146 2.36 3.32.579 7.154.892 11.252.892 6.229 0 11.864-.743 15.995-1.964 2.049-.61 3.734-1.337 4.94-2.178.595-.43 1.074-.875 1.421-1.37.347-.495.545-1.04.545-1.617h-.479Z" fill="#F7A821"/><path fill-rule="evenodd" clip-rule="evenodd" d="M73.942 75.636a.962.962 0 0 1-.975-.957v-2.574c0-.528.43-.958.975-.958.529 0 .958.43.958.958v2.574c0 .528-.43.957-.958.957Z" fill="#F1891D"/><path fill-rule="evenodd" clip-rule="evenodd" d="M99.735 66.74c-.611-.33-1.719-.643-3.305-.94l-.942-.182V63.39c1.273.05 2.578.198 3.883.462l.926-1.122a26.215 26.215 0 0 0-4.809-.495v-1.023H93.82v1.04c-1.52.082-2.727.297-3.62.66-.891.363-1.354.825-1.354 1.386 0 .528.297.957.942 1.32.644.347 1.636.66 2.99.925l1.041.181v2.294c-.76 0-1.602-.066-2.577-.181-.942-.132-1.785-.264-2.495-.446v1.304c1.322.28 3.007.445 5.073.462v1.287h1.668v-1.337c1.67-.082 2.942-.313 3.817-.71.893-.379 1.322-.858 1.322-1.452 0-.478-.314-.874-.892-1.204Zm-4.247 2.229v-1.964c.793.148 1.355.297 1.686.462.33.148.512.33.512.56 0 .529-.744.826-2.198.942ZM92.3 63.72c.347-.15.86-.248 1.52-.298v1.898c-.76-.148-1.288-.297-1.602-.462-.281-.148-.43-.346-.43-.577 0-.231.182-.413.512-.561Z" fill="#F8F8F9"/><path fill-rule="evenodd" clip-rule="evenodd" d="M94.662 81v-7.08c13.516 0 24.471-3.598 24.471-8.037v7.08c0 4.44-10.955 8.037-24.47 8.037Zm14.508-7.608a.958.958 0 0 0-.958.957v2.575c0 .528.429.957.958.957.529 0 .975-.43.975-.957v-2.575a.973.973 0 0 0-.975-.957Zm3.139-.974a.988.988 0 0 0-.975.974v2.558c0 .528.447.974.975.974a.973.973 0 0 0 .959-.974v-2.558a.973.973 0 0 0-.959-.974Zm3.123-1.27a.958.958 0 0 0-.958.957v2.574a.958.958 0 0 0 1.917 0v-2.574a.959.959 0 0 0-.959-.958Zm3.701-5.265c0-.165-.016-.33-.033-.495h.033v.495Z" fill="#FBBB25"/><path fill-rule="evenodd" clip-rule="evenodd" d="M94.662 73.92v-.908c6.23 0 11.864-.743 15.995-1.964 2.049-.61 3.734-1.337 4.94-2.179.595-.429 1.074-.874 1.421-1.37.347-.495.546-1.04.546-1.617 0-.561-.199-1.122-.546-1.617-.066-.083-.115-.165-.198-.248v-1.552c1.289.892 2.066 1.882 2.264 2.922h.016c.017.165.033.33.033.495 0 4.44-10.955 8.037-24.47 8.037Zm0-1.866v-.115c11.054-.347 19.977-3.103 21.811-6.651.083.198.132.396.132.594 0 .347-.115.693-.38 1.073-.446.643-1.338 1.32-2.61 1.947-1.901.924-4.627 1.717-7.882 2.278-3.255.56-7.039.874-11.07.874Z" fill="#FFD63D"/><path fill-rule="evenodd" clip-rule="evenodd" d="M94.662 73.012v-.957c4.032 0 7.816-.314 11.071-.875 3.255-.561 5.981-1.353 7.882-2.277 1.272-.628 2.164-1.304 2.61-1.948.265-.38.38-.726.38-1.073 0-.198-.049-.396-.132-.594.215-.412.347-.841.347-1.27.083.082.132.165.198.247.347.495.546 1.056.546 1.617 0 .578-.199 1.123-.546 1.618-.347.495-.826.94-1.421 1.37-1.206.841-2.891 1.567-4.94 2.178-4.131 1.221-9.765 1.964-15.995 1.964Z" fill="#FBBB25"/><path fill-rule="evenodd" clip-rule="evenodd" d="M115.432 75.636a.958.958 0 0 1-.958-.957v-2.574a.958.958 0 0 1 1.917 0v2.574c0 .528-.43.957-.959.957ZM112.309 76.924a.987.987 0 0 1-.975-.974v-2.558c0-.528.446-.974.975-.974.529 0 .958.446.958.974v2.558a.972.972 0 0 1-.958.974ZM109.17 77.88a.959.959 0 0 1-.959-.957V74.35c0-.528.43-.957.959-.957.529 0 .975.429.975.957v2.574a.973.973 0 0 1-.975.958Z" fill="#FDDC3D"/><path fill-rule="evenodd" clip-rule="evenodd" d="M67.862 56.343v7.591c0 4.44 10.955 8.038 24.487 8.038 13.516 0 24.471-3.598 24.471-8.038v-7.591H67.862Z" fill="#F7A821"/><path fill-rule="evenodd" clip-rule="evenodd" d="M116.82 56.855c0 4.44-10.955 8.038-24.47 8.038-13.533 0-24.488-3.598-24.488-8.038 0-4.439 10.955-8.053 24.487-8.053 13.516 0 24.471 3.614 24.471 8.053Z" fill="#F7A821"/><path fill-rule="evenodd" clip-rule="evenodd" d="M92.35 64.892c-13.533 0-24.488-3.597-24.488-8.037 0-1.6 1.42-3.086 3.85-4.34v1.138c-.1.083-.199.149-.314.215-.595.429-1.074.875-1.421 1.37-.347.495-.546 1.04-.546 1.617 0 .561.199 1.122.546 1.601.61.875 1.619 1.617 2.974 2.277 2.032.99 4.825 1.8 8.146 2.36 3.321.562 7.154.892 11.252.892v.907Zm-.017-1.864c-6.147 0-11.715-.76-15.714-1.931-1.983-.595-3.586-1.304-4.66-2.047-.528-.38-.925-.76-1.19-1.139-.247-.363-.363-.71-.363-1.056 0-.346.116-.693.364-1.073.215-.313.528-.627.942-.94v.05c0 3.3 6.064 6.139 14.722 7.376v.132h.975c1.57.198 3.222.347 4.94.43v.198h-.016Z" fill="#FECB31"/><path fill-rule="evenodd" clip-rule="evenodd" d="M87.409 62.4h-.975v-.131c.314.05.644.099.975.132Z" fill="#FECB31"/><path fill-rule="evenodd" clip-rule="evenodd" d="M114.771 56.855h-.479c0 .347-.116.693-.38 1.056-.446.66-1.338 1.337-2.611 1.948-1.9.94-4.626 1.733-7.881 2.294-3.255.544-7.04.875-11.071.875-6.163 0-11.731-.743-15.73-1.931-1.983-.595-3.586-1.304-4.66-2.047-.529-.38-.925-.759-1.19-1.139-.247-.363-.363-.71-.363-1.056 0-.346.116-.693.363-1.073.447-.643 1.339-1.336 2.611-1.947 1.9-.924 4.627-1.733 7.882-2.278 3.255-.56 7.039-.874 11.087-.874 6.147 0 11.715.742 15.714 1.93 1.999.595 3.602 1.288 4.659 2.047.546.363.942.76 1.19 1.122.264.38.38.727.38 1.073h.958c0-.577-.198-1.122-.545-1.617-.595-.875-1.619-1.601-2.974-2.261-2.032-.99-4.825-1.8-8.146-2.377-3.321-.56-7.155-.874-11.236-.874-6.23 0-11.88.742-15.995 1.964-2.065.61-3.75 1.336-4.957 2.178-.594.43-1.074.875-1.42 1.37-.348.495-.546 1.04-.546 1.617 0 .561.198 1.122.545 1.601.612.875 1.62 1.617 2.975 2.277 2.032.99 4.824 1.8 8.146 2.36 3.32.562 7.154.892 11.252.892 6.23 0 11.864-.743 15.995-1.964 2.049-.627 3.734-1.354 4.94-2.195.595-.413 1.074-.875 1.421-1.37a2.75 2.75 0 0 0 .545-1.6h-.479Z" fill="#F7A821"/><path fill-rule="evenodd" clip-rule="evenodd" d="M71.629 66.591a.962.962 0 0 1-.975-.957v-2.558c0-.544.43-.974.975-.974.528 0 .958.43.958.974v2.558c0 .528-.43.957-.958.957Z" fill="#F1891D"/><path fill-rule="evenodd" clip-rule="evenodd" d="M97.422 57.697c-.611-.33-1.719-.627-3.305-.94l-.942-.166v-2.228a26.44 26.44 0 0 1 3.883.446l.926-1.106c-1.504-.314-3.123-.479-4.809-.512v-1.006h-1.652v1.023c-1.537.082-2.743.297-3.635.66-.892.363-1.355.825-1.355 1.386 0 .528.297.974.942 1.337.644.347 1.636.66 2.99.908l1.058.181v2.294c-.777 0-1.62-.066-2.594-.165-.942-.132-1.785-.264-2.495-.445v1.287c1.322.28 3.007.445 5.089.462V62.4h1.652v-1.32c1.67-.099 2.942-.33 3.817-.71.892-.38 1.322-.874 1.322-1.452 0-.479-.314-.875-.892-1.221Zm-4.247 2.228v-1.948c.794.149 1.355.28 1.686.446.33.148.512.346.512.578 0 .511-.744.808-2.198.924Zm-3.189-5.232c.347-.165.86-.264 1.537-.313v1.914c-.777-.165-1.305-.314-1.62-.462-.28-.165-.429-.363-.429-.578 0-.23.182-.412.512-.56Z" fill="#F8F8F9"/><path fill-rule="evenodd" clip-rule="evenodd" d="M92.349 71.972v-7.08c9.881 0 18.407-1.93 22.273-4.703.81-.297 1.537-.627 2.198-.958v4.786c0 .43-.132.859-.347 1.271-1.834 3.549-10.757 6.305-21.81 6.651-.76.017-1.537.033-2.314.033Zm14.507-7.624a.962.962 0 0 0-.958.973v2.558c0 .528.43.958.958.958.529 0 .975-.43.975-.958v-2.558a.976.976 0 0 0-.975-.973Zm3.14-.958a.962.962 0 0 0-.975.958v2.574c0 .528.43.957.975.957a.958.958 0 0 0 .958-.957v-2.574a.958.958 0 0 0-.958-.958Zm3.123-1.287a.963.963 0 0 0-.959.974v2.558a.959.959 0 0 0 1.917 0v-2.558a.962.962 0 0 0-.958-.974Z" fill="#FBBB25"/><path fill-rule="evenodd" clip-rule="evenodd" d="M92.349 64.892v-.908c6.23 0 11.864-.742 15.994-1.964.381-.115.761-.247 1.108-.363 1.933-.412 3.668-.907 5.171-1.468-3.866 2.772-12.392 4.703-22.273 4.703Zm0-1.865v-.198a62.51 62.51 0 0 0 3.552.1 62.51 62.51 0 0 1-3.552.098Z" fill="#FFD63D"/><path fill-rule="evenodd" clip-rule="evenodd" d="M92.349 63.985v-.957a62.51 62.51 0 0 0 3.552-.099h.298c4.891 0 9.435-.462 13.252-1.27-.347.115-.727.247-1.108.362-4.13 1.222-9.765 1.964-15.994 1.964Z" fill="#FBBB25"/><path fill-rule="evenodd" clip-rule="evenodd" d="M113.119 66.591a.959.959 0 0 1-.959-.957v-2.558c0-.544.43-.974.959-.974.529 0 .958.43.958.974v2.558a.958.958 0 0 1-.958.957ZM109.996 67.88a.962.962 0 0 1-.975-.958v-2.574c0-.528.43-.957.975-.957.529 0 .958.429.958.957v2.574a.958.958 0 0 1-.958.958ZM106.857 68.837a.959.959 0 0 1-.959-.958v-2.558c0-.544.43-.973.959-.973.528 0 .974.429.974.973v2.558a.972.972 0 0 1-.974.958Z" fill="#FDDC3D"/><path fill-rule="evenodd" clip-rule="evenodd" d="M71.711 47.315v7.576c0 4.44 10.972 8.037 24.488 8.037s24.487-3.598 24.487-8.037v-7.576H71.711Z" fill="#F7A821"/><path fill-rule="evenodd" clip-rule="evenodd" d="M120.686 47.81c0 4.44-10.971 8.054-24.487 8.054-13.516 0-24.488-3.614-24.488-8.053 0-4.44 10.972-8.038 24.488-8.038s24.487 3.598 24.487 8.038Z" fill="#F7A821"/><path fill-rule="evenodd" clip-rule="evenodd" d="M96.199 55.864c-8.146 0-15.367-1.32-19.828-3.333 1.735.396 3.635.693 5.634.924.926.23 1.917.429 2.958.61 3.305.562 7.155.875 11.236.875v.924Zm-.017-1.881c-1.388 0-2.76-.033-4.08-.115a64.456 64.456 0 0 0 4.097-.232v.347h-.017Zm24.455-6.667c-.331-1.733-2.33-3.334-5.486-4.589 3.156 1.255 5.155 2.856 5.486 4.589Z" fill="#FECB31"/><path fill-rule="evenodd" clip-rule="evenodd" d="M118.621 47.811h-.479c0 .347-.115.693-.363 1.073-.446.644-1.339 1.337-2.611 1.947-1.9.925-4.627 1.733-7.882 2.278-3.255.561-7.055.875-11.087.875-6.147 0-11.731-.743-15.713-1.931-2-.594-3.603-1.288-4.677-2.047-.528-.363-.925-.759-1.173-1.122-.264-.38-.38-.726-.38-1.073 0-.346.116-.693.38-1.056.43-.66 1.322-1.337 2.594-1.948 1.9-.94 4.627-1.732 7.882-2.294 3.255-.544 7.056-.874 11.087-.874 6.147 0 11.732.742 15.714 1.93 1.999.595 3.602 1.305 4.676 2.047.529.38.925.76 1.19 1.139.248.363.363.71.363 1.056h.959c0-.56-.199-1.122-.546-1.6-.595-.875-1.619-1.618-2.974-2.278-2.016-.99-4.825-1.799-8.146-2.36-3.305-.561-7.155-.891-11.236-.891-6.23 0-11.88.742-15.994 1.964-2.066.627-3.735 1.353-4.94 2.195-.612.412-1.091.858-1.438 1.37-.33.478-.53 1.04-.53 1.6 0 .578.2 1.123.53 1.618.611.858 1.635 1.6 2.99 2.26 2.016.99 4.825 1.8 8.146 2.377 3.305.561 7.155.875 11.236.875 6.23 0 11.881-.743 15.995-1.964 2.065-.61 3.734-1.337 4.94-2.179.612-.429 1.091-.874 1.421-1.37.347-.494.546-1.04.546-1.617h-.48Z" fill="#F7A821"/><path fill-rule="evenodd" clip-rule="evenodd" d="M75.479 57.565a.958.958 0 0 1-.959-.957v-2.575a.958.958 0 0 1 1.917 0v2.575c0 .528-.43.957-.958.957Z" fill="#F1891D"/><path fill-rule="evenodd" clip-rule="evenodd" d="M101.271 48.67c-.611-.33-1.701-.644-3.288-.941l-.958-.182V45.32a26.41 26.41 0 0 1 3.899.462l.909-1.122a26.048 26.048 0 0 0-4.808-.495v-1.007h-1.652v1.024c-1.537.082-2.743.297-3.636.66-.892.363-1.354.825-1.354 1.386 0 .528.314.957.941 1.32.645.363 1.636.66 2.991.924l1.058.182v2.294c-.777 0-1.62-.066-2.578-.182a23.808 23.808 0 0 1-2.512-.429v1.288c1.322.28 3.024.445 5.09.462v1.287h1.652v-1.337c1.669-.082 2.941-.313 3.817-.71.892-.38 1.322-.858 1.322-1.452 0-.478-.298-.875-.893-1.205Zm-4.246 2.227v-1.963c.793.165 1.355.297 1.702.462.33.148.496.33.496.577 0 .512-.727.809-2.198.924Zm-3.189-5.248c.364-.148.876-.247 1.537-.297v1.898c-.777-.148-1.306-.297-1.62-.462-.28-.148-.43-.347-.43-.578 0-.214.183-.412.513-.56Z" fill="#F8F8F9"/><path fill-rule="evenodd" clip-rule="evenodd" d="M116.82 59.231c2.446-1.254 3.867-2.74 3.867-4.34V47.315h-.05.05v7.576c0 1.6-1.421 3.086-3.867 4.34Z" fill="#FFFEF9"/><path fill-rule="evenodd" clip-rule="evenodd" d="M96.199 62.928v-7.064c13.516 0 24.488-3.614 24.488-8.053v7.08c0 1.6-1.421 3.086-3.867 4.34-4.346 2.228-11.963 3.697-20.621 3.697Zm14.524-7.608a.962.962 0 0 0-.975.957v2.575c0 .528.43.957.975.957.529 0 .958-.43.958-.957v-2.575a.958.958 0 0 0-.958-.957Zm3.123-.958a.958.958 0 0 0-.958.958v2.558c0 .544.429.974.958.974.529 0 .958-.43.958-.974V55.32a.958.958 0 0 0-.958-.958Zm3.139-1.287a.962.962 0 0 0-.975.957v2.575c0 .528.43.957.975.957.529 0 .959-.429.959-.957v-2.575a.959.959 0 0 0-.959-.957Zm3.702-5.265c0-.165-.017-.33-.05-.495h.05v.495Z" fill="#FBBB25"/><path fill-rule="evenodd" clip-rule="evenodd" d="M96.199 55.864v-.924c6.229 0 11.88-.742 15.995-1.964 2.065-.61 3.734-1.337 4.94-2.178.611-.43 1.091-.875 1.421-1.37.347-.495.545-1.04.545-1.617a2.75 2.75 0 0 0-.545-1.601c-.595-.875-1.619-1.618-2.974-2.278-.331-.165-.694-.313-1.074-.478v-.545c.215-.066.429-.115.644-.181 3.156 1.254 5.156 2.855 5.486 4.587.033.166.05.33.05.496 0 4.44-10.972 8.053-24.488 8.053Zm0-1.881v-.347a60.694 60.694 0 0 0 2.61-.264h3.371v-.528c7.37-1.386 12.327-3.994 12.327-6.98v-1.37c.826.362 1.52.742 2.082 1.122.529.38.925.759 1.189 1.138.248.364.364.71.364 1.057 0 .346-.116.693-.364 1.072-.446.644-1.338 1.337-2.61 1.948-1.9.924-4.627 1.733-7.882 2.277-3.255.561-7.055.875-11.087.875Z" fill="#FFD63D"/><path fill-rule="evenodd" clip-rule="evenodd" d="M96.199 54.94v-.957c4.032 0 7.832-.313 11.087-.874 3.255-.545 5.982-1.354 7.882-2.278 1.272-.61 2.164-1.304 2.61-1.947.248-.38.364-.726.364-1.073 0-.346-.116-.693-.364-1.056-.264-.38-.66-.76-1.189-1.139-.562-.38-1.256-.76-2.082-1.122v-1.04c.38.165.743.314 1.074.479 1.355.66 2.379 1.403 2.974 2.277a2.75 2.75 0 0 1 .545 1.601c0 .578-.198 1.122-.545 1.617-.33.495-.81.941-1.421 1.37-1.206.842-2.875 1.568-4.94 2.179-4.115 1.221-9.766 1.964-15.995 1.964Z" fill="#FBBB25"/><path fill-rule="evenodd" clip-rule="evenodd" d="M116.985 57.565a.962.962 0 0 1-.975-.957v-2.575c0-.528.43-.957.975-.957.529 0 .958.43.958.957v2.575a.958.958 0 0 1-.958.957ZM113.846 58.852a.962.962 0 0 1-.958-.973V55.32a.958.958 0 0 1 1.916 0v2.558a.962.962 0 0 1-.958.973ZM110.723 59.808a.962.962 0 0 1-.975-.957v-2.575c0-.528.43-.957.975-.957.529 0 .958.43.958.957v2.575a.958.958 0 0 1-.958.957Z" fill="#FDDC3D"/><path fill-rule="evenodd" clip-rule="evenodd" d="M102.181 53.372H98.81a60.485 60.485 0 0 0 3.371-.528v.528Z" fill="#FFD63D"/><path fill-rule="evenodd" clip-rule="evenodd" d="M65.548 38.273v7.591c0 4.44 10.955 8.037 24.488 8.037 13.516 0 24.471-3.597 24.471-8.037v-7.591H65.548Z" fill="#F7A821"/><path fill-rule="evenodd" clip-rule="evenodd" d="M114.507 38.783c0 4.44-10.955 8.038-24.471 8.038-13.533 0-24.488-3.598-24.488-8.038s10.955-8.037 24.488-8.037c13.516 0 24.471 3.598 24.471 8.037Z" fill="#F7A821"/><path fill-rule="evenodd" clip-rule="evenodd" d="M90.036 46.82c-13.533 0-24.488-3.597-24.488-8.037 0-2.442 3.288-4.62 8.477-6.09v.925c-2.05.61-3.735 1.336-4.924 2.178-.612.43-1.09.875-1.438 1.37-.347.495-.545 1.04-.545 1.617 0 .561.198 1.122.545 1.618.611.858 1.62 1.6 2.974 2.26 2.033.99 4.825 1.8 8.146 2.36 3.322.562 7.155.892 11.253.892v.908Zm-.017-1.864c-6.147 0-11.715-.743-15.714-1.931-1.982-.594-3.585-1.304-4.66-2.047-.528-.38-.924-.759-1.189-1.122-.248-.38-.363-.726-.363-1.073 0-.346.115-.693.363-1.072.446-.644 1.339-1.32 2.61-1.948.844-.413 1.835-.792 2.959-1.139v2.195c0 2.674 3.982 5.05 10.095 6.52v.99h5.618l.298.049v.578h-.017Z" fill="#FECB31"/><path fill-rule="evenodd" clip-rule="evenodd" d="M89.738 44.328H84.12v-.99c1.718.396 3.602.742 5.618.99Z" fill="#FECB31"/><path fill-rule="evenodd" clip-rule="evenodd" d="M112.458 38.783h-.479c0 .346-.116.693-.38 1.073-.446.643-1.339 1.32-2.611 1.947-1.9.924-4.626 1.716-7.882 2.278-3.255.544-7.038.874-11.07.874-6.163 0-11.732-.742-15.73-1.93-1.983-.595-3.586-1.304-4.66-2.047-.529-.38-.925-.76-1.19-1.122-.248-.38-.363-.727-.363-1.073 0-.347.115-.693.363-1.073.446-.644 1.339-1.32 2.611-1.947 1.9-.924 4.627-1.717 7.882-2.278 3.255-.56 7.039-.874 11.087-.874 6.147 0 11.715.742 15.714 1.93 1.999.595 3.602 1.288 4.659 2.047.545.38.942.76 1.19 1.122.264.38.38.726.38 1.073h.958c0-.578-.198-1.122-.545-1.617-.595-.859-1.619-1.601-2.974-2.261-2.033-.99-4.825-1.8-8.146-2.36-3.322-.578-7.155-.892-11.236-.892-6.23 0-11.88.743-15.995 1.964-2.065.61-3.75 1.337-4.94 2.179-.612.429-1.09.874-1.438 1.37-.347.495-.545 1.04-.545 1.617 0 .561.198 1.122.545 1.617.612.858 1.62 1.601 2.974 2.261 2.033.99 4.825 1.8 8.146 2.36 3.322.561 7.155.892 11.253.892 6.23 0 11.864-.743 15.994-1.964 2.049-.611 3.735-1.337 4.941-2.179.595-.429 1.074-.875 1.421-1.37.347-.495.545-1.056.545-1.617h-.479Z" fill="#F7A821"/><path fill-rule="evenodd" clip-rule="evenodd" d="M69.316 48.538a.976.976 0 0 1-.975-.974v-2.558c0-.528.43-.957.975-.957.528 0 .958.429.958.957v2.558c0 .528-.43.974-.958.974Z" fill="#F1891D"/><path fill-rule="evenodd" clip-rule="evenodd" d="M95.108 39.626c-.611-.314-1.718-.628-3.305-.925l-.941-.181v-2.228a26.41 26.41 0 0 1 3.883.445l.925-1.105a26.208 26.208 0 0 0-4.808-.495v-1.024h-1.653v1.023c-1.536.1-2.743.314-3.635.677-.892.363-1.355.825-1.355 1.386 0 .512.298.958.942 1.32.644.347 1.636.66 2.99.909l1.058.198v2.277c-.776 0-1.619-.05-2.594-.165-.942-.132-1.784-.264-2.495-.446v1.288c1.322.297 3.007.462 5.09.462v1.287h1.652v-1.32c1.669-.083 2.94-.33 3.817-.71.892-.38 1.321-.858 1.321-1.452 0-.479-.314-.875-.892-1.221Zm-4.246 2.227v-1.947c.793.149 1.355.297 1.685.446.33.148.512.346.512.577 0 .512-.743.825-2.197.924Zm-3.19-5.231c.348-.149.86-.248 1.537-.297v1.898c-.776-.149-1.305-.297-1.619-.462-.28-.149-.43-.347-.43-.578 0-.231.182-.413.513-.561Z" fill="#F8F8F9"/><path fill-rule="evenodd" clip-rule="evenodd" d="M90.036 53.9v-7.08c7.105 0 13.499-.99 17.977-2.574 2.379-.33 4.577-.792 6.494-1.337v2.955c0 2.986-4.957 5.594-12.327 6.98-1.074.198-2.197.38-3.37.529-.843.099-1.719.198-2.611.264a67.303 67.303 0 0 1-6.163.264Zm14.507-7.608a.958.958 0 0 0-.958.958v2.558c0 .528.429.973.958.973.529 0 .975-.429.975-.973V47.25a.973.973 0 0 0-.975-.958Zm3.14-.973a.976.976 0 0 0-.975.973v2.558c0 .529.446.958.975.958.528 0 .958-.43.958-.958v-2.558a.962.962 0 0 0-.958-.973Zm3.122-1.271a.959.959 0 0 0-.958.957v2.558c0 .528.43.974.958.974a.973.973 0 0 0 .959-.974v-2.558a.959.959 0 0 0-.959-.957Z" fill="#FBBB25"/><path fill-rule="evenodd" clip-rule="evenodd" d="M90.036 46.82v-.908c4.709 0 9.088-.43 12.723-1.172a63.15 63.15 0 0 0 5.254-.495c-4.478 1.585-10.872 2.575-17.977 2.575Zm0-1.865v-.578c1.586.182 3.238.33 4.957.413-1.587.099-3.255.165-4.957.165Z" fill="#FFD63D"/><path fill-rule="evenodd" clip-rule="evenodd" d="M90.036 45.914v-.957c1.701 0 3.37-.066 4.957-.165a70.791 70.791 0 0 0 7.766-.05c-3.635.743-8.014 1.172-12.723 1.172Z" fill="#FBBB25"/><path fill-rule="evenodd" clip-rule="evenodd" d="M110.806 48.538a.973.973 0 0 1-.959-.974v-2.558a.959.959 0 0 1 1.917 0v2.558c0 .528-.43.974-.958.974ZM107.683 49.807a.973.973 0 0 1-.975-.957v-2.558c0-.544.446-.974.975-.974.529 0 .958.43.958.974v2.558a.958.958 0 0 1-.958.957ZM104.543 50.781a.962.962 0 0 1-.958-.974V47.25c0-.528.429-.957.958-.957.529 0 .975.43.975.957v2.558a.987.987 0 0 1-.975.974Z" fill="#FDDC3D"/><path fill-rule="evenodd" clip-rule="evenodd" d="M74.025 29.244v7.575c0 4.456 10.971 8.054 24.487 8.054 13.516 0 24.488-3.598 24.488-8.054v-7.575H74.025Z" fill="#F7A821"/><path fill-rule="evenodd" clip-rule="evenodd" d="M123 29.74c0 4.456-10.972 8.054-24.488 8.054s-24.487-3.598-24.487-8.054c0-4.44 10.971-8.037 24.487-8.037 13.516 0 24.488 3.598 24.488 8.037Z" fill="#F7A821"/><path fill-rule="evenodd" clip-rule="evenodd" d="M98.512 37.794c-13.516 0-24.487-3.598-24.487-8.054 0-4.44 10.971-8.037 24.487-8.037v.908c-6.229 0-11.88.759-15.994 1.98-2.066.61-3.735 1.337-4.94 2.179-.612.412-1.091.874-1.422 1.37-.347.495-.545 1.04-.545 1.6 0 .578.198 1.123.545 1.618.595.874 1.62 1.6 2.974 2.277 2.016.99 4.825 1.783 8.146 2.36 3.305.561 7.155.892 11.236.892v.907Zm-.016-1.881c-6.147 0-11.715-.743-15.697-1.931-2-.578-3.603-1.288-4.677-2.047-.528-.363-.925-.742-1.19-1.122-.247-.363-.363-.71-.363-1.073 0-.346.116-.693.364-1.056.446-.66 1.338-1.337 2.61-1.947 1.9-.941 4.627-1.733 7.882-2.278 3.255-.56 7.056-.875 11.087-.875v1.502h-5.915v10.216h5.915v.61h-.016ZM123 29.773v-.05.05Zm-.05-.528c-.776-4.027-10.558-7.261-22.818-7.525 12.26.264 22.058 3.498 22.818 7.525Zm-22.818-7.525h-.033.033Zm-.033 0h-.034.034Zm-.034 0h-.033.033Zm-.033 0h-.033.033Zm-.05 0h-.032.033Zm-.032 0h-.033.033Zm-.05 0h-.016.016Zm-.033 0h-.033.033Zm-.033 0h-.033.033Zm-.05 0h-.016.017Zm-.033 0h-.066.066Zm-.066 0h-.066.066Zm-.082 0h-.132.132Zm-.149 0h-.066.066Zm-.066 0h-.033.033Zm-.05 0c0-.017 0-.017-.016-.017.016 0 .016 0 .016.017Zm-.033-.017h-.016.016Zm-.033 0h-.033.033Zm-.05 0h-.016.017Zm-.032 0h-.017.017Zm-.033 0h-.017.017Zm-.05 0h-.016.016Zm-.033 0h-.016.016Zm-.033 0h-.016.016Zm-.05 0h-.016.016Zm-.033 0h-.016.016Zm-.033 0h-.033.033Zm-.05 0h-.016.017Zm-.032 0h-.017.017Zm-.033 0h-.033.033Zm-.05 0h-.016.016Zm-.033 0h-.017.017Zm-.05 0h-.016.016Zm-.033 0h-.016.016Z" fill="#FECB31"/><path fill-rule="evenodd" clip-rule="evenodd" d="M98.512 35.302h-5.915V25.086h5.915v10.216Z" fill="#FECB31"/><path fill-rule="evenodd" clip-rule="evenodd" d="M120.934 29.74h-.479c0 .363-.115.71-.38 1.073-.429.643-1.322 1.336-2.594 1.947-1.9.94-4.627 1.733-7.882 2.278-3.255.56-7.055.874-11.087.874-6.147 0-11.715-.742-15.713-1.93-2-.578-3.603-1.288-4.677-2.047-.528-.363-.925-.743-1.19-1.122-.247-.363-.363-.71-.363-1.073 0-.347.116-.693.364-1.056.446-.66 1.338-1.337 2.61-1.948 1.9-.94 4.627-1.733 7.882-2.277 3.255-.561 7.056-.875 11.087-.875 6.147 0 11.732.743 15.714 1.915 1.999.594 3.602 1.303 4.676 2.046.529.38.925.76 1.173 1.139.265.363.38.71.38 1.056h.959c0-.561-.199-1.106-.529-1.6-.612-.876-1.636-1.602-2.991-2.278-2.016-.99-4.825-1.783-8.146-2.36-3.305-.562-7.155-.892-11.236-.892-6.23 0-11.88.76-15.994 1.98-2.066.611-3.735 1.338-4.94 2.18-.612.412-1.091.874-1.422 1.37-.347.494-.545 1.039-.545 1.6 0 .578.198 1.122.545 1.617.595.875 1.62 1.601 2.974 2.278 2.016.99 4.825 1.782 8.146 2.36 3.305.56 7.155.891 11.236.891 6.23-.017 11.88-.76 15.995-1.98 2.065-.611 3.734-1.337 4.94-2.179.612-.412 1.091-.875 1.438-1.37.33-.495.529-1.04.529-1.617h-.48Z" fill="#F7A821"/><path fill-rule="evenodd" clip-rule="evenodd" d="M77.792 39.493a.958.958 0 0 1-.959-.957V35.96a.958.958 0 0 1 1.917 0v2.575c0 .528-.43.957-.958.957Z" fill="#F1891D"/><path fill-rule="evenodd" clip-rule="evenodd" d="M103.585 30.598c-.611-.33-1.702-.643-3.288-.94l-.959-.182v-2.212c1.289.05 2.595.198 3.9.446l.909-1.122a27.726 27.726 0 0 0-4.809-.495v-1.007h-1.652v1.023c-1.537.083-2.743.297-3.635.66-.892.363-1.355.826-1.355 1.387 0 .528.314.973.942 1.32.644.363 1.636.677 2.99.924l1.058.182v2.294c-.777 0-1.62-.066-2.578-.182a23.778 23.778 0 0 1-2.511-.429v1.287c1.322.28 3.024.446 5.09.462v1.288h1.651v-1.32c1.669-.1 2.942-.33 3.817-.727.893-.363 1.322-.858 1.322-1.452 0-.462-.297-.875-.892-1.205Zm-4.247 2.228V30.88c.794.148 1.355.28 1.686.445.347.149.512.33.512.578 0 .512-.727.809-2.198.924Zm-3.189-5.248c.364-.148.876-.248 1.537-.297v1.898c-.777-.149-1.305-.297-1.62-.462-.28-.149-.429-.347-.429-.578 0-.214.182-.412.512-.561Z" fill="#F8F8F9"/><path fill-rule="evenodd" clip-rule="evenodd" d="M100 21.72h-.017.017Zm-.083 0H99.9h.017Zm-.033 0h-.017.017Zm-.083 0h-.016.016Zm-.033 0h-.016.016Zm-.148 0h-.017.017Zm-.15 0h-.016.017Zm-.115 0h-.016.016Zm-.033-.017h-.016.016Zm-.033 0h-.017.017Zm-.05 0h-.016.017Zm-.033 0h-.016.016Zm-.033 0h-.016.016Zm-.033 0h-.033.033Zm-.05 0h-.016.017Zm-.032 0h-.017.017Zm-.033 0h-.033.033Zm-.05 0h-.016.016Zm-.033 0h-.016.016Zm-.05 0h-.016.016Z" fill="#BCD470"/><path fill-rule="evenodd" clip-rule="evenodd" d="M98.513 44.873v-7.08c13.499 0 24.437-3.598 24.487-8.02v7.046c0 1.65-1.504 3.169-4.065 4.44-.545.264-1.123.528-1.751.775-4.495 1.733-11.186 2.84-18.671 2.84Zm14.523-7.625a.962.962 0 0 0-.974.958v2.574c0 .528.429.957.974.957.529 0 .959-.429.959-.957v-2.574a.959.959 0 0 0-.959-.958Zm3.123-.957a.959.959 0 0 0-.958.957v2.575a.959.959 0 0 0 1.917 0v-2.575a.959.959 0 0 0-.959-.957Zm3.123-1.287a.959.959 0 0 0-.958.957v2.575c0 .528.43.957.958.957.546 0 .975-.43.975-.957V35.96a.962.962 0 0 0-.975-.957ZM123 29.723c0-.165-.016-.33-.05-.479h.05v.479Z" fill="#FBBB25"/><path fill-rule="evenodd" clip-rule="evenodd" d="M98.513 37.794v-.907c6.229-.017 11.88-.76 15.994-1.981 2.065-.61 3.734-1.337 4.941-2.178.611-.413 1.09-.875 1.437-1.37.331-.495.529-1.04.529-1.618 0-.56-.198-1.105-.529-1.6-.611-.875-1.636-1.601-2.991-2.278-2.016-.99-4.824-1.782-8.146-2.36-3.304-.561-7.154-.891-11.236-.891v-.908H99.323c.017 0 .017 0 .017.017H100.132c12.26.264 22.042 3.498 22.802 7.525h.016c.034.149.05.314.05.479v.05c-.05 4.422-10.988 8.02-24.487 8.02Zm0-1.881v-.61h5.981V25.085h-5.981v-1.502h.016c6.147 0 11.715.743 15.697 1.915 1.999.594 3.602 1.304 4.676 2.046.529.38.926.76 1.173 1.14.265.362.38.709.38 1.055 0 .364-.115.71-.38 1.073-.429.644-1.321 1.337-2.594 1.948-1.9.94-4.626 1.732-7.881 2.277-3.255.561-7.056.875-11.087.875Z" fill="#FFD63D"/><path fill-rule="evenodd" clip-rule="evenodd" d="M98.513 36.886v-.974c4.031 0 7.832-.313 11.087-.874 3.255-.545 5.981-1.337 7.881-2.278 1.273-.61 2.165-1.304 2.594-1.947.265-.363.38-.71.38-1.073 0-.347-.115-.693-.38-1.056-.247-.38-.644-.76-1.173-1.14-1.074-.742-2.677-1.451-4.676-2.046-3.982-1.171-9.55-1.914-15.697-1.914h-.016v-.974c4.081 0 7.931.33 11.235.892 3.322.577 6.13 1.37 8.146 2.36 1.355.66 2.38 1.402 2.991 2.277.331.495.529 1.04.529 1.6 0 .578-.198 1.123-.529 1.618-.347.495-.826.958-1.437 1.37-1.207.842-2.876 1.568-4.941 2.179-4.114 1.22-9.765 1.98-15.995 1.98Z" fill="#FBBB25"/><path fill-rule="evenodd" clip-rule="evenodd" d="M119.282 39.493a.959.959 0 0 1-.958-.957V35.96c0-.528.43-.957.958-.957.546 0 .975.429.975.957v2.575a.962.962 0 0 1-.975.957ZM116.159 40.781a.958.958 0 0 1-.958-.957v-2.575a.958.958 0 0 1 1.916 0v2.575a.958.958 0 0 1-.958.957ZM113.036 41.738a.962.962 0 0 1-.974-.957v-2.575c0-.528.429-.957.974-.957.529 0 .959.43.959.957v2.575c0 .528-.43.957-.959.957Z" fill="#FDDC3D"/><path fill-rule="evenodd" clip-rule="evenodd" d="M98.513 25.086h5.981v10.216h-5.981V25.086Z" fill="#FFD63D"/><path fill-rule="evenodd" clip-rule="evenodd" d="M103.585 30.598c-.611-.33-1.702-.643-3.288-.94l-.958-.182v-2.212c1.288.05 2.594.198 3.899.446l.909-1.122a27.726 27.726 0 0 0-4.808-.495v-1.007h-.826v10.216h.826v-1.32c1.668-.1 2.941-.33 3.817-.727.892-.363 1.321-.858 1.321-1.452 0-.462-.297-.875-.892-1.205Zm-4.246 2.228V30.88c.793.148 1.355.28 1.685.445.347.149.512.33.512.578 0 .512-.727.809-2.197.924Z" fill="#FAFBFB"/></svg>