<svg width="224" height="132" viewBox="0 0 224 132" fill="none" xmlns="http://www.w3.org/2000/svg">
<path d="M175.957 11.3379H0V116.296H175.957V11.3379Z" fill="#F2F2F2"/>
<path d="M187.055 1.1123H11.0981V106.07H187.055V1.1123Z" stroke="#3F3D56" stroke-opacity="0.38" stroke-width="2" stroke-miterlimit="10"/>
<path d="M25.0215 84.2681H17.7572V91.2138H25.0215V84.2681Z" fill="#45CCD4"/>
<path d="M35.5143 84.2681H28.25V91.2138H35.5143V84.2681Z" fill="#1A6C71"/>
<path d="M46.0072 84.2681H38.7429V91.2138H46.0072V84.2681Z" fill="#1299A1"/>
<path d="M173.132 85.8115H143.268V86.9691H173.132V85.8115Z" fill="#FFCF23"/>
<path d="M173.132 89.2844H143.268V90.442H173.132V89.2844Z" fill="#FFCF23"/>
<path d="M173.132 92.7571H143.268V93.9147H173.132V92.7571Z" fill="#FFCF23"/>
<path d="M95.6465 23.3V31.7893C100.915 31.7893 106.064 33.2829 110.445 36.0813C114.825 38.8798 118.239 42.8573 120.255 47.5109C122.271 52.1645 122.798 57.2852 121.77 62.2254C120.743 67.1657 118.206 71.7036 114.481 75.2653L120.759 81.2681C125.726 76.5191 129.108 70.4686 130.478 63.8816C131.849 57.2946 131.145 50.467 128.457 44.2622C125.769 38.0574 121.217 32.754 115.377 29.0228C109.537 25.2916 102.671 23.3 95.6465 23.3V23.3Z" fill="#1A6C71"/>
<path d="M120.759 81.2679L114.481 75.2651C109.927 79.6202 103.877 82.2495 97.4506 82.6661C91.0246 83.0827 84.6584 81.2583 79.5315 77.5308L74.1576 84.2916C80.9947 89.2602 89.4832 91.6917 98.0513 91.1357C106.619 90.5798 114.686 87.0741 120.759 81.2679Z" fill="#45CCD5"/>
<path d="M69.0109 57.2569C69.0109 50.5025 71.8172 44.0247 76.8123 39.2486C81.8075 34.4725 88.5824 31.7893 95.6466 31.7893V23.3C88.2121 23.3 80.965 25.5308 74.9269 29.678C68.8888 33.8251 64.3641 39.6796 61.9907 46.4161C59.6173 53.1526 59.5148 60.4315 61.6976 67.2266C63.8805 74.0218 68.2386 79.9907 74.1578 84.2918L79.5316 77.531C76.2596 75.158 73.6069 72.0926 71.7816 68.5751C69.9563 65.0576 69.0079 61.1836 69.0109 57.2569V57.2569Z" fill="#1299A1"/>
<path d="M134.729 46.1432L134.163 45.7817L176.806 15.103H211.517V15.63H177.142L134.729 46.1432Z" fill="#3F3D56" fill-opacity="0.38"/>
<path d="M223.818 19.1323H194.788V20.0737H223.818V19.1323Z" fill="#1299A1"/>
<path d="M223.818 23.1335H194.788V24.075H223.818V23.1335Z" fill="#1299A1"/>
<path d="M223.818 27.1345H194.788V28.0759H223.818V27.1345Z" fill="#1299A1"/>
<path d="M190.26 122.3H161.23V123.242H190.26V122.3Z" fill="#1299A1"/>
<path d="M190.26 126.302H161.23V127.243H190.26V126.302Z" fill="#1299A1"/>
<path d="M190.26 130.302H161.23V131.244H190.26V130.302Z" fill="#1299A1"/>
<path d="M177.867 117.577H148.805L148.723 117.463L126.14 86.1106L126.594 85.8115L149.094 117.05H177.867V117.577Z" fill="#3F3D56" fill-opacity="0.38"/>
<path d="M89.876 60.5306L90.903 61.2326C90.0884 62.3419 88.9184 62.8966 87.393 62.8966C85.9804 62.8966 84.819 62.4416 83.909 61.5316C82.999 60.6216 82.544 59.4603 82.544 58.0476C82.544 56.6263 83.0077 55.4693 83.935 54.5766C84.8624 53.6753 86.0324 53.2246 87.445 53.2246C88.1037 53.2246 88.7364 53.3503 89.343 53.6016C89.9497 53.8529 90.4177 54.2039 90.747 54.6546L89.733 55.4346C89.5077 55.1139 89.187 54.8539 88.771 54.6546C88.355 54.4553 87.913 54.3556 87.445 54.3556C86.405 54.3556 85.56 54.7109 84.91 55.4216C84.2687 56.1323 83.948 57.0076 83.948 58.0476C83.948 59.1049 84.2644 59.9889 84.897 60.6996C85.5297 61.4016 86.366 61.7526 87.406 61.7526C88.4894 61.7526 89.3127 61.3453 89.876 60.5306ZM93.5031 58.5676V62.6626H92.2161V53.4586H95.1671C96.1378 53.4586 96.9265 53.6623 97.5331 54.0696C98.1398 54.4769 98.4431 55.1226 98.4431 56.0066C98.4431 56.6653 98.2395 57.2069 97.8321 57.6316C97.4248 58.0563 96.8831 58.3249 96.2071 58.4376L98.7811 62.6626H97.2211L94.8811 58.5676H93.5031ZM93.5031 54.5506V57.4886H94.9851C96.4238 57.4886 97.1431 56.9946 97.1431 56.0066C97.1431 55.0359 96.4541 54.5506 95.0761 54.5506H93.5031ZM102.203 53.4586L104.959 60.5306H104.985L107.702 53.4586H109.704V62.6626H108.417V54.9666H108.391L105.336 62.6626H104.517L101.475 54.9666H101.449V62.6626H100.201V53.4586H102.203Z" fill="#FFCF23"/>
</svg>
