<svg width="373" height="314" fill="none" xmlns="http://www.w3.org/2000/svg"><g clip-path="url(#a)"><path opacity=".5" d="M372.684 27.654 373 254.588c0 2.27-.899 4.448-2.5 6.053a8.52 8.52 0 0 1-6.034 2.507l-355.633.475a8.523 8.523 0 0 1-6.035-2.507 8.573 8.573 0 0 1-2.5-6.053l-.31-226.934a8.583 8.583 0 0 1 2.499-6.053 8.533 8.533 0 0 1 6.035-2.508l355.632-.475a8.521 8.521 0 0 1 6.032 2.51 8.571 8.571 0 0 1 2.498 6.05Z" fill="#CFCFCF"/><path d="m29.113 246.539 316.335-.443-.293-210.752-316.336.444.294 210.751Z" fill="url(#b)"/><path d="m11.43 256.219 348.971-.488c2.988-.004 5.407-2.438 5.403-5.435l-.304-218.34c-.004-2.997-2.43-5.424-5.418-5.42l-348.971.49c-2.989.003-5.408 2.437-5.404 5.434l.304 218.34c.005 2.997 2.43 5.424 5.419 5.419Z" fill="#fff"/><path opacity=".2" d="M33.706 42.292V240.22H335.48l-.001-197.928H33.706Z" fill="#CACACA"/><path d="M350.397 131.921c-4.601 0-8.33 3.652-8.33 8.158 0 4.505 3.729 8.158 8.33 8.158 4.6 0 8.329-3.653 8.329-8.158 0-4.506-3.729-8.158-8.329-8.158ZM20.585 172.137c-1.534 0-2.778 1.216-2.778 2.717 0 1.501 1.244 2.718 2.778 2.718s2.778-1.217 2.778-2.718-1.244-2.717-2.778-2.717ZM18.605 126.826l.048 34.694c0 .18.146.325.325.325l2.13-.003c.178 0 .323-.146.323-.326l-.048-34.694a.325.325 0 0 0-.325-.325l-2.13.003a.325.325 0 0 0-.323.326Z" fill="#DBDBDB"/><path d="M125.451 169.795H63v-38.406h71.088v26.921" fill="#F2F2F2"/><path d="M128.85 166.971H66.116V128h71.654v27.204h-.567v-26.639H66.682v37.842h62.168v.564ZM154.438 167.113h-16.952v-.565h14.769l-14.765-8.195.276-.493 16.672 9.253Z" fill="#000"/><path d="M129.556 141.555H74.329v.565h55.227v-.565ZM129.556 147.203H74.329v.565h55.227v-.565ZM129.556 152.851H74.329v.565h55.227v-.565Z" fill="#000"/><path d="M153.342 169.047a2.321 2.321 0 0 0 2.325-2.318c0-1.28-1.04-2.318-2.325-2.318a2.32 2.32 0 0 0-2.324 2.318 2.32 2.32 0 0 0 2.324 2.318Z" fill="#1299A2"/><path d="M244.225 109.795h62.451V71.389h-71.088V98.31" fill="#F2F2F2"/><path d="M303.56 101.971h-62.734v-.564h62.168V63.565h-70.521v26.639h-.567V63h71.654v38.971ZM232.189 102.113h-16.951l16.672-9.253.275.493-14.765 8.195h14.769v.565Z" fill="#000"/><path d="M295.347 76.555H240.12v.565h55.227v-.565ZM295.347 82.203H240.12v.565h55.227v-.565ZM295.347 87.851H240.12v.565h55.227v-.565Z" fill="#000"/><path d="M216.325 104.047a2.322 2.322 0 0 0 2.325-2.318 2.322 2.322 0 0 0-2.325-2.318 2.322 2.322 0 0 0-2.325 2.318 2.322 2.322 0 0 0 2.325 2.318Z" fill="#1299A2"/><path d="M241.225 220.795h62.451v-38.406h-71.088v26.921" fill="#F2F2F2"/><path d="M300.56 217.971h-62.734v-.564h62.168v-37.842h-70.521v26.639h-.567V179h71.654v38.971ZM229.189 218.113h-16.951l16.672-9.253.275.493-14.765 8.195h14.769v.565Z" fill="#000"/><path d="M292.347 192.555H237.12v.565h55.227v-.565ZM292.347 198.203H237.12v.565h55.227v-.565ZM292.347 203.851H237.12v.565h55.227v-.565Z" fill="#000"/><path d="M213.325 220.047a2.322 2.322 0 0 0 2.325-2.318 2.322 2.322 0 0 0-2.325-2.318 2.322 2.322 0 0 0-2.325 2.318 2.322 2.322 0 0 0 2.325 2.318Z" fill="#1299A2"/></g><defs><linearGradient id="b" x1="346.958" y1="140.713" x2="29.175" y2="141.156" gradientUnits="userSpaceOnUse"><stop stop-opacity=".09"/><stop offset=".55" stop-opacity=".07"/><stop offset="1" stop-opacity=".02"/></linearGradient><clipPath id="a"><path fill="#fff" transform="rotate(180 186.5 157)" d="M0 0h373v314H0z"/></clipPath></defs></svg>