<!-- Generated by IcoMoon.io -->
<svg version="1.1" xmlns="http://www.w3.org/2000/svg" width="1568" height="1024" viewBox="0 0 1568 1024">
<title></title>
<g id="icomoon-ignore">
</g>
<path fill="#f2f2f2" d="M935.706 247.86h-890.71c-22.074 0-39.966 17.16-39.966 38.33v575.312c0 21.171 17.893 38.33 39.966 38.33h890.71c22.074 0 39.966-17.16 39.966-38.33v-575.306c0-21.177-17.893-38.336-39.966-38.336z"></path>
<path fill="#fff" d="M826.441 385.737h-637.631c-9.18 0-16.62 7.138-16.62 15.936v21.565c0 8.804 7.441 15.936 16.62 15.936h637.631c9.18 0 16.62-7.132 16.62-15.936v-21.559c0-8.804-7.441-15.942-16.62-15.942z"></path>
<path fill="#1299a2" d="M68.554 262.287c7.38 0 13.373-5.738 13.373-12.821 0-7.089-5.993-12.827-13.373-12.827-7.392 0-13.373 5.744-13.373 12.827s5.986 12.821 13.373 12.821zM106.442 262.827c7.386 0 13.373-5.744 13.373-12.827 0-7.089-5.986-12.827-13.373-12.827-7.392 0-13.373 5.744-13.373 12.827s5.986 12.827 13.373 12.827zM144.33 263.354c7.386 0 13.373-5.738 13.373-12.821s-5.986-12.827-13.373-12.827c-7.386 0-13.373 5.744-13.373 12.827 0 7.089 5.986 12.827 13.373 12.827z"></path>
<path fill="#1299a2" d="M311.49 398.564h-100.297c-5.538 0-10.028 4.302-10.028 9.616s4.49 9.622 10.028 9.622h100.297c5.538 0 10.028-4.302 10.028-9.622 0-5.314-4.484-9.616-10.028-9.616z"></path>
<path fill="#1299a2" d="M268.028 512.925h-100.297c-5.538 0-10.028 4.302-10.028 9.622 0 5.308 4.49 9.616 10.028 9.616h100.297c5.538 0 10.028-4.302 10.028-9.616s-4.484-9.622-10.028-9.622z"></path>
<path fill="#fff" d="M268.028 573.85h-100.297c-5.538 0-10.028 4.302-10.028 9.616s4.49 9.622 10.028 9.622h100.297c5.538 0 10.028-4.308 10.028-9.622s-4.484-9.616-10.028-9.616zM268.028 634.769h-100.297c-5.538 0-10.028 4.308-10.028 9.622 0 5.308 4.49 9.616 10.028 9.616h100.297c5.538 0 10.028-4.308 10.028-9.616 0-5.314-4.484-9.622-10.028-9.622zM268.028 695.688h-100.297c-5.538 0-10.028 4.308-10.028 9.622s4.49 9.622 10.028 9.622h100.297c5.538 0 10.028-4.308 10.028-9.622s-4.484-9.622-10.028-9.622zM268.028 756.613h-100.297c-5.538 0-10.028 4.308-10.028 9.622 0 5.308 4.49 9.616 10.028 9.616h100.297c5.538 0 10.028-4.308 10.028-9.616 0-5.314-4.484-9.622-10.028-9.622z"></path>
<path fill="#ffcf23" d="M865.747 512.925h-52.060c-2.854 0-5.175 2.224-5.175 4.962v9.313c0 2.745 2.321 4.969 5.175 4.969h52.060c2.86 0 5.175-2.23 5.175-4.969v-9.313c0-2.739-2.315-4.962-5.175-4.962z"></path>
<path fill="#fff" d="M865.747 573.85h-52.060c-2.854 0-5.175 2.218-5.175 4.956v9.319c0 2.739 2.321 4.962 5.175 4.962h52.060c2.86 0 5.175-2.224 5.175-4.962v-9.319c0-2.739-2.315-4.956-5.175-4.956zM865.747 634.769h-52.060c-2.854 0-5.175 2.224-5.175 4.962v9.313c0 2.739 2.321 4.962 5.175 4.962h52.060c2.86 0 5.175-2.224 5.175-4.962v-9.313c0-2.739-2.315-4.962-5.175-4.962zM865.747 695.688h-52.060c-2.854 0-5.175 2.224-5.175 4.962v9.319c0 2.739 2.321 4.962 5.175 4.962h52.060c2.86 0 5.175-2.224 5.175-4.962v-9.319c0-2.739-2.315-4.962-5.175-4.962zM865.747 756.613h-52.060c-2.854 0-5.175 2.224-5.175 4.962v9.313c0 2.739 2.321 4.962 5.175 4.962h52.060c2.86 0 5.175-2.224 5.175-4.962v-9.313c0-2.739-2.315-4.962-5.175-4.962z"></path>
<path fill="#000" opacity="0.7" d="M768.104 592.094h-196.305c-16.517 0-29.902 12.773-29.902 28.527v159.526c0 15.754 13.385 28.527 29.902 28.527h196.305c16.511 0 29.902-12.773 29.902-28.527v-159.526c0-15.754-13.391-28.527-29.902-28.527z"></path>
<path fill="#e0e0e0" d="M763.353 596.105h-186.822c-16.511 0-29.902 12.773-29.902 28.527v151.504c0 15.754 13.391 28.527 29.902 28.527h186.822c16.511 0 29.902-12.773 29.902-28.527v-151.504c0-15.754-13.391-28.527-29.902-28.527z"></path>
<path fill="#1299a2" d="M622.902 789.865v-15.657c0-0.008 0-0.018 0-0.028 0-0.715-0.483-1.316-1.141-1.496l-0.011-0.003c-0.141-0.040-0.303-0.063-0.471-0.063-0.080 0-0.158 0.005-0.235 0.015l0.009-0.001c-2.453 0.044-4.773 0.565-6.886 1.475l0.118-0.045v15.76h-4.623v-28.981h4.605v9.573c2.196-0.844 4.735-1.365 7.386-1.435l0.030-0.001c4.205 0 5.756 2.46 5.756 5.829v15.045h-4.569l0.030 0.012zM636.086 780.401c0.158 5.241 1.236 6.271 4.611 6.271 2.733-0.121 5.429-0.691 7.962-1.684l0.77 3.302c-2.645 1.257-5.74 2.019-9.005 2.084h-0.023c-7.689 0-8.883-4.011-8.883-10.458-0.008-0.274-0.013-0.596-0.013-0.92 0-3.102 0.425-6.105 1.22-8.954l-0.056 0.234c2.538-0.852 5.461-1.344 8.499-1.344 0.269 0 0.537 0.004 0.805 0.012l-0.039-0.001c6.302 0 8.222 3.339 8.222 9.168v2.236h-14.015l-0.055 0.055zM641.933 772.657c-0.162-0.003-0.353-0.005-0.544-0.005-1.709 0-3.387 0.134-5.024 0.392l0.181-0.024c-0.291 1.29-0.473 2.781-0.503 4.31v0.022h9.616c0-3.048-0.576-4.696-3.726-4.696zM658.748 774.087v15.766h-4.611v-17.741c3.113-1.579 6.757-2.597 10.614-2.82l0.074-0.003v3.666c-2.194 0.075-4.269 0.484-6.208 1.178l0.143-0.045h-0.012zM676.961 790.374c-6.877 0-9.992-3.223-9.992-10.604 0-7.81 4.108-10.773 9.992-10.773 6.883 0 9.992 3.217 9.992 10.597 0 7.81-4.12 10.779-9.992 10.779zM676.961 772.657c-3.532 0-5.49 1.939-5.49 7.113 0 5.641 1.648 6.901 5.49 6.901 3.532 0 5.496-1.915 5.496-7.077 0-5.641-1.654-6.926-5.496-6.926v-0.012zM709.19 789.853h-5.423c-1.373-3.624-3.325-6.735-5.773-9.38l0.017 0.019h-2.424v9.361h-4.514v-29.011h4.611v16.645h2.157c2.221-2.259 4.045-4.916 5.355-7.853l0.068-0.17h5.187c-1.786 3.418-3.979 6.346-6.567 8.87l-0.007 0.007c2.902 3.557 5.387 7.404 7.41 11.47l-0.097 0.042zM717.837 790.362c-4.205 0-5.756-2.46-5.756-5.829v-15.015h4.569v15.584c0 0.014-0.001 0.031-0.001 0.048 0 0.221 0.047 0.432 0.132 0.622l-0.004-0.010c0.202 0.42 0.568 0.734 1.013 0.864l0.011 0.003c0.143 0.044 0.307 0.069 0.477 0.069 0.078 0 0.154-0.005 0.229-0.015l-0.009 0.001c2.412-0.042 4.787-0.527 7.004-1.43v-15.736h4.666v17.675c-3.527 1.99-7.741 3.167-12.229 3.181h-0.004l-0.097-0.012zM715.807 753.45h-91.881c-1.872 0-3.726-0.345-5.453-1.030-1.794-0.712-3.332-1.706-4.635-2.945l0.006 0.006c-1.285-1.223-2.329-2.686-3.062-4.318l-0.035-0.087c-0.684-1.531-1.083-3.318-1.085-5.198v0-115.312c0-1.781 0.364-3.551 1.079-5.199s1.769-3.145 3.090-4.405c1.321-1.26 2.89-2.26 4.617-2.945 1.727-0.679 3.581-1.030 5.447-1.030h91.966c1.872-0.012 3.732 0.339 5.465 1.018 1.739 0.679 3.314 1.678 4.641 2.939 1.333 1.26 2.387 2.763 3.108 4.411 0.721 1.654 1.091 3.423 1.091 5.211v115.312c0 1.787-0.37 3.551-1.085 5.199-0.715 1.654-1.763 3.151-3.090 4.411-1.296 1.234-2.831 2.23-4.527 2.911l-0.096 0.034c-1.727 0.679-3.581 1.030-5.453 1.030l-0.109-0.012z"></path>
<path fill="#fff" d="M685.172 733.86v-56.581s3.854-13.542-47.516 5.538c-0.097 0.242-0.097-52.327-0.097-52.327l16.814-0.097v33.677s47.001-17.656 47.001 13.373v56.393h-16.202v0.024zM694.745 650.771h-17.826c6.405-7.471 12.209-20.28 12.209-20.28h18.408s-3.151 8.343-12.821 20.28h0.030zM637.868 733.751v-32.217l16.887 16.111-16.887 16.105z"></path>
<path fill="#000" opacity="0.7" d="M1533.068 487.816h-196.305c-16.517 0-29.902 12.773-29.902 28.527v159.52c0 15.76 13.385 28.533 29.902 28.533h196.305c16.511 0 29.902-12.773 29.902-28.533v-159.52c0-15.754-13.391-28.533-29.902-28.533z"></path>
<path fill="#e0e0e0" d="M1528.318 491.821h-186.816c-16.517 0-29.908 12.773-29.908 28.533v151.497c0 15.76 13.391 28.533 29.908 28.533h186.816c16.511 0 29.902-12.773 29.902-28.533v-151.497c0-15.754-13.391-28.533-29.902-28.533z"></path>
<path fill="#252f3e" d="M1390.877 580.357c-0.048 1.921 0.2 3.842 0.745 5.69 0.594 1.588 1.309 3.133 2.145 4.617 0.287 0.41 0.462 0.917 0.473 1.464v0.003c-0.042 0.417-0.183 0.795-0.399 1.118l0.006-0.009c-0.229 0.337-0.523 0.611-0.866 0.811l-0.013 0.007-4.205 2.672c-0.491 0.34-1.094 0.551-1.745 0.575h-0.006c-0.79-0.047-1.495-0.381-2.018-0.897v0c-0.874-0.896-1.668-1.879-2.365-2.931l-0.046-0.074c-0.69-1.060-1.381-2.299-1.989-3.585l-0.083-0.196c-2.363 2.805-5.374 5.065-8.792 6.598-3.094 1.415-6.711 2.239-10.521 2.239-0.146 0-0.292-0.001-0.438-0.004h0.022c-5.605 0-10.131-1.539-13.427-4.611-3.071-3.165-4.965-7.488-4.965-12.253 0-0.251 0.005-0.501 0.016-0.749l-0.001 0.036c0.252-5.010 2.55-9.438 6.068-12.5l0.021-0.018c4.090-3.333 9.525-4.999 16.432-4.999 2.387 0.018 4.763 0.182 7.12 0.509 2.484 0.321 5.029 0.83 7.719 1.406v-4.684c0-4.866-1.079-8.259-3.151-10.24-2.072-1.975-5.774-2.939-10.943-2.939-2.442 0-4.872 0.279-7.247 0.83-2.857 0.656-5.276 1.405-7.618 2.31l0.378-0.128c-0.77 0.321-1.551 0.6-2.357 0.824-0.319 0.103-0.688 0.17-1.069 0.188h-0.009c-0.939 0-1.4-0.642-1.4-1.981v-3.139c-0.010-0.107-0.016-0.231-0.016-0.357 0-0.692 0.181-1.342 0.499-1.905l-0.010 0.019c0.506-0.575 1.134-1.030 1.845-1.327l0.033-0.012c2.406-1.173 5.212-2.167 8.142-2.838l0.268-0.052c3.026-0.771 6.499-1.214 10.076-1.214 0.136 0 0.273 0.001 0.409 0.002h-0.021c7.992 0 13.833 1.721 17.59 5.181 3.757 3.466 5.605 8.707 5.605 15.754v20.789h0.109zM1363.641 590.088c2.478-0.025 4.85-0.445 7.067-1.198l-0.159 0.047c2.526-0.844 4.671-2.256 6.365-4.092l0.009-0.010c1.043-1.129 1.833-2.509 2.267-4.038l0.017-0.070c0.46-1.824 0.691-3.696 0.673-5.574v-2.672c-1.66-0.41-3.76-0.79-5.895-1.056l-0.285-0.029c-1.89-0.243-4.080-0.384-6.303-0.388h-0.005c-4.496 0-7.786 0.83-10.004 2.569-1.638 1.136-2.872 2.752-3.508 4.643l-0.019 0.065c-0.612 1.89-0.557 3.926 0.145 5.787 0.703 1.866 2.018 3.46 3.757 4.544 1.733 1.091 3.787 1.612 5.859 1.484l0.018-0.012zM1417.532 597.002c-0.114 0.012-0.246 0.019-0.38 0.019-0.81 0-1.561-0.247-2.185-0.67l0.014 0.009c-0.672-0.667-1.162-1.516-1.392-2.467l-0.007-0.036-15.766-49.467c-0.284-0.746-0.496-1.614-0.596-2.515l-0.004-0.048c-0.012-0.067-0.019-0.144-0.019-0.222 0-0.377 0.158-0.718 0.412-0.959l0.001-0.001c0.275-0.267 0.65-0.432 1.064-0.432 0.054 0 0.108 0.003 0.16 0.008l-0.007-0.001h6.568c0.136-0.017 0.294-0.027 0.454-0.027 0.81 0 1.562 0.25 2.183 0.678l-0.013-0.008c0.672 0.665 1.163 1.512 1.392 2.461l0.007 0.035 11.209 42.396 10.47-42.396c0.149-0.986 0.608-1.846 1.272-2.496l0.001-0.001c0.69-0.409 1.521-0.651 2.408-0.651 0.099 0 0.198 0.003 0.296 0.009l-0.013-0.001h5.368c0.128-0.014 0.277-0.022 0.427-0.022 0.841 0 1.623 0.248 2.279 0.674l-0.016-0.010c0.703 0.673 1.151 1.551 1.272 2.496l10.61 42.905 11.615-42.899c0.249-0.984 0.74-1.83 1.406-2.503v0c0.666-0.409 1.473-0.651 2.337-0.651 0.099 0 0.197 0.003 0.294 0.009l-0.013-0.001h6.235c0.061-0.009 0.132-0.013 0.204-0.013 0.408 0 0.78 0.157 1.058 0.414l-0.001-0.001c0.27 0.255 0.437 0.615 0.437 1.014 0 0.068-0.005 0.134-0.014 0.199l0.001-0.007c-0.075 0.967-0.295 1.863-0.639 2.694l0.021-0.058-16.172 49.461c-0.217 0.992-0.712 1.846-1.398 2.501l-0.002 0.002c-0.665 0.407-1.47 0.648-2.331 0.648-0.077 0-0.154-0.002-0.23-0.006h-5.763c-0.125 0.013-0.27 0.021-0.417 0.021-0.844 0-1.63-0.247-2.29-0.673l0.017 0.010c-0.674-0.672-1.134-1.557-1.27-2.546l-0.003-0.023-10.398-41.299-10.343 41.233c-0.172 1.005-0.627 1.883-1.281 2.571l0.002-0.002c-0.657 0.413-1.456 0.659-2.312 0.659-0.133 0-0.265-0.006-0.395-0.018l0.017 0.001h-5.841zM1503.766 598.723c-0.023 0-0.050 0-0.078 0-3.639 0-7.181-0.42-10.579-1.213l0.313 0.062c-2.91-0.574-5.494-1.46-7.905-2.645l0.186 0.082c-0.865-0.392-1.57-1.008-2.061-1.775l-0.011-0.019c-0.25-0.526-0.398-1.141-0.406-1.791v-3.263c0-1.339 0.533-1.975 1.539-1.975 0.412 0 0.818 0.061 1.206 0.182 0.406 0.133 1.012 0.388 1.684 0.642 2.369 1 4.841 1.751 7.38 2.248 2.63 0.509 5.308 0.763 7.992 0.763 0.324 0.020 0.703 0.031 1.085 0.031 3.188 0 6.19-0.794 8.82-2.195l-0.101 0.049c1.097-0.63 1.993-1.521 2.605-2.593 0.612-1.066 0.921-2.272 0.885-3.49 0.002-0.057 0.003-0.123 0.003-0.19 0-1.68-0.692-3.199-1.807-4.286l-0.001-0.001c-1.898-1.54-4.173-2.695-6.662-3.308l-0.118-0.025-9.798-2.884c-4.902-1.472-8.519-3.648-10.731-6.538-2.065-2.506-3.326-5.741-3.351-9.271v-0.005c-0.061-2.484 0.564-4.932 1.806-7.113 1.2-2.060 2.848-3.854 4.835-5.253 2.103-1.515 4.478-2.642 7.004-3.333 2.416-0.686 5.191-1.081 8.058-1.081 0.124 0 0.247 0.001 0.371 0.002h-0.019c0.077-0.001 0.168-0.001 0.259-0.001 1.493 0 2.965 0.093 4.409 0.273l-0.172-0.018c1.545 0.182 2.957 0.454 4.363 0.709 1.501 0.299 2.784 0.655 4.027 1.093l-0.204-0.063c0.976 0.285 1.915 0.667 2.799 1.151 0.805 0.387 1.479 0.928 2.009 1.588l0.009 0.011c0.382 0.537 0.611 1.206 0.611 1.929 0 0.065-0.002 0.13-0.006 0.194v-0.009 3.005c0 1.333-0.533 2.048-1.545 2.048-0.945-0.103-1.807-0.374-2.584-0.782l0.040 0.019c-3.664-1.584-7.931-2.506-12.414-2.506-0.169 0-0.337 0.001-0.506 0.004h0.025c-0.308-0.019-0.668-0.029-1.030-0.029-2.874 0-5.59 0.673-8 1.87l0.105-0.047c-1.019 0.58-1.84 1.403-2.401 2.392l-0.016 0.031c-0.473 0.834-0.751 1.831-0.751 2.894 0 0.133 0.004 0.265 0.013 0.396l-0.001-0.018c-0.018 0.848 0.158 1.697 0.503 2.478 0.345 0.788 0.866 1.484 1.515 2.066 2.181 1.648 4.696 2.848 7.386 3.514l9.531 2.89c4.835 1.472 8.325 3.514 10.398 6.15 2.048 2.575 3.133 5.738 3.084 8.974 0.030 2.569-0.57 5.12-1.757 7.429-1.242 2.25-2.887 4.128-4.856 5.596l-0.046 0.033c-2.119 1.582-4.606 2.814-7.298 3.551l-0.155 0.036c-2.796 0.847-6.010 1.334-9.338 1.334-0.091 0-0.183 0-0.274-0.001h0.123z"></path>
<path fill="#ffcf23" d="M1516.448 629.818c-22.086 15.566-54.157 23.825-81.738 23.825-36.846 0.182-72.431-12.767-99.795-36.307-2.078-1.794-0.2-4.229 2.284-2.824 25.049 14.002 54.643 23.009 86.155 24.906l0.57 0.027c3.689 0.235 7.999 0.369 12.34 0.369 27.727 0 54.178-5.459 78.338-15.362l-1.378 0.5c3.684-1.6 6.853 2.302 3.223 4.866z"></path>
<path fill="#ffcf23" d="M1525.639 619.863c-2.799-3.466-18.65-1.672-25.836-0.83-2.145 0.254-2.484-1.539-0.533-2.89 12.609-8.446 33.35-6.017 35.773-3.193 2.424 2.818-0.673 22.728-12.488 32.083-1.806 1.472-3.557 0.709-2.799-1.212 2.733-6.302 8.701-20.577 5.883-23.958z"></path>
<path fill="#000" opacity="0.7" d="M1380.328 124.168h-196.305c-16.517 0-29.902 12.773-29.902 28.527v159.526c0 15.754 13.385 28.527 29.902 28.527h196.305c16.517 0 29.902-12.773 29.902-28.527v-159.526c0-15.754-13.385-28.527-29.902-28.527z"></path>
<path fill="#e0e0e0" d="M1375.578 128.174h-186.816c-16.517 0-29.902 12.779-29.902 28.539v151.497c0 15.754 13.385 28.533 29.902 28.533h186.816c16.517 0 29.902-12.779 29.902-28.539v-151.491c0-15.754-13.385-28.527-29.902-28.527z"></path>
<path fill="#cac9c2" d="M1247.851 286.778l-33.156-54.811 33.156-54.817h66.293l33.156 54.817-33.156 54.811h-66.293z"></path>
<path fill="#fff" d="M1282.139 257.004c-0.014 0-0.031 0-0.047 0-5.308 0-10.254-1.547-14.414-4.215l0.107 0.064c-4.183-2.673-7.456-6.442-9.456-10.906l-0.063-0.158c-1.24-2.777-1.963-6.018-1.963-9.427 0-1.706 0.181-3.37 0.524-4.973l-0.028 0.155c0.994-4.787 3.454-9.174 7.071-12.627 3.547-3.365 8.051-5.754 13.063-6.718l0.164-0.026c1.514-0.301 3.254-0.474 5.034-0.474 3.562 0 6.964 0.69 10.077 1.944l-0.181-0.065c4.72 1.866 8.756 5.023 11.597 9.077 2.842 4.060 4.357 8.822 4.357 13.694-0.037 6.866-2.938 13.047-7.568 17.415l-0.012 0.011c-4.735 4.477-11.142 7.229-18.191 7.229-0.025 0-0.050 0-0.075 0h0.004z"></path>
<path fill="#5072aa" d="M1334.103 158.845c-1.244-1.788-2.845-3.241-4.71-4.278l-0.071-0.036c-1.822-1.019-3.976-1.668-6.27-1.792l-0.037-0.002h-81.69c-2.224 0.121-4.381 0.733-6.308 1.794s-3.563 2.545-4.781 4.314l-23.819 39.445c-0.236 2.466 0.279 4.95 1.484 7.15l16.154 26.351 28.842-47.54h91.166c2.369 0.085 4.672 0.782 6.671 2l-16.59-27.418z"></path>
<path fill="#4d6796" d="M1207.412 196.582l-1.054 1.721c-0.23 2.472 0.285 4.95 1.491 7.15l16.154 26.357 8.592-14.178-25.224-21.068z"></path>
<path fill="#fff" d="M1243.427 173.018c-0.004 0-0.010 0-0.015 0-1.024 0-1.978-0.298-2.781-0.812l0.021 0.012c-0.807-0.517-1.439-1.246-1.824-2.108l-0.012-0.031c-0.244-0.541-0.386-1.172-0.386-1.837 0-1.323 0.563-2.514 1.462-3.347l0.003-0.003c0.927-0.86 2.174-1.388 3.543-1.388 0.683 0 1.335 0.131 1.933 0.37l-0.035-0.012c0.909 0.364 1.691 0.969 2.236 1.757 0.528 0.737 0.844 1.656 0.844 2.65 0 1.324-0.561 2.516-1.459 3.353l-0.003 0.003c-0.914 0.863-2.151 1.394-3.511 1.394-0.005 0-0.011 0-0.016 0h0.001zM1325.117 168.261c0 0.015 0 0.034 0 0.052 0 1.207-0.502 2.298-1.308 3.074l-0.001 0.001c-0.838 0.822-1.986 1.33-3.253 1.333v0c-0.011 0-0.025 0-0.038 0-1.25 0-2.388-0.477-3.244-1.258l0.004 0.003c-0.841-0.775-1.372-1.874-1.394-3.098v-0.107c0.005-1.227 0.522-2.332 1.349-3.112l0.002-0.002c0.846-0.799 1.991-1.291 3.25-1.291 0.005 0 0.011 0 0.016 0h-0.001c1.224 0 2.399 0.46 3.266 1.291 0.829 0.783 1.346 1.888 1.351 3.114v0.001z"></path>
<path fill="#cc4232" d="M1374.936 226.35l-24.255-40.112c-1.904-1.176-4.193-1.908-6.646-1.999l-0.025-0.001h-32.859l28.442 47.831-45.008 75.873c-1.145 1.757-2.739 3.205-4.623 4.223h33.071c2.218-0.121 4.381-0.733 6.302-1.794 1.935-1.073 3.537-2.526 4.751-4.269l0.030-0.046 40.845-67.499c0.96-1.768 1.524-3.87 1.524-6.105s-0.564-4.337-1.558-6.173l0.034 0.069z"></path>
<path fill="#b23f33" d="M1351.784 188.075l-1.091-1.806c-1.903-1.179-4.192-1.913-6.646-2.005l-0.025-0.001h-32.877l8.562 14.384 32.077-10.585z"></path>
<path fill="#fff" d="M1320.494 300.509c-0.004 0-0.009 0-0.014 0-1.022 0-1.975-0.298-2.775-0.812l0.020 0.012c-0.809-0.517-1.443-1.245-1.83-2.108l-0.012-0.031c-0.238-0.534-0.376-1.157-0.376-1.813 0-0.332 0.036-0.656 0.103-0.968l-0.005 0.030c0.207-0.967 0.69-1.799 1.361-2.434l0.002-0.002c0.684-0.649 1.553-1.11 2.519-1.298l0.032-0.005c0.292-0.058 0.627-0.091 0.97-0.091 0.689 0 1.347 0.134 1.949 0.376l-0.035-0.012c0.909 0.364 1.691 0.969 2.242 1.757 0.518 0.737 0.828 1.652 0.828 2.64 0 1.325-0.557 2.519-1.45 3.362l-0.002 0.002c-0.913 0.863-2.148 1.394-3.506 1.394-0.007 0-0.014 0-0.021 0h0.001zM1359.297 237.111c-0.003 0-0.006 0-0.010 0-1.026 0-1.982-0.298-2.786-0.812l0.021 0.012c-0.808-0.517-1.439-1.245-1.824-2.108l-0.012-0.031c-0.243-0.54-0.384-1.17-0.384-1.833 0-1.325 0.564-2.517 1.466-3.351l0.003-0.003c0.683-0.65 1.552-1.112 2.519-1.298l0.032-0.005c0.292-0.058 0.627-0.091 0.97-0.091 0.689 0 1.347 0.133 1.949 0.376l-0.035-0.012c0.909 0.364 1.691 0.969 2.236 1.757 0.527 0.737 0.842 1.656 0.842 2.649 0 1.324-0.561 2.516-1.457 3.353l-0.003 0.002c-0.914 0.863-2.151 1.394-3.511 1.394-0.005 0-0.011 0-0.016 0h0.001z"></path>
<path fill="#ffcf23" d="M1253.486 279.895l-45.613-74.443c-0.967-1.733-1.537-3.802-1.537-6.004 0-0.403 0.019-0.802 0.057-1.196l-0.004 0.050-16.966 28.072c-0.96 1.768-1.524 3.87-1.524 6.105s0.564 4.337 1.558 6.173l-0.034-0.069 40.869 67.475c1.224 1.769 2.86 3.248 4.787 4.302 1.921 1.060 4.084 1.672 6.302 1.794h48.607c1.89-1.018 3.478-2.472 4.629-4.223l16.645-28.078h-57.774z"></path>
<path fill="#c79732" d="M1287.169 312.166h2.805c1.884-1.018 3.478-2.472 4.623-4.223l16.651-28.078h-17.699l-6.38 32.277z"></path>
<path fill="#fff" d="M1243.427 300.509c-0.003 0-0.006 0-0.010 0-1.026 0-1.982-0.298-2.786-0.812l0.021 0.012c-0.807-0.517-1.439-1.246-1.824-2.108l-0.012-0.031c-0.24-0.537-0.38-1.164-0.38-1.823 0-0.328 0.035-0.649 0.101-0.958l-0.005 0.030c0.21-0.966 0.692-1.797 1.361-2.434l0.002-0.002c0.686-0.649 1.557-1.11 2.525-1.298l0.032-0.005c0.292-0.058 0.627-0.091 0.97-0.091 0.689 0 1.347 0.133 1.949 0.376l-0.035-0.012c0.909 0.364 1.691 0.969 2.236 1.757 0.527 0.737 0.842 1.656 0.842 2.649 0 1.324-0.561 2.516-1.457 3.353l-0.003 0.002c-0.914 0.863-2.151 1.394-3.511 1.394-0.005 0-0.011 0-0.016 0h0.001zM1204.552 237.111c-0.004 0-0.009 0-0.014 0-1.022 0-1.975-0.298-2.775-0.812l0.020 0.012c-0.809-0.515-1.441-1.244-1.824-2.108l-0.012-0.030c-0.242-0.535-0.382-1.16-0.382-1.818 0-0.33 0.035-0.653 0.103-0.963l-0.005 0.030c0.21-0.966 0.692-1.797 1.361-2.434l0.002-0.002c0.926-0.86 2.17-1.388 3.539-1.388 0.683 0 1.334 0.131 1.932 0.37l-0.035-0.012c0.915 0.364 1.691 0.969 2.242 1.757 0.545 0.776 0.842 1.697 0.842 2.636-0.005 1.328-0.567 2.524-1.464 3.367l-0.002 0.002c-0.912 0.863-2.146 1.394-3.504 1.394-0.008 0-0.016 0-0.024 0h0.001z"></path>
</svg>
