<svg width="165" height="122" fill="none" xmlns="http://www.w3.org/2000/svg"><g clip-path="url(#a)"><path d="M119.401.224 3.486 36.124a4.936 4.936 0 0 0-3.261 6.182l20.853 66.891c.812 2.605 3.589 4.06 6.202 3.251l115.915-35.9a4.935 4.935 0 0 0 3.261-6.182L125.603 3.475c-.812-2.605-3.589-4.06-6.202-3.251Z" fill="url(#b)"/><path d="M118.801 1.28 5.444 36.388a4.936 4.936 0 0 0-3.262 6.182l20.011 64.189a4.958 4.958 0 0 0 6.203 3.251l113.356-35.107a4.936 4.936 0 0 0 3.262-6.183L125.003 4.531c-.812-2.605-3.589-4.06-6.202-3.25Z" fill="#fff"/><path d="M126.557 9.517 3.737 47.556l3.291 10.558 122.821-38.04-3.292-10.557Z" fill="#1299A1"/><path d="m60.334 85.1-31.207 9.664 1.424 4.566 31.206-9.665-1.423-4.566Z" fill="#BDBDBD"/><path d="M80.835 70.301 26.725 87.06l1.424 4.565 54.11-16.758-1.424-4.566Z" fill="#E0E0E0"/><path d="M160.045 41.998H37.923c-2.737 0-4.955 2.21-4.955 4.939v70.124c0 2.728 2.218 4.939 4.955 4.939h122.122c2.737 0 4.955-2.211 4.955-4.939V46.937c0-2.728-2.218-4.94-4.955-4.94Z" fill="url(#c)"/><path d="M158.125 42.813H39.422c-2.737 0-4.955 2.212-4.955 4.94v67.216c0 2.728 2.218 4.939 4.955 4.939h118.703c2.736 0 4.955-2.211 4.955-4.939V47.752c0-2.727-2.219-4.939-4.955-4.939Z" fill="#fff"/><path d="M68.8 80.24h-3.748v10.608h3.747V80.24ZM73.596 80.24H69.85v10.608h3.747V80.24ZM78.393 80.24h-3.748v10.608h3.748V80.24ZM86.787 80.24H83.04v10.608h3.747V80.24ZM91.584 80.24h-3.748v10.608h3.748V80.24ZM96.38 80.24h-3.747v10.608h3.748V80.24ZM104.775 80.24h-3.747v10.608h3.747V80.24ZM109.572 80.24h-3.748v10.608h3.748V80.24ZM114.369 80.24h-3.748v10.608h3.748V80.24ZM122.763 80.24h-3.748v10.608h3.748V80.24ZM127.56 80.24h-3.748v10.608h3.748V80.24ZM132.357 80.24h-3.748v10.608h3.748V80.24Z" fill="#E0E0E0"/><path d="M64.993 63.011H42.65v12.213h22.344V63.011Z" fill="#45CCD4"/><path opacity=".1" d="M143.197 103.063h-13.695v13.65h13.695v-13.65Z" fill="#6C63FF"/><path opacity=".1" d="M150.044 103.063h-13.695v13.65h13.695v-13.65Z" fill="#6C63FF"/></g><defs><linearGradient id="b" x1="73.587" y1="112.881" x2="74.083" y2="-.205" gradientUnits="userSpaceOnUse"><stop stop-color="gray" stop-opacity=".25"/><stop offset=".535" stop-color="gray" stop-opacity=".12"/><stop offset="1" stop-color="gray" stop-opacity=".1"/></linearGradient><linearGradient id="c" x1="72561.3" y1="54385.7" x2="72561.3" y2="18749.4" gradientUnits="userSpaceOnUse"><stop stop-color="gray" stop-opacity=".25"/><stop offset=".535" stop-color="gray" stop-opacity=".12"/><stop offset="1" stop-color="gray" stop-opacity=".1"/></linearGradient><clipPath id="a"><path fill="#fff" d="M0 0h165v122H0z"/></clipPath></defs></svg>