<svg width="167" height="49" fill="none" xmlns="http://www.w3.org/2000/svg"><g clip-path="url(#a)"><path d="M155.659 19.078h-6.706c-.863 0-1.562-.7-1.562-1.563V9.703c0-.863.699-1.562 1.562-1.562h16.094c.863 0 1.562.7 1.562 1.562v7.813c0 .862-.699 1.562-1.562 1.562h-1.35" fill="#fff"/><path d="m162.04 18.911-.951.951 1.979 1.98-1.768 1.767-1.979-1.979-.71.71-1.255-4.684 4.684 1.255Z" fill="#13100D"/><path d="M165.047 7.75h-6.458a.39.39 0 0 0 0 .781h6.458c.646 0 1.172.526 1.172 1.172v7.813c0 .646-.526 1.171-1.172 1.171h-1.35a.39.39 0 0 0 0 .782h1.35A1.955 1.955 0 0 0 167 17.515V9.703a1.955 1.955 0 0 0-1.953-1.953ZM155.659 18.687h-6.706a1.173 1.173 0 0 1-1.172-1.172V9.703c0-.646.526-1.172 1.172-1.172h6.511a.39.39 0 0 0 0-.781h-6.511A1.955 1.955 0 0 0 147 9.703v7.813c0 1.076.876 1.953 1.953 1.953h6.706a.39.39 0 1 0 0-.782Z" fill="#fff"/><path d="M158.564 14.611v-3.345a.39.39 0 0 0-.782 0v3.345a.952.952 0 0 1-1.902 0v-3.345a.39.39 0 0 0-.781 0v3.345c0 .955.777 1.733 1.732 1.733s1.733-.778 1.733-1.733Z" fill="#13100D"/><path d="M153.445 12.437c0-.861-.701-1.562-1.562-1.562h-1.58a.39.39 0 0 0-.391.39v4.688c0 .216.175.39.391.39h1.58a1.56 1.56 0 0 0 1.031-2.734c.325-.286.531-.705.531-1.172Zm-.781 2.344c0 .43-.351.781-.781.781h-1.19V14h1.19c.43 0 .781.35.781.781Zm-1.971-1.562v-1.563h1.19a.782.782 0 0 1 0 1.563h-1.19Z" fill="#130F0C"/><path d="M162.124 16.344a.39.39 0 0 0 .391-.391v-1.545l1.53-2.963a.391.391 0 0 0-.695-.359l-1.226 2.375-1.226-2.375a.391.391 0 0 0-.695.359l1.53 2.963v1.545c0 .216.175.39.391.39Z" fill="#13100D"/><path d="M157 7.114a.39.39 0 0 0 .391-.39V4.39a.39.39 0 0 0-.781 0v2.332c0 .216.175.39.39.39ZM159.051 7.341c.1 0 .2-.038.276-.114l.951-.951a.39.39 0 1 0-.552-.553l-.951.951a.39.39 0 0 0 .276.667ZM154.674 7.225a.388.388 0 0 0 .552 0 .39.39 0 0 0 0-.552l-.951-.951a.39.39 0 1 0-.552.552l.951.951ZM161.641 19.862l.675-.675a.39.39 0 0 0-.175-.653l-4.683-1.255a.392.392 0 0 0-.479.478l1.255 4.684a.391.391 0 0 0 .654.175l.433-.433 1.703 1.703a.389.389 0 0 0 .552 0l1.768-1.768a.39.39 0 0 0 0-.553l-1.703-1.703Zm-.341 3.195-1.703-1.703a.388.388 0 0 0-.552 0l-.231.231-.905-3.376 3.376.904-.473.473a.392.392 0 0 0 0 .553l1.703 1.703-1.215 1.215ZM156.988 8.531a.393.393 0 0 0 .39-.39.392.392 0 0 0-.667-.277.396.396 0 0 0-.114.277c0 .102.042.203.114.276a.396.396 0 0 0 .277.114Z" fill="#fff"/></g><path d="m16.151 9.85-2.542 2.79c-.413-.558-1.002-1.013-1.767-1.364a5.252 5.252 0 0 0-2.263-.527c-1.013 0-1.912.258-2.697.775-.785.496-1.178 1.24-1.178 2.232 0 .496.083.92.248 1.271.186.33.496.63.93.899a7.9 7.9 0 0 0 1.271.62c.393.145.971.341 1.736.589.723.227 1.312.424 1.767.589.475.165 1.033.434 1.674.806.661.351 1.178.734 1.55 1.147.393.413.723.961.992 1.643.29.661.434 1.405.434 2.232 0 2.253-.765 3.989-2.294 5.208-1.509 1.199-3.41 1.798-5.704 1.798-1.467 0-2.883-.269-4.247-.806-1.343-.558-2.439-1.333-3.286-2.325l2.79-2.604c.537.723 1.25 1.312 2.139 1.767.889.434 1.777.651 2.666.651 1.054 0 1.974-.269 2.759-.806.806-.537 1.209-1.354 1.209-2.449a2.94 2.94 0 0 0-.155-.992c-.103-.31-.3-.589-.589-.837a7.048 7.048 0 0 0-.713-.589c-.207-.165-.579-.341-1.116-.527a42.941 42.941 0 0 0-1.116-.434 32.57 32.57 0 0 0-1.364-.434 15.335 15.335 0 0 1-2.015-.775 10.286 10.286 0 0 1-1.736-1.085 4.661 4.661 0 0 1-1.333-1.798c-.31-.744-.465-1.602-.465-2.573 0-2.087.785-3.679 2.356-4.774 1.591-1.116 3.482-1.674 5.673-1.674 1.157 0 2.304.207 3.441.62 1.157.393 2.139.971 2.945 1.736Zm12.159 4.836c1.818 0 3.182.589 4.092 1.767.93 1.157 1.395 2.573 1.395 4.247V30h-3.72v-8.184c0-2.625-.92-3.937-2.76-3.937-1.115 0-1.983.403-2.603 1.209-.6.785-.9 1.715-.9 2.79V30h-3.72V6.564h3.72v10.633h.063c.33-.682.888-1.271 1.674-1.767.806-.496 1.725-.744 2.759-.744Zm8.958 7.812c0-2.294.775-4.164 2.325-5.611 1.55-1.467 3.472-2.201 5.766-2.201s4.216.734 5.766 2.201c1.55 1.447 2.325 3.317 2.325 5.611 0 2.315-.785 4.216-2.356 5.704-1.55 1.488-3.461 2.232-5.735 2.232-2.273 0-4.195-.744-5.766-2.232-1.55-1.488-2.325-3.39-2.325-5.704Zm4.898-3.348c-.744.95-1.116 2.067-1.116 3.348 0 1.281.372 2.408 1.116 3.379.744.971 1.809 1.457 3.193 1.457 1.385 0 2.45-.486 3.193-1.457.744-.971 1.116-2.098 1.116-3.379 0-1.281-.372-2.397-1.116-3.348-.744-.95-1.808-1.426-3.193-1.426-1.384 0-2.449.475-3.193 1.426Zm14.891-4.03h3.565v2.077h.093c.434-.682 1.085-1.271 1.953-1.767.889-.496 1.953-.744 3.193-.744 2.108 0 3.834.744 5.177 2.232 1.364 1.488 2.046 3.348 2.046 5.58s-.672 4.113-2.015 5.642c-1.323 1.53-3.09 2.294-5.3 2.294a6.481 6.481 0 0 1-2.884-.651c-.889-.434-1.57-1.023-2.046-1.767h-.062v9.424h-3.72V15.12Zm11.098 10.757c.765-.971 1.147-2.098 1.147-3.379 0-1.281-.382-2.397-1.147-3.348-.744-.95-1.787-1.426-3.13-1.426-1.303 0-2.357.496-3.163 1.488-.806.992-1.209 2.108-1.209 3.348 0 1.24.403 2.346 1.21 3.317.805.971 1.86 1.457 3.161 1.457 1.344 0 2.387-.486 3.131-1.457Zm19.09-8.928-2.418 2.139c-.351-.455-.816-.837-1.395-1.147a3.88 3.88 0 0 0-1.86-.465c-.661 0-1.23.134-1.705.403-.454.269-.682.672-.682 1.209 0 .517.238.899.713 1.147.476.248 1.313.517 2.511.806.641.145 1.21.32 1.705.527.496.186.992.444 1.488.775.517.33.91.765 1.178 1.302.29.537.434 1.147.434 1.829 0 1.695-.589 2.945-1.767 3.751-1.157.806-2.635 1.209-4.433 1.209a9.176 9.176 0 0 1-3.41-.651c-1.095-.434-1.994-1.033-2.697-1.798l2.45-2.294c.95 1.24 2.221 1.86 3.812 1.86.641 0 1.199-.145 1.674-.434.476-.29.713-.734.713-1.333 0-.579-.258-1.002-.775-1.271-.496-.29-1.374-.579-2.635-.868-1.343-.33-2.418-.796-3.224-1.395-.785-.62-1.178-1.56-1.178-2.821 0-1.55.579-2.728 1.736-3.534 1.158-.806 2.553-1.209 4.185-1.209 1.116 0 2.18.196 3.193.589 1.013.393 1.809.95 2.387 1.674ZM90.45 30V15.12h3.534v2.387h.062c.351-.785.94-1.447 1.767-1.984.847-.558 1.798-.837 2.852-.837 1.818 0 3.182.589 4.092 1.767.93 1.157 1.395 2.573 1.395 4.247V30h-3.72v-8.246c0-2.645-.93-3.968-2.79-3.968-1.116 0-1.974.403-2.573 1.209-.6.785-.9 1.726-.9 2.821V30h-3.72Zm27.281 0v-1.891h-.093c-.372.661-.982 1.209-1.829 1.643-.827.413-1.757.62-2.79.62-1.426 0-2.718-.372-3.875-1.116-1.137-.765-1.705-1.932-1.705-3.503 0-.847.206-1.581.62-2.201a4.609 4.609 0 0 1 1.612-1.488c.64-.351 1.436-.63 2.387-.837.971-.227 1.88-.372 2.728-.434a40.727 40.727 0 0 1 2.883-.093v-.372c0-.868-.321-1.54-.961-2.015-.641-.475-1.457-.713-2.449-.713-1.571 0-2.925.568-4.061 1.705l-1.922-2.263c1.694-1.57 3.792-2.356 6.293-2.356 1.281 0 2.366.186 3.255.558.909.351 1.601.847 2.077 1.488.475.62.806 1.281.992 1.984a7.69 7.69 0 0 1 .31 2.232V30h-3.472Zm-.062-6.262v-.527h-.837c-3.782 0-5.673.827-5.673 2.48 0 .661.248 1.137.744 1.426.516.29 1.136.434 1.86.434 1.26 0 2.221-.33 2.883-.992.682-.682 1.023-1.622 1.023-2.821Zm7.93-17.174h3.72v10.447h.093c1.24-1.55 2.903-2.325 4.991-2.325 2.108 0 3.833.744 5.177 2.232 1.364 1.488 2.046 3.348 2.046 5.58s-.672 4.113-2.015 5.642c-1.323 1.53-3.09 2.294-5.301 2.294a6.687 6.687 0 0 1-2.976-.682c-.93-.475-1.643-1.137-2.139-1.984h-.062V30h-3.534V6.564Zm11.098 19.313c.764-.971 1.147-2.098 1.147-3.379 0-1.281-.383-2.397-1.147-3.348-.744-.95-1.788-1.426-3.131-1.426-1.302 0-2.356.496-3.162 1.488s-1.209 2.108-1.209 3.348c0 1.24.403 2.346 1.209 3.317.806.971 1.86 1.457 3.162 1.457 1.343 0 2.387-.486 3.131-1.457ZM.602 47v-4.956h.693v3.927h.014l2.499-3.927h.763V47h-.693v-3.927h-.014L1.365 47H.602Zm5.28 0v-4.956h.693v2.072h2.513v-2.072h.693V47h-.693v-2.268H6.575V47h-.693Zm6.247 0v-4.347H10.54v-.609h3.871v.609h-1.589V47h-.693Zm3.048 0v-4.956h3.178v.609H15.87v1.484h2.338v.595H15.87v1.652h2.59V47h-3.283Zm4.309 0v-4.956h1.512c.555 0 .99.114 1.302.343.313.224.469.57.469 1.036 0 .476-.166.828-.497 1.057-.327.229-.763.343-1.31.343h-.783V47h-.693Zm.693-2.765h.735c.77 0 1.155-.27 1.155-.812 0-.527-.38-.791-1.141-.791h-.75v1.603ZM23.754 47v-4.956h.693v2.072h2.513v-2.072h.693V47h-.693v-2.268h-2.513V47h-.693Zm5.205 0v-4.956h3.178v.609h-2.485v1.484h2.338v.595h-2.338v1.652h2.59V47h-3.283Zm5.352 0v-4.347h-1.59v-.609h3.872v.609h-1.59V47h-.692Zm3.748-1.988v.56h-1.624v-.56h1.624ZM39.076 47v-4.956h1.078l1.484 3.808h.014l1.463-3.808h1.078V47H43.5v-4.144h-.014L41.841 47h-.44l-1.639-4.144h-.014V47h-.672Zm5.861 0 2.15-4.956h.63L49.844 47h-.784l-.504-1.218h-2.351L45.708 47h-.77Zm1.513-1.827h1.854l-.924-2.324-.93 2.324ZM50.586 47v-4.956h2.891v.609H51.28V47h-.693Zm2.525 0 2.15-4.956h.63L58.017 47h-.784l-.504-1.218h-2.352L53.881 47h-.77Zm1.512-1.827h1.855l-.924-2.324-.93 2.324Zm5.488 1.953c-.747 0-1.323-.243-1.729-.728l.511-.455c.28.397.679.595 1.197.595.322 0 .588-.084.798-.252a.851.851 0 0 0 .315-.693c0-.579-.422-.868-1.267-.868h-.322v-.588h.329c.747 0 1.12-.282 1.12-.847a.705.705 0 0 0-.259-.567c-.173-.15-.404-.224-.693-.224-.467 0-.824.161-1.071.483l-.469-.427c.34-.425.852-.637 1.533-.637.5 0 .896.119 1.19.357.294.233.441.56.441.98 0 .285-.082.527-.245.728-.163.2-.373.336-.63.406v.014c.308.065.56.205.756.42.2.215.301.48.301.798 0 .462-.177.828-.532 1.099-.35.27-.775.406-1.274.406ZM62.994 47v-4.956h.693v3.927h.014l2.499-3.927h.763V47h-.693v-3.927h-.014L63.756 47h-.762Zm5.28 0v-4.956h.693v2.072h2.513v-2.072h.693V47h-.693v-2.268h-2.513V47h-.693Zm5.204 0v-4.956h.693v2.058h.798c.556 0 .999.121 1.33.364.332.243.497.604.497 1.085 0 .476-.165.838-.497 1.085-.326.243-.765.364-1.316.364h-1.505Zm.693-.588h.742c.789 0 1.183-.285 1.183-.854 0-.28-.102-.495-.308-.644-.205-.15-.497-.224-.875-.224h-.742v1.722Zm3.346.588v-4.956h.693V47h-.693Zm5.87-3.962v1.554h1.555v.574h-1.554v1.554h-.574v-1.554H81.26v-.574h1.554v-1.554h.574ZM87.995 47v-4.956h3.871V47h-.693v-4.347h-2.485V47h-.693Zm7.543.126c-.756 0-1.381-.245-1.876-.735-.494-.49-.742-1.115-.742-1.876 0-.765.245-1.388.735-1.869.495-.485 1.123-.728 1.883-.728s1.389.243 1.883.728c.5.48.75 1.104.75 1.869 0 .76-.25 1.386-.75 1.876-.494.49-1.122.735-1.883.735Zm0-.623c.565 0 1.02-.189 1.365-.567.346-.383.518-.856.518-1.421 0-.56-.172-1.031-.518-1.414-.345-.383-.8-.574-1.365-.574-.555 0-1.005.191-1.35.574-.346.383-.519.854-.519 1.414 0 .565.173 1.038.518 1.421.346.378.796.567 1.351.567Zm6.039.623c-.761 0-1.386-.245-1.876-.735s-.735-1.115-.735-1.876c0-.765.25-1.388.749-1.869.499-.485 1.129-.728 1.89-.728.354 0 .695.068 1.022.203.326.135.578.324.756.567l-.546.42a1.308 1.308 0 0 0-.518-.42 1.632 1.632 0 0 0-.714-.161c-.56 0-1.015.191-1.365.574-.346.383-.518.854-.518 1.414 0 .57.17 1.045.511 1.428.34.378.791.567 1.351.567.583 0 1.026-.22 1.33-.658l.553.378c-.439.597-1.069.896-1.89.896Zm3.745-.126v-4.347h-1.589v-.609h3.871v.609h-1.589V47h-.693Zm2.063 0 2.149-4.956h.63L112.291 47h-.784l-.504-1.218h-2.352L108.154 47h-.77Zm1.512-1.827h1.855l-.924-2.324-.931 2.324ZM113.033 47v-4.956h1.708c.429 0 .795.1 1.099.301.303.2.455.518.455.952 0 .266-.08.495-.238.686a1.161 1.161 0 0 1-.63.392v.014c.326.037.59.163.791.378.205.215.308.49.308.826 0 .457-.175.807-.525 1.05-.346.238-.791.357-1.337.357h-1.631Zm.693-.588h.868c.219 0 .415-.023.588-.07a.963.963 0 0 0 .448-.266.718.718 0 0 0 .196-.518c0-.555-.39-.833-1.169-.833h-.931v1.687Zm0-2.275h.903c.284 0 .518-.063.7-.189.182-.13.273-.324.273-.581 0-.495-.362-.742-1.085-.742h-.791v1.512Zm10.049 4.039V47h-6.146v-4.956h.693v4.34h2.072v-4.34h.693v4.34h2.072v-4.34h.693v4.34h.553v1.792h-.63ZM125.322 47v-4.956h.693v3.927h.014l2.499-3.927h.763V47h-.693v-3.927h-.014L126.085 47h-.763Zm5.28 0v-4.956h.693v2.184h.014l2.212-2.184h.959l-2.408 2.268L134.627 47h-.994l-2.324-2.562h-.014V47h-.693Zm4.719 0v-4.956h.693v3.927h.014l2.499-3.927h.763V47h-.693v-3.927h-.014L136.084 47h-.763Z" fill="#fff"/><path d="m75 28 65.5-10.5-65 12.5-.5-2Z" fill="#120F0C" stroke="#0E0B09"/><defs><clipPath id="a"><path fill="#fff" transform="translate(147 4)" d="M0 0h20v20H0z"/></clipPath></defs></svg>