<svg width="47" height="47" fill="none" xmlns="http://www.w3.org/2000/svg"><path d="M28.109 2a1 1 0 0 0-1-1H17.89a1 1 0 0 0-1 1v13.891a1 1 0 0 1-1 1H2a1 1 0 0 0-1 1v9.218a1 1 0 0 0 1 1h13.891a1 1 0 0 1 1 1V43a1 1 0 0 0 1 1h9.218a1 1 0 0 0 1-1V29.109a1 1 0 0 1 1-1H43a1 1 0 0 0 1-1V17.89a1 1 0 0 0-1-1H29.109a1 1 0 0 1-1-1V2Z" stroke="#4A4A4A"/><path d="M31.109 5a1 1 0 0 0-1-1H20.89a1 1 0 0 0-1 1v13.891a1 1 0 0 1-1 1H5a1 1 0 0 0-1 1v9.218a1 1 0 0 0 1 1h13.891a1 1 0 0 1 1 1V46a1 1 0 0 0 1 1h9.218a1 1 0 0 0 1-1V32.109a1 1 0 0 1 1-1H46a1 1 0 0 0 1-1V20.89a1 1 0 0 0-1-1H32.109a1 1 0 0 1-1-1V5Z" fill="#1299A2"/></svg>