<svg width="28" height="28" viewBox="0 0 28 28" fill="none" xmlns="http://www.w3.org/2000/svg">
<path d="M14.0199 1.23202e-06C19.3448 1.23202e-06 24.2039 3.03524 26.5403 7.82018C28.8763 12.6054 28.281 18.3036 25.0064 22.5022C25.6286 23.9983 25.983 25.5925 26.0532 27.2111C26.0591 27.383 25.9951 27.5497 25.8757 27.6734C25.7564 27.7971 25.5918 27.8667 25.4199 27.8667C25.3556 27.8664 25.2916 27.8565 25.23 27.8376C23.8378 27.3478 22.5238 26.6584 21.3292 25.7919C16.3009 28.8937 9.86333 28.487 5.26517 24.7776C0.667009 21.0679 -1.09167 14.862 0.876678 9.29157C2.84471 3.72114 8.11208 -0.00247273 14.0199 1.23202e-06ZM14.0199 26.6C16.5044 26.6046 18.9344 25.8723 21.003 24.4962C21.2281 24.3462 21.5234 24.3555 21.7383 24.5194C22.6552 25.2137 23.6485 25.8003 24.699 26.2682C24.5812 25.0408 24.2438 23.8446 23.7023 22.7366C23.5737 22.5084 23.5991 22.2248 23.7657 22.0229C27.5546 17.4575 27.6672 10.8737 24.0363 6.1815C20.4055 1.48932 14.0041 -0.0538074 8.63408 2.46808C3.26374 4.99028 0.363951 10.9021 1.65628 16.6924C2.94862 22.483 8.08703 26.6006 14.0199 26.6Z" fill="white"/>
<path d="M15.5 11.8C15.5 14.44 11.66 14.14 12.24 17.66L14.34 17.64C13.92 15.12 17.96 15.22 17.96 11.3C17.96 9.38 16.42 7.78 13.76 7.78C11.96 7.78 10.52 8.66 9.8 9.82L11.16 11.36C11.8 10.52 12.52 10.08 13.62 10.08C14.7 10.08 15.5 10.86 15.5 11.8ZM11.8 20.5C11.8 21.32 12.4 22.1 13.38 22.1C14.26 22.1 14.86 21.32 14.86 20.5C14.86 19.8 14.26 19.02 13.38 19.02C12.4 19.02 11.8 19.8 11.8 20.5Z" fill="white"/>
</svg>
