<svg width="32" height="32" fill="none" xmlns="http://www.w3.org/2000/svg"><path d="M30.697 12.54 24 9.67V4a.5.5 0 0 0-.146-.353l-2.5-2.5A.5.5 0 0 0 21 1H2.5A1.5 1.5 0 0 0 1 2.5v27A1.5 1.5 0 0 0 2.5 31h20a1.5 1.5 0 0 0 1.5-1.5v-1.243l2.603-1.857A10.521 10.521 0 0 0 31 17.854V13a.5.5 0 0 0-.303-.46ZM23 4.207V4.5h-2.5V2h.293L23 4.207ZM22.5 30h-20a.5.5 0 0 1-.5-.5v-27a.5.5 0 0 1 .5-.5h17v3a.5.5 0 0 0 .5.5h3v4.17l-6.697 2.87A.5.5 0 0 0 16 13v4.854a10.52 10.52 0 0 0 4.397 8.546L23 28.257V29.5a.5.5 0 0 1-.5.5ZM30 17.854a9.52 9.52 0 0 1-3.978 7.73L23.5 27.386l-2.522-1.8A9.519 9.519 0 0 1 17 17.854V13.33l6.5-2.786 6.5 2.785v4.525Z" fill="#fff"/><path d="m23.314 12.036-5 2A.5.5 0 0 0 18 14.5v3.155a8.46 8.46 0 0 0 3.19 6.638l1.997 1.6a.5.5 0 0 0 .625 0l1.998-1.6A8.459 8.459 0 0 0 29 17.655V14.5a.5.5 0 0 0-.314-.464l-5-2a.503.503 0 0 0-.372 0ZM28 14.839v2.816a7.462 7.462 0 0 1-2.814 5.856l-1.686 1.35-1.686-1.35A7.462 7.462 0 0 1 19 17.654V14.84l4.5-1.8 4.5 1.8ZM3.5 10h14a.5.5 0 0 0 .5-.5v-6a.5.5 0 0 0-.5-.5h-14a.5.5 0 0 0-.5.5v6a.5.5 0 0 0 .5.5ZM4 4h13v5H4V4ZM14.5 22h-11a.5.5 0 0 0-.5.5v6a.5.5 0 0 0 .5.5h11a.5.5 0 0 0 .5-.5v-6a.5.5 0 0 0-.5-.5Zm-.5 6H4v-5h10v5ZM3 12.5h12v1H3v-1ZM3 15.5h12v1H3v-1ZM3 18.5h12v1H3v-1Z" fill="#fff"/></svg>