<svg width="34" height="34" viewBox="0 0 34 34" fill="none" xmlns="http://www.w3.org/2000/svg">
<path d="M32.3 3.1167H7.36667C6.42777 3.1167 5.66667 3.8778 5.66667 4.8167V12.75H1.7C0.761104 12.75 0 13.5111 0 14.45V29.1834C0 30.1223 0.761104 30.8834 1.7 30.8834H26.6333C27.5722 30.8834 28.3333 30.1223 28.3333 29.1834V21.25H32.3C33.2389 21.25 34 20.4889 34 19.55V4.8167C34 3.8778 33.2389 3.1167 32.3 3.1167ZM27.2 29.1834C27.2 29.4963 26.9463 29.75 26.6333 29.75H1.7C1.38706 29.75 1.13333 29.4963 1.13333 29.1834V18.4167H27.2V29.1834ZM27.2 17.2834H1.13333V15.5834H27.2V17.2834ZM1.13333 14.45C1.13333 14.1371 1.38706 13.8834 1.7 13.8834H26.6333C26.9463 13.8834 27.2 14.1371 27.2 14.45H1.13333ZM26.6333 12.75H23.8V11.05H30.6V17.85H28.3333V14.45C28.3333 13.5111 27.5722 12.75 26.6333 12.75ZM32.8667 19.55C32.8667 19.863 32.6129 20.1167 32.3 20.1167H28.3333V18.9834H31.1667C31.4796 18.9834 31.7333 18.7296 31.7333 18.4167V10.4834C31.7333 10.1704 31.4796 9.9167 31.1667 9.9167H23.2333C22.9204 9.9167 22.6667 10.1704 22.6667 10.4834V12.75H6.8V8.78337H32.8667V19.55ZM32.8667 7.65003H6.8V5.95003H32.8667V7.65003ZM6.8 4.8167C6.8 4.50376 7.05372 4.25003 7.36667 4.25003H32.3C32.6129 4.25003 32.8667 4.50376 32.8667 4.8167H6.8Z" fill="white"/>
<path d="M5.10006 28.1748C5.79486 28.8063 6.86997 28.755 7.50152 28.0602C8.133 27.3654 8.08172 26.2903 7.38691 25.6588C7.07142 25.372 6.65967 25.2143 6.23339 25.2168C5.81385 25.2183 5.40981 25.3758 5.10006 25.6588C4.40525 25.0273 3.33015 25.0786 2.6986 25.7734C2.06712 26.4682 2.1184 27.5433 2.81313 28.1748C3.46161 28.7642 4.45165 28.7642 5.10006 28.1748ZM6.23339 26.3502C6.54633 26.3502 6.80006 26.6039 6.80006 26.9168C6.80006 27.2298 6.54633 27.4835 6.23339 27.4835C5.92045 27.4835 5.66673 27.2298 5.66673 26.9168C5.66673 26.6039 5.92045 26.3502 6.23339 26.3502ZM3.96672 26.3502C4.27967 26.3502 4.53339 26.6039 4.53339 26.9168C4.53339 27.2298 4.27967 27.4835 3.96672 27.4835C3.65378 27.4835 3.40006 27.2298 3.40006 26.9168C3.40006 26.6039 3.65378 26.3502 3.96672 26.3502Z" fill="white"/>
<path d="M7.93348 21.8164H3.40015V22.9497H7.93348V21.8164Z" fill="white"/>
<path d="M13.6 21.8164H9.06665V22.9497H13.6V21.8164Z" fill="white"/>
<path d="M19.2667 21.8164H14.7334V22.9497H19.2667V21.8164Z" fill="white"/>
<path d="M24.9335 21.8164H20.4001V22.9497H24.9335V21.8164Z" fill="white"/>
</svg>
